AnekTamil-ExpandedMedium.ufo
<glyph name="cedillacomb" format="2">
  <unicode hex="0327"/>
  <anchor x="349" y="0" name="_bottom"/>
  <anchor x="407" y="-439" name="bottom"/>
  <outline>
    <contour>
      <point x="434" y="20" type="line"/>
      <point x="274" y="20" type="line"/>
      <point x="240" y="-187" type="line"/>
      <point x="249" y="-187"/>
      <point x="257" y="-187"/>
      <point x="283" y="-188" type="curve" smooth="yes"/>
      <point x="428" y="-193"/>
      <point x="478" y="-208"/>
      <point x="478" y="-249" type="curve" smooth="yes"/>
      <point x="478" y="-251" type="line" smooth="yes"/>
      <point x="478" y="-291"/>
      <point x="429" y="-305"/>
      <point x="350" y="-305" type="curve" smooth="yes"/>
      <point x="275" y="-305"/>
      <point x="209" y="-294"/>
      <point x="152" y="-277" type="curve"/>
      <point x="181" y="-414" type="line"/>
      <point x="230" y="-427"/>
      <point x="304" y="-439"/>
      <point x="376" y="-439" type="curve" smooth="yes"/>
      <point x="558" y="-439"/>
      <point x="651" y="-384"/>
      <point x="651" y="-263" type="curve" smooth="yes"/>
      <point x="651" y="-257" type="line" smooth="yes"/>
      <point x="651" y="-152"/>
      <point x="580" y="-98"/>
      <point x="412" y="-91" type="curve" smooth="yes"/>
      <point x="382" y="-90"/>
      <point x="352" y="-90"/>
      <point x="322" y="-90" type="curve"/>
      <point x="401" y="-155" type="line"/>
    </contour>
  </outline>
</glyph>
<glyph name="Aaytam.tm" format="2">
  <advance width="1991"/>
  <unicode hex="0B83"/>
  <note>
Aaytam.tm
</note>
  <outline>
    <contour>
      <point x="494" y="616" type="curve" smooth="yes"/>
      <point x="218" y="616"/>
      <point x="83" y="494"/>
      <point x="83" y="293" type="curve" smooth="yes"/>
      <point x="83" y="293" type="line" smooth="yes"/>
      <point x="83" y="92"/>
      <point x="218" y="-31"/>
      <point x="494" y="-31" type="curve" smooth="yes"/>
      <point x="770" y="-31"/>
      <point x="905" y="92"/>
      <point x="905" y="293" type="curve" smooth="yes"/>
      <point x="905" y="293" type="line" smooth="yes"/>
      <point x="905" y="494"/>
      <point x="770" y="616"/>
    </contour>
    <contour>
      <point x="494" y="468" type="curve" smooth="yes"/>
      <point x="647" y="468"/>
      <point x="714" y="400"/>
      <point x="714" y="293" type="curve" smooth="yes"/>
      <point x="714" y="293" type="line" smooth="yes"/>
      <point x="714" y="186"/>
      <point x="647" y="118"/>
      <point x="494" y="118" type="curve" smooth="yes"/>
      <point x="341" y="118"/>
      <point x="273" y="186"/>
      <point x="273" y="293" type="curve" smooth="yes"/>
      <point x="273" y="293" type="line" smooth="yes"/>
      <point x="273" y="400"/>
      <point x="341" y="468"/>
    </contour>
    <contour>
      <point x="1497" y="616" type="curve" smooth="yes"/>
      <point x="1221" y="616"/>
      <point x="1086" y="494"/>
      <point x="1086" y="293" type="curve" smooth="yes"/>
      <point x="1086" y="293" type="line" smooth="yes"/>
      <point x="1086" y="92"/>
      <point x="1221" y="-31"/>
      <point x="1497" y="-31" type="curve" smooth="yes"/>
      <point x="1773" y="-31"/>
      <point x="1908" y="92"/>
      <point x="1908" y="293" type="curve" smooth="yes"/>
      <point x="1908" y="293" type="line" smooth="yes"/>
      <point x="1908" y="494"/>
      <point x="1773" y="616"/>
    </contour>
    <contour>
      <point x="1497" y="468" type="curve" smooth="yes"/>
      <point x="1650" y="468"/>
      <point x="1717" y="400"/>
      <point x="1717" y="293" type="curve" smooth="yes"/>
      <point x="1717" y="293" type="line" smooth="yes"/>
      <point x="1717" y="186"/>
      <point x="1650" y="118"/>
      <point x="1497" y="118" type="curve" smooth="yes"/>
      <point x="1344" y="118"/>
      <point x="1276" y="186"/>
      <point x="1276" y="293" type="curve" smooth="yes"/>
      <point x="1276" y="293" type="line" smooth="yes"/>
      <point x="1276" y="400"/>
      <point x="1344" y="468"/>
    </contour>
    <contour>
      <point x="995" y="1320" type="curve" smooth="yes"/>
      <point x="718" y="1320"/>
      <point x="583" y="1198"/>
      <point x="583" y="1001" type="curve" smooth="yes"/>
      <point x="583" y="1001" type="line" smooth="yes"/>
      <point x="583" y="803"/>
      <point x="718" y="682"/>
      <point x="995" y="682" type="curve" smooth="yes"/>
      <point x="1272" y="682"/>
      <point x="1407" y="803"/>
      <point x="1407" y="1001" type="curve" smooth="yes"/>
      <point x="1407" y="1001" type="line" smooth="yes"/>
      <point x="1407" y="1198"/>
      <point x="1272" y="1320"/>
    </contour>
    <contour>
      <point x="995" y="1172" type="curve" smooth="yes"/>
      <point x="1148" y="1172"/>
      <point x="1217" y="1105"/>
      <point x="1217" y="1001" type="curve" smooth="yes"/>
      <point x="1217" y="1001" type="line" smooth="yes"/>
      <point x="1217" y="896"/>
      <point x="1148" y="829"/>
      <point x="995" y="829" type="curve" smooth="yes"/>
      <point x="842" y="829"/>
      <point x="774" y="896"/>
      <point x="774" y="1001" type="curve" smooth="yes"/>
      <point x="774" y="1001" type="line" smooth="yes"/>
      <point x="774" y="1105"/>
      <point x="842" y="1172"/>
    </contour>
  </outline>
</glyph>
<glyph name="VowelU.tm" format="2">
  <advance width="2408"/>
  <unicode hex="0B89"/>
  <note>
vowelU.tm
</note>
  <outline>
    <contour>
      <point x="877" y="1184" type="curve" smooth="yes"/>
      <point x="418" y="1184"/>
      <point x="180" y="1005"/>
      <point x="180" y="702" type="curve" smooth="yes"/>
      <point x="180" y="700" type="line" smooth="yes"/>
      <point x="180" y="501"/>
      <point x="298" y="353"/>
      <point x="565" y="343" type="curve"/>
      <point x="769" y="372" type="line"/>
      <point x="945" y="392"/>
      <point x="1007" y="504"/>
      <point x="1007" y="625" type="curve" smooth="yes"/>
      <point x="1007" y="626" type="line" smooth="yes"/>
      <point x="1007" y="800"/>
      <point x="897" y="903"/>
      <point x="683" y="903" type="curve" smooth="yes"/>
      <point x="508" y="903"/>
      <point x="402" y="819"/>
      <point x="370" y="714" type="curve"/>
      <point x="353" y="714" type="line"/>
      <point x="357" y="622" type="line"/>
      <point x="387" y="702"/>
      <point x="487" y="767"/>
      <point x="620" y="767" type="curve" smooth="yes"/>
      <point x="761" y="767"/>
      <point x="828" y="711"/>
      <point x="828" y="609" type="curve" smooth="yes"/>
      <point x="828" y="608" type="line" smooth="yes"/>
      <point x="828" y="506"/>
      <point x="759" y="440"/>
      <point x="614" y="440" type="curve" smooth="yes"/>
      <point x="450" y="440"/>
      <point x="370" y="523"/>
      <point x="370" y="657" type="curve"/>
      <point x="372" y="714" type="line"/>
      <point x="363" y="714" type="line"/>
      <point x="369" y="917"/>
      <point x="533" y="1036"/>
      <point x="876" y="1036" type="curve" smooth="yes"/>
      <point x="1225" y="1036"/>
      <point x="1363" y="933"/>
      <point x="1363" y="754" type="curve" smooth="yes"/>
      <point x="1363" y="750" type="line" smooth="yes"/>
      <point x="1363" y="577"/>
      <point x="1278" y="485"/>
      <point x="973" y="472" type="curve"/>
      <point x="640" y="427" type="line"/>
      <point x="377" y="437" type="line"/>
      <point x="218" y="431"/>
      <point x="145" y="353"/>
      <point x="145" y="212" type="curve" smooth="yes"/>
      <point x="145" y="138"/>
      <point x="176" y="55"/>
      <point x="211" y="0" type="curve"/>
      <point x="2359" y="0" type="line"/>
      <point x="2392" y="149" type="line"/>
      <point x="329" y="149" type="line"/>
      <point x="320" y="172"/>
      <point x="315" y="195"/>
      <point x="315" y="220" type="curve" smooth="yes"/>
      <point x="315" y="278"/>
      <point x="342" y="306"/>
      <point x="421" y="310" type="curve" smooth="yes"/>
      <point x="996" y="336" type="line" smooth="yes"/>
      <point x="1426" y="355"/>
      <point x="1562" y="485"/>
      <point x="1562" y="749" type="curve" smooth="yes"/>
      <point x="1562" y="753" type="line" smooth="yes"/>
      <point x="1562" y="1028"/>
      <point x="1350" y="1184"/>
    </contour>
  </outline>
</glyph>
<glyph name="VowelAi.tm" format="2">
  <advance width="2395"/>
  <unicode hex="0B90"/>
  <note>
vowelAi.tm
</note>
  <outline>
    <contour>
      <point x="814" y="1165" type="curve" smooth="yes"/>
      <point x="373" y="1165"/>
      <point x="140" y="961"/>
      <point x="140" y="614" type="curve" smooth="yes"/>
      <point x="140" y="603" type="line" smooth="yes"/>
      <point x="140" y="353"/>
      <point x="260" y="188"/>
      <point x="515" y="153" type="curve"/>
      <point x="821" y="173" type="line"/>
      <point x="980" y="232"/>
      <point x="1046" y="359"/>
      <point x="1046" y="503" type="curve" smooth="yes"/>
      <point x="1046" y="505" type="line" smooth="yes"/>
      <point x="1046" y="710"/>
      <point x="932" y="830"/>
      <point x="688" y="830" type="curve" smooth="yes"/>
      <point x="494" y="830"/>
      <point x="367" y="733"/>
      <point x="337" y="612" type="curve"/>
      <point x="320" y="612" type="line"/>
      <point x="328" y="507" type="line"/>
      <point x="358" y="594"/>
      <point x="467" y="667"/>
      <point x="614" y="667" type="curve" smooth="yes"/>
      <point x="773" y="667"/>
      <point x="845" y="601"/>
      <point x="845" y="483" type="curve" smooth="yes"/>
      <point x="845" y="481" type="line" smooth="yes"/>
      <point x="845" y="364"/>
      <point x="773" y="285"/>
      <point x="614" y="285" type="curve" smooth="yes"/>
      <point x="426" y="285"/>
      <point x="339" y="385"/>
      <point x="339" y="542" type="curve"/>
      <point x="341" y="612" type="line"/>
      <point x="329" y="612" type="line"/>
      <point x="328" y="857"/>
      <point x="498" y="1004"/>
      <point x="825" y="1004" type="curve" smooth="yes"/>
      <point x="1171" y="1004"/>
      <point x="1297" y="860"/>
      <point x="1297" y="586" type="curve" smooth="yes"/>
      <point x="1297" y="429" type="line"/>
      <point x="1496" y="429" type="line"/>
      <point x="1496" y="669" type="line" smooth="yes"/>
      <point x="1496" y="910"/>
      <point x="1616" y="992"/>
      <point x="1784" y="992" type="curve" smooth="yes"/>
      <point x="1986" y="992"/>
      <point x="2060" y="875"/>
      <point x="2060" y="690" type="curve" smooth="yes"/>
      <point x="2060" y="687" type="line" smooth="yes"/>
      <point x="2060" y="446"/>
      <point x="1951" y="322"/>
      <point x="1603" y="309" type="curve" smooth="yes"/>
      <point x="820" y="280" type="line"/>
      <point x="487" y="213" type="line"/>
      <point x="258" y="169"/>
      <point x="164" y="47"/>
      <point x="163" y="-148" type="curve" smooth="yes"/>
      <point x="163" y="-151" type="line" smooth="yes"/>
      <point x="163" y="-420"/>
      <point x="348" y="-590"/>
      <point x="752" y="-590" type="curve" smooth="yes"/>
      <point x="1081" y="-590"/>
      <point x="1248" y="-456"/>
      <point x="1264" y="-219" type="curve"/>
      <point x="1272" y="-219" type="line"/>
      <point x="1287" y="-454"/>
      <point x="1440" y="-590"/>
      <point x="1746" y="-590" type="curve" smooth="yes"/>
      <point x="2104" y="-590"/>
      <point x="2235" y="-410"/>
      <point x="2235" y="-120" type="curve" smooth="yes"/>
      <point x="2235" y="-45"/>
      <point x="2225" y="29"/>
      <point x="2201" y="95" type="curve"/>
      <point x="2010" y="100" type="line"/>
      <point x="2033" y="34"/>
      <point x="2043" y="-37"/>
      <point x="2043" y="-101" type="curve" smooth="yes"/>
      <point x="2043" y="-302"/>
      <point x="1959" y="-427"/>
      <point x="1723" y="-427" type="curve" smooth="yes"/>
      <point x="1503" y="-427"/>
      <point x="1371" y="-337"/>
      <point x="1371" y="-79" type="curve" smooth="yes"/>
      <point x="1371" y="20" type="line"/>
      <point x="1166" y="20" type="line"/>
      <point x="1166" y="-82" type="line" smooth="yes"/>
      <point x="1166" y="-334"/>
      <point x="1022" y="-427"/>
      <point x="771" y="-427" type="curve" smooth="yes"/>
      <point x="487" y="-427"/>
      <point x="364" y="-318"/>
      <point x="364" y="-149" type="curve" smooth="yes"/>
      <point x="364" y="-146" type="line" smooth="yes"/>
      <point x="365" y="22"/>
      <point x="463" y="109"/>
      <point x="794" y="121" type="curve" smooth="yes"/>
      <point x="1665" y="154" type="line" smooth="yes"/>
      <point x="2123" y="171"/>
      <point x="2258" y="355"/>
      <point x="2259" y="698" type="curve" smooth="yes"/>
      <point x="2259" y="701" type="line" smooth="yes"/>
      <point x="2259" y="982"/>
      <point x="2131" y="1154"/>
      <point x="1813" y="1154" type="curve" smooth="yes"/>
      <point x="1540" y="1154"/>
      <point x="1414" y="1015"/>
      <point x="1394" y="787" type="curve"/>
      <point x="1387" y="787" type="line"/>
      <point x="1351" y="1016"/>
      <point x="1196" y="1165"/>
    </contour>
  </outline>
</glyph>
<glyph name="Ka.tm" format="2">
  <advance width="2023"/>
  <unicode hex="0B95"/>
  <note>
Ka.tm
</note>
  <anchor x="1152" y="1236" name="top"/>
  <outline>
    <contour>
      <point x="1171" y="524" type="line"/>
      <point x="1481" y="524" type="line" smooth="yes"/>
      <point x="1647" y="524"/>
      <point x="1721" y="468"/>
      <point x="1721" y="345" type="curve" smooth="yes"/>
      <point x="1721" y="342" type="line" smooth="yes"/>
      <point x="1721" y="225"/>
      <point x="1662" y="140"/>
      <point x="1469" y="140" type="curve" smooth="yes"/>
      <point x="1339" y="140"/>
      <point x="1254" y="159"/>
      <point x="1160" y="197" type="curve"/>
      <point x="1156" y="185" type="line"/>
      <point x="1200" y="21" type="line"/>
      <point x="1274" y="-3"/>
      <point x="1387" y="-25"/>
      <point x="1514" y="-25" type="curve" smooth="yes"/>
      <point x="1810" y="-25"/>
      <point x="1927" y="111"/>
      <point x="1927" y="339" type="curve" smooth="yes"/>
      <point x="1927" y="342" type="line" smooth="yes"/>
      <point x="1927" y="571"/>
      <point x="1801" y="679"/>
      <point x="1496" y="679" type="curve" smooth="yes"/>
      <point x="1171" y="679" type="line"/>
    </contour>
    <component base="KaComponent_Nonexporting" xOffset="47"/>
    <component base="KaBeak_Nonexporting" xOffset="1325"/>
  </outline>
</glyph>
<glyph name="Tta.tm" format="2">
  <advance width="2001"/>
  <unicode hex="0B9F"/>
  <note>
Tta.tm
</note>
  <anchor x="1148" y="1236" name="top"/>
  <outline>
    <contour>
      <point x="407" y="1121" type="line"/>
      <point x="199" y="1121" type="line"/>
      <point x="199" y="0" type="line"/>
      <point x="1959" y="0" type="line"/>
      <point x="1985" y="163" type="line"/>
      <point x="406" y="163" type="line"/>
    </contour>
  </outline>
</glyph>
<glyph name="Na.tm" format="2">
  <advance width="2005"/>
  <unicode hex="0BA8"/>
  <note>
Na.tm
</note>
  <anchor x="1024" y="1236" name="top"/>
  <outline>
    <contour>
      <point x="920" y="1069" type="line"/>
      <point x="920" y="0" type="line"/>
      <point x="1126" y="0" type="line"/>
      <point x="1126" y="1069" type="line"/>
    </contour>
    <contour>
      <point x="1487" y="702" type="curve" smooth="yes"/>
      <point x="1287" y="702"/>
      <point x="1166" y="594"/>
      <point x="1134" y="449" type="curve"/>
      <point x="1097" y="449" type="line"/>
      <point x="1097" y="309" type="line"/>
      <point x="1113" y="309" type="line"/>
      <point x="1155" y="446"/>
      <point x="1263" y="521"/>
      <point x="1412" y="521" type="curve" smooth="yes"/>
      <point x="1603" y="521"/>
      <point x="1680" y="419"/>
      <point x="1680" y="221" type="curve" smooth="yes"/>
      <point x="1680" y="215" type="line" smooth="yes"/>
      <point x="1680" y="-125"/>
      <point x="1519" y="-246"/>
      <point x="1033" y="-246" type="curve" smooth="yes"/>
      <point x="501" y="-246" type="line"/>
      <point x="534" y="-415" type="line"/>
      <point x="1044" y="-415" type="line" smooth="yes"/>
      <point x="1673" y="-415"/>
      <point x="1894" y="-224"/>
      <point x="1894" y="225" type="curve" smooth="yes"/>
      <point x="1894" y="233" type="line" smooth="yes"/>
      <point x="1894" y="538"/>
      <point x="1772" y="702"/>
    </contour>
    <contour>
      <point x="1285" y="1121" type="line"/>
      <point x="199" y="1121" type="line"/>
      <point x="199" y="0" type="line"/>
      <point x="405" y="0" type="line"/>
      <point x="405" y="959" type="line"/>
      <point x="1285" y="959" type="line"/>
    </contour>
    <component base="Tail_NonExporting" xOffset="-66"/>
    <component base="RaBeak_Nonexporting" xOffset="1043"/>
  </outline>
</glyph>
<glyph name="Ya.tm" format="2">
  <advance width="2534"/>
  <unicode hex="0BAF"/>
  <note>
Ya.tm
</note>
  <anchor x="1014" y="1236" name="top"/>
  <outline>
    <contour>
      <point x="2123" y="1121" type="line"/>
      <point x="2123" y="170" type="line"/>
      <point x="1668" y="170" type="line"/>
      <point x="1668" y="0" type="line"/>
      <point x="2335" y="0" type="line"/>
      <point x="2335" y="1121" type="line"/>
    </contour>
    <contour>
      <point x="1810" y="0" type="line"/>
      <point x="1810" y="170" type="line"/>
      <point x="1120" y="170" type="line"/>
      <point x="1120" y="1121" type="line"/>
      <point x="909" y="1121" type="line"/>
      <point x="909" y="500" type="line" smooth="yes"/>
      <point x="909" y="252"/>
      <point x="829" y="151"/>
      <point x="649" y="151" type="curve" smooth="yes"/>
      <point x="496" y="151"/>
      <point x="402" y="240"/>
      <point x="402" y="448" type="curve" smooth="yes"/>
      <point x="402" y="1121" type="line"/>
      <point x="196" y="1121" type="line"/>
      <point x="196" y="453" type="line" smooth="yes"/>
      <point x="196" y="125"/>
      <point x="341" y="-21"/>
      <point x="597" y="-21" type="curve" smooth="yes"/>
      <point x="827" y="-21"/>
      <point x="948" y="81"/>
      <point x="975" y="267" type="curve"/>
      <point x="985" y="267" type="line"/>
      <point x="981" y="0" type="line"/>
    </contour>
  </outline>
</glyph>
<glyph name="MatraAa.tm" format="2">
  <advance width="1431"/>
  <unicode hex="0BBE"/>
  <note>
RaAltMatraAa.tm
</note>
  <outline>
    <contour>
      <point x="938" y="1069" type="line"/>
      <point x="938" y="0" type="line"/>
      <point x="1144" y="0" type="line"/>
      <point x="1144" y="1069" type="line"/>
    </contour>
    <contour>
      <point x="1098" y="1121" type="line"/>
      <point x="199" y="1121" type="line"/>
      <point x="199" y="0" type="line"/>
      <point x="405" y="0" type="line"/>
      <point x="405" y="959" type="line"/>
      <point x="1098" y="959" type="line"/>
    </contour>
    <component base="RaBeak_Nonexporting" xOffset="827"/>
  </outline>
</glyph>
<glyph name="MatraAi.tm" format="2">
  <advance width="3014"/>
  <unicode hex="0BC8"/>
  <note>
MatraAi.tm
</note>
  <outline>
    <contour>
      <point x="2303" y="-18" type="line"/>
      <point x="2327" y="-22"/>
      <point x="2364" y="-25"/>
      <point x="2395" y="-25" type="curve" smooth="yes"/>
      <point x="2745" y="-25"/>
      <point x="2879" y="196"/>
      <point x="2879" y="548" type="curve" smooth="yes"/>
      <point x="2879" y="563" type="line" smooth="yes"/>
      <point x="2879" y="958"/>
      <point x="2664" y="1152"/>
      <point x="2201" y="1152" type="curve" smooth="yes"/>
      <point x="1960" y="1152"/>
      <point x="1773" y="1101"/>
      <point x="1660" y="1043" type="curve"/>
      <point x="1763" y="922" type="line"/>
      <point x="1868" y="959"/>
      <point x="2015" y="989"/>
      <point x="2178" y="989" type="curve" smooth="yes"/>
      <point x="2515" y="989"/>
      <point x="2668" y="860"/>
      <point x="2668" y="562" type="curve" smooth="yes"/>
      <point x="2668" y="548" type="line" smooth="yes"/>
      <point x="2668" y="307"/>
      <point x="2595" y="140"/>
      <point x="2350" y="140" type="curve" smooth="yes"/>
      <point x="2319" y="140"/>
      <point x="2291" y="142"/>
      <point x="2265" y="146" type="curve"/>
    </contour>
    <contour>
      <point x="1138" y="1155" type="curve" smooth="yes"/>
      <point x="482" y="1155"/>
      <point x="139" y="907"/>
      <point x="139" y="486" type="curve" smooth="yes"/>
      <point x="139" y="477" type="line" smooth="yes"/>
      <point x="139" y="177"/>
      <point x="286" y="-24"/>
      <point x="631" y="-24" type="curve" smooth="yes"/>
      <point x="942" y="-24"/>
      <point x="1069" y="131"/>
      <point x="1069" y="353" type="curve" smooth="yes"/>
      <point x="1069" y="356" type="line" smooth="yes"/>
      <point x="1069" y="579"/>
      <point x="946" y="702"/>
      <point x="702" y="702" type="curve" smooth="yes"/>
      <point x="502" y="702"/>
      <point x="376" y="604"/>
      <point x="340" y="485" type="curve"/>
      <point x="327" y="485" type="line"/>
      <point x="329" y="369" type="line"/>
      <point x="359" y="461"/>
      <point x="470" y="539"/>
      <point x="627" y="539" type="curve" smooth="yes"/>
      <point x="794" y="539"/>
      <point x="870" y="469"/>
      <point x="870" y="342" type="curve" smooth="yes"/>
      <point x="870" y="340" type="line" smooth="yes"/>
      <point x="870" y="218"/>
      <point x="793" y="134"/>
      <point x="625" y="134" type="curve" smooth="yes"/>
      <point x="428" y="134"/>
      <point x="340" y="244"/>
      <point x="340" y="412" type="curve"/>
      <point x="342" y="485" type="line"/>
      <point x="333" y="485" type="line"/>
      <point x="333" y="486"/>
      <point x="333" y="488"/>
      <point x="333" y="489" type="curve" smooth="yes"/>
      <point x="342" y="816"/>
      <point x="617" y="991"/>
      <point x="1146" y="991" type="curve" smooth="yes"/>
      <point x="1401" y="991"/>
      <point x="1578" y="964"/>
      <point x="1690" y="927" type="curve"/>
      <point x="1703" y="923" type="line"/>
      <point x="1921" y="857"/>
      <point x="1991" y="690"/>
      <point x="1991" y="499" type="curve" smooth="yes"/>
      <point x="1991" y="489" type="line" smooth="yes"/>
      <point x="1991" y="278"/>
      <point x="1924" y="144"/>
      <point x="1738" y="144" type="curve" smooth="yes"/>
      <point x="1549" y="144"/>
      <point x="1476" y="278"/>
      <point x="1476" y="489" type="curve" smooth="yes"/>
      <point x="1476" y="500" type="line" smooth="yes"/>
      <point x="1476" y="690"/>
      <point x="1548" y="857"/>
      <point x="1769" y="923" type="curve"/>
      <point x="1681" y="1028" type="line"/>
      <point x="1381" y="955"/>
      <point x="1269" y="731"/>
      <point x="1269" y="488" type="curve" smooth="yes"/>
      <point x="1269" y="477" type="line" smooth="yes"/>
      <point x="1269" y="180"/>
      <point x="1404" y="-24"/>
      <point x="1739" y="-24" type="curve" smooth="yes"/>
      <point x="2071" y="-24"/>
      <point x="2197" y="180"/>
      <point x="2197" y="477" type="curve" smooth="yes"/>
      <point x="2197" y="488" type="line" smooth="yes"/>
      <point x="2197" y="730"/>
      <point x="2089" y="935"/>
      <point x="1825" y="1038" type="curve"/>
      <point x="1823" y="1039" type="line"/>
      <point x="1679" y="1106"/>
      <point x="1467" y="1155"/>
    </contour>
  </outline>
</glyph>
<glyph name="PulliDflt.tm" format="2">
  <unicode hex="0BCD"/>
  <note>
PulliDflt.tm
</note>
  <anchor x="151" y="1237" name="_top"/>
  <outline>
    <contour>
      <point x="151" y="1317" type="curve" smooth="yes"/>
      <point x="254" y="1317"/>
      <point x="302" y="1366"/>
      <point x="302" y="1446" type="curve" smooth="yes"/>
      <point x="302" y="1446" type="line" smooth="yes"/>
      <point x="302" y="1526"/>
      <point x="250" y="1573"/>
      <point x="151" y="1573" type="curve" smooth="yes"/>
      <point x="52" y="1573"/>
      <point x="0" y="1526"/>
      <point x="0" y="1446" type="curve" smooth="yes"/>
      <point x="0" y="1446" type="line" smooth="yes"/>
      <point x="0" y="1366"/>
      <point x="49" y="1317"/>
    </contour>
  </outline>
</glyph>
<glyph name="Zero.tm" format="2">
  <advance width="1640"/>
  <unicode hex="0BE6"/>
  <note>
Zero.tm
</note>
  <outline>
    <contour>
      <point x="820" y="968" type="curve" smooth="yes"/>
      <point x="1121" y="968"/>
      <point x="1283" y="823"/>
      <point x="1283" y="569" type="curve" smooth="yes"/>
      <point x="1283" y="552" type="line" smooth="yes"/>
      <point x="1283" y="299"/>
      <point x="1121" y="154"/>
      <point x="820" y="154" type="curve" smooth="yes"/>
      <point x="518" y="154"/>
      <point x="357" y="299"/>
      <point x="357" y="552" type="curve" smooth="yes"/>
      <point x="357" y="570" type="line" smooth="yes"/>
      <point x="357" y="823"/>
      <point x="518" y="968"/>
    </contour>
    <contour>
      <point x="820" y="1150" type="curve" smooth="yes"/>
      <point x="390" y="1150"/>
      <point x="143" y="939"/>
      <point x="143" y="570" type="curve"/>
      <point x="143" y="552" type="line"/>
      <point x="143" y="182"/>
      <point x="390" y="-28"/>
      <point x="820" y="-28" type="curve" smooth="yes"/>
      <point x="1250" y="-28"/>
      <point x="1497" y="182"/>
      <point x="1497" y="552" type="curve"/>
      <point x="1497" y="569" type="line"/>
      <point x="1497" y="940"/>
      <point x="1250" y="1150"/>
    </contour>
  </outline>
</glyph>
<glyph name="Two.tm" format="2">
  <advance width="2320"/>
  <unicode hex="0BE8"/>
  <note>
Two.tm
</note>
  <outline>
    <contour>
      <point x="663" y="404" type="curve"/>
      <point x="794" y="453" type="line"/>
      <point x="524" y="475"/>
      <point x="391" y="567"/>
      <point x="391" y="736" type="curve" smooth="yes"/>
      <point x="391" y="737" type="line" smooth="yes"/>
      <point x="391" y="918"/>
      <point x="534" y="1020"/>
      <point x="833" y="1020" type="curve" smooth="yes"/>
      <point x="1146" y="1020"/>
      <point x="1275" y="919"/>
      <point x="1275" y="751" type="curve" smooth="yes"/>
      <point x="1275" y="748" type="line" smooth="yes"/>
      <point x="1275" y="576"/>
      <point x="1177" y="490"/>
      <point x="850" y="472" type="curve" smooth="yes"/>
      <point x="393" y="447" type="line" smooth="yes"/>
      <point x="224" y="438"/>
      <point x="145" y="359"/>
      <point x="145" y="212" type="curve" smooth="yes"/>
      <point x="145" y="138"/>
      <point x="177" y="51"/>
      <point x="212" y="0" type="curve"/>
      <point x="2271" y="0" type="line"/>
      <point x="2304" y="149" type="line"/>
      <point x="329" y="149" type="line"/>
      <point x="320" y="172"/>
      <point x="315" y="196"/>
      <point x="315" y="221" type="curve" smooth="yes"/>
      <point x="315" y="278"/>
      <point x="342" y="307"/>
      <point x="421" y="310" type="curve" smooth="yes"/>
      <point x="871" y="328" type="line" smooth="yes"/>
      <point x="1323" y="346"/>
      <point x="1474" y="479"/>
      <point x="1474" y="750" type="curve" smooth="yes"/>
      <point x="1474" y="754" type="line" smooth="yes"/>
      <point x="1474" y="1025"/>
      <point x="1273" y="1184"/>
      <point x="834" y="1184" type="curve" smooth="yes"/>
      <point x="407" y="1184"/>
      <point x="180" y="1032"/>
      <point x="180" y="764" type="curve" smooth="yes"/>
      <point x="180" y="762" type="line" smooth="yes"/>
      <point x="180" y="556"/>
      <point x="332" y="416"/>
    </contour>
  </outline>
</glyph>
<glyph name="Ten.tm" format="2">
  <advance width="2077"/>
  <unicode hex="0BF0"/>
  <note>
Ten.tm
</note>
  <outline>
    <contour>
      <point x="977" y="1652" type="curve" smooth="yes"/>
      <point x="662" y="1652"/>
      <point x="358" y="1577"/>
      <point x="155" y="1483" type="curve"/>
      <point x="112" y="1299" type="line"/>
      <point x="357" y="1405"/>
      <point x="670" y="1482"/>
      <point x="967" y="1482" type="curve" smooth="yes"/>
      <point x="1545" y="1482"/>
      <point x="1722" y="1277"/>
      <point x="1722" y="774" type="curve" smooth="yes"/>
      <point x="1722" y="729" type="line" smooth="yes"/>
      <point x="1722" y="367"/>
      <point x="1640" y="144"/>
      <point x="1401" y="144" type="curve" smooth="yes"/>
      <point x="1212" y="144"/>
      <point x="1094" y="235"/>
      <point x="1094" y="477" type="curve" smooth="yes"/>
      <point x="1094" y="1120" type="line"/>
      <point x="888" y="1120" type="line"/>
      <point x="888" y="429" type="line" smooth="yes"/>
      <point x="888" y="227"/>
      <point x="815" y="146"/>
      <point x="648" y="146" type="curve" smooth="yes"/>
      <point x="491" y="146"/>
      <point x="396" y="231"/>
      <point x="396" y="429" type="curve" smooth="yes"/>
      <point x="396" y="1120" type="line"/>
      <point x="190" y="1120" type="line"/>
      <point x="190" y="441" type="line" smooth="yes"/>
      <point x="190" y="119"/>
      <point x="345" y="-23"/>
      <point x="621" y="-23" type="curve" smooth="yes"/>
      <point x="857" y="-23"/>
      <point x="973" y="91"/>
      <point x="994" y="300" type="curve"/>
      <point x="1001" y="300" type="line"/>
      <point x="1030" y="89"/>
      <point x="1181" y="-25"/>
      <point x="1442" y="-25" type="curve" smooth="yes"/>
      <point x="1790" y="-25"/>
      <point x="1933" y="258"/>
      <point x="1933" y="729" type="curve" smooth="yes"/>
      <point x="1933" y="774" type="line" smooth="yes"/>
      <point x="1933" y="1391"/>
      <point x="1686" y="1652"/>
    </contour>
  </outline>
</glyph>
<glyph name="Hundred.tm" format="2">
  <advance width="2117"/>
  <unicode hex="0BF1"/>
  <note>
Hundred.tm
</note>
  <outline>
    <contour>
      <point x="1623" y="1069" type="line"/>
      <point x="1623" y="0" type="line"/>
      <point x="1829" y="0" type="line"/>
      <point x="1829" y="1069" type="line"/>
    </contour>
    <contour>
      <point x="1746" y="1121" type="line"/>
      <point x="957" y="1121" type="line"/>
      <point x="961" y="886" type="line"/>
      <point x="953" y="886" type="line"/>
      <point x="928" y="1052"/>
      <point x="823" y="1144"/>
      <point x="609" y="1144" type="curve" smooth="yes"/>
      <point x="339" y="1144"/>
      <point x="187" y="1000"/>
      <point x="187" y="678" type="curve" smooth="yes"/>
      <point x="187" y="0" type="line"/>
      <point x="393" y="0" type="line"/>
      <point x="393" y="690" type="line" smooth="yes"/>
      <point x="393" y="889"/>
      <point x="488" y="975"/>
      <point x="645" y="975" type="curve" smooth="yes"/>
      <point x="812" y="975"/>
      <point x="885" y="885"/>
      <point x="885" y="664" type="curve" smooth="yes"/>
      <point x="885" y="0" type="line"/>
      <point x="1091" y="0" type="line"/>
      <point x="1091" y="959" type="line"/>
      <point x="1746" y="959" type="line"/>
    </contour>
    <component base="RaBeak_Nonexporting" xOffset="1513"/>
  </outline>
</glyph>
<glyph name="DebitSign.tm" format="2">
  <advance width="2550"/>
  <unicode hex="0BF6"/>
  <note>
DebitSign.tm
</note>
  <anchor x="953" y="1236" name="top"/>
  <outline>
    <contour>
      <point x="2143" y="1120" type="line"/>
      <point x="2143" y="-381" type="line"/>
      <point x="2351" y="-381" type="line"/>
      <point x="2351" y="1120" type="line"/>
    </contour>
    <contour>
      <point x="874" y="-854" type="curve" smooth="yes"/>
      <point x="1406" y="-854"/>
      <point x="1647" y="-657"/>
      <point x="1693" y="-337" type="curve"/>
      <point x="1694" y="-294" type="line"/>
      <point x="1701" y="-231"/>
      <point x="1708" y="-110"/>
      <point x="1708" y="-5" type="curve"/>
      <point x="1708" y="73" type="line"/>
      <point x="1499" y="64" type="line"/>
      <point x="1499" y="-12" type="line" smooth="yes"/>
      <point x="1499" y="-112"/>
      <point x="1491" y="-229"/>
      <point x="1481" y="-285" type="curve"/>
      <point x="1478" y="-333" type="line"/>
      <point x="1454" y="-555"/>
      <point x="1269" y="-692"/>
      <point x="874" y="-692" type="curve" smooth="yes"/>
      <point x="453" y="-692"/>
      <point x="277" y="-532"/>
      <point x="260" y="-381" type="curve"/>
      <point x="1502" y="-381" type="line"/>
      <point x="1577" y="-381" type="line"/>
      <point x="2351" y="-381" type="line"/>
      <point x="2351" y="-223" type="line"/>
      <point x="13" y="-223" type="line"/>
      <point x="33" y="-601"/>
      <point x="295" y="-854"/>
    </contour>
    <component base="Pa.tm"/>
  </outline>
</glyph>
<glyph name="NumberSign.tm" format="2">
  <advance width="2005"/>
  <unicode hex="0BFA"/>
  <note>
NumberSign.tm
</note>
  <anchor x="1024" y="1236" name="top"/>
  <outline>
    <contour>
      <point x="1890" y="1947" type="curve" smooth="yes"/>
      <point x="1628" y="1947"/>
      <point x="1488" y="1807"/>
      <point x="1488" y="1555" type="curve" smooth="yes"/>
      <point x="1488" y="1551" type="line"/>
      <point x="1480" y="1551" type="line"/>
      <point x="1457" y="1708"/>
      <point x="1351" y="1791"/>
      <point x="1167" y="1791" type="curve" smooth="yes"/>
      <point x="945" y="1791"/>
      <point x="804" y="1656"/>
      <point x="804" y="1440" type="curve" smooth="yes"/>
      <point x="804" y="1439" type="line"/>
      <point x="804" y="1288"/>
      <point x="860" y="1177"/>
      <point x="917" y="1114" type="curve"/>
      <point x="1115" y="1114" type="line"/>
      <point x="1050" y="1179"/>
      <point x="997" y="1280"/>
      <point x="997" y="1397" type="curve" smooth="yes"/>
      <point x="997" y="1397" type="line"/>
      <point x="997" y="1535"/>
      <point x="1065" y="1622"/>
      <point x="1198" y="1622" type="curve" smooth="yes"/>
      <point x="1330" y="1622"/>
      <point x="1395" y="1549"/>
      <point x="1395" y="1386" type="curve" smooth="yes"/>
      <point x="1395" y="1340" type="line"/>
      <point x="1591" y="1340" type="line"/>
      <point x="1591" y="1487" type="line" smooth="yes"/>
      <point x="1591" y="1688"/>
      <point x="1687" y="1773"/>
      <point x="1846" y="1773" type="curve" smooth="yes"/>
      <point x="1998" y="1773"/>
      <point x="2063" y="1685"/>
      <point x="2063" y="1549" type="curve" smooth="yes"/>
      <point x="2063" y="1546" type="line" smooth="yes"/>
      <point x="2063" y="1417"/>
      <point x="2016" y="1338"/>
      <point x="1945" y="1272" type="curve"/>
      <point x="1945" y="1254" type="line"/>
      <point x="2661" y="1254" type="line"/>
      <point x="2680" y="1411" type="line"/>
      <point x="2106" y="1411" type="line"/>
      <point x="2194" y="1359" type="line"/>
      <point x="2227" y="1410"/>
      <point x="2261" y="1493"/>
      <point x="2261" y="1615" type="curve" smooth="yes"/>
      <point x="2261" y="1621" type="line" smooth="yes"/>
      <point x="2261" y="1821"/>
      <point x="2142" y="1947"/>
    </contour>
    <component base="Na.tm"/>
  </outline>
</glyph>
<glyph name="CaMatraU.tm" format="2">
  <advance width="2145"/>
  <note>
CaMatraU.tm
</note>
  <outline>
    <contour>
      <point x="1160" y="519" type="line"/>
      <point x="2107" y="519" type="line"/>
      <point x="2082" y="679" type="line"/>
      <point x="1160" y="679" type="line"/>
    </contour>
    <contour>
      <point x="1610" y="579" type="line"/>
      <point x="1610" y="0" type="line"/>
      <point x="1816" y="0" type="line"/>
      <point x="1816" y="579" type="line"/>
    </contour>
    <component base="KaComponent_Nonexporting" xOffset="47"/>
    <component base="KaBeak_Nonexporting" xOffset="1248"/>
  </outline>
</glyph>
<glyph name="DebitSign_Simple.tm" format="2">
  <advance width="2548"/>
  <note>
DebitSign.tm
</note>
  <anchor x="953" y="1236" name="top"/>
  <outline>
    <contour>
      <point x="2349" y="-269" type="line"/>
      <point x="85" y="-269" type="line"/>
      <point x="116" y="-438" type="line"/>
      <point x="2349" y="-438" type="line"/>
    </contour>
    <contour>
      <point x="2143" y="1120" type="line"/>
      <point x="2143" y="-433" type="line"/>
      <point x="2349" y="-433" type="line"/>
      <point x="2349" y="1120" type="line"/>
    </contour>
    <contour>
      <point x="1502" y="152" type="line"/>
      <point x="1502" y="-345" type="line"/>
      <point x="1708" y="-345" type="line"/>
      <point x="1708" y="152" type="line"/>
    </contour>
    <component base="Pa.tm"/>
  </outline>
</glyph>
<glyph name="Ha_Simple.tm" format="2">
  <advance width="3895"/>
  <note>
Ha.tm
</note>
  <anchor x="1767" y="1236" name="top"/>
  <outline>
    <contour>
      <point x="1744" y="163" type="line"/>
      <point x="1744" y="0" type="line"/>
      <point x="2121" y="0" type="line"/>
      <point x="2121" y="163" type="line"/>
    </contour>
    <contour>
      <point x="2129" y="-246" type="line"/>
      <point x="74" y="-246" type="line"/>
      <point x="106" y="-415" type="line"/>
      <point x="2129" y="-415" type="line"/>
    </contour>
    <component base="Va_NonExporting" xOffset="5"/>
    <component base="Rra_Simple.tm" xOffset="1828"/>
  </outline>
</glyph>
<glyph name="JaMatraI_Fused.tm" format="2">
  <advance width="3006"/>
  <note>
JaMatraI.tm
</note>
  <anchor x="1372" y="1236" name="top"/>
  <outline>
    <contour>
      <point x="2276" y="1783" type="curve" smooth="yes"/>
      <point x="1939" y="1783"/>
      <point x="1750" y="1614"/>
      <point x="1750" y="1346" type="curve" smooth="yes"/>
      <point x="1750" y="1346" type="line" smooth="yes"/>
      <point x="1750" y="1251"/>
      <point x="1777" y="1167"/>
      <point x="1806" y="1117" type="curve"/>
      <point x="2004" y="1117" type="line"/>
      <point x="1974" y="1166"/>
      <point x="1952" y="1233"/>
      <point x="1952" y="1318" type="curve" smooth="yes"/>
      <point x="1952" y="1318" type="line" smooth="yes"/>
      <point x="1952" y="1507"/>
      <point x="2066" y="1613"/>
      <point x="2272" y="1613" type="curve" smooth="yes"/>
      <point x="2510" y="1613"/>
      <point x="2601" y="1496"/>
      <point x="2601" y="1236" type="curve" smooth="yes"/>
      <point x="2601" y="0" type="line"/>
      <point x="2807" y="0" type="line"/>
      <point x="2807" y="1227" type="line" smooth="yes"/>
      <point x="2807" y="1608"/>
      <point x="2652" y="1783"/>
    </contour>
    <component base="Ja_dummy.tm"/>
  </outline>
</glyph>
<glyph name="JaMatraIi_Fused.tm" format="2">
  <advance width="2400"/>
  <note>
JaMatraIi.tm
</note>
  <anchor x="1372" y="1236" name="top"/>
  <outline>
    <contour>
      <point x="2212" y="1891" type="curve" smooth="yes"/>
      <point x="1849" y="1891"/>
      <point x="1657" y="1735"/>
      <point x="1657" y="1451" type="curve" smooth="yes"/>
      <point x="1657" y="1451" type="line" smooth="yes"/>
      <point x="1657" y="1309"/>
      <point x="1708" y="1196"/>
      <point x="1753" y="1135" type="curve"/>
      <point x="1956" y="1130" type="line"/>
      <point x="1899" y="1201"/>
      <point x="1849" y="1313"/>
      <point x="1849" y="1437" type="curve" smooth="yes"/>
      <point x="1849" y="1437" type="line" smooth="yes"/>
      <point x="1849" y="1616"/>
      <point x="1952" y="1715"/>
      <point x="2128" y="1736" type="curve"/>
      <point x="2128" y="1728" type="line"/>
      <point x="2164" y="1736"/>
      <point x="2209" y="1740"/>
      <point x="2255" y="1740" type="curve" smooth="yes"/>
      <point x="2428" y="1740"/>
      <point x="2503" y="1682"/>
      <point x="2503" y="1577" type="curve" smooth="yes"/>
      <point x="2503" y="1575" type="line" smooth="yes"/>
      <point x="2503" y="1479"/>
      <point x="2450" y="1429"/>
      <point x="2338" y="1429" type="curve" smooth="yes"/>
      <point x="2215" y="1429"/>
      <point x="2164" y="1492"/>
      <point x="2164" y="1595" type="curve" smooth="yes"/>
      <point x="2164" y="1596" type="line" smooth="yes"/>
      <point x="2164" y="1655"/>
      <point x="2177" y="1699"/>
      <point x="2197" y="1741" type="curve"/>
      <point x="2128" y="1737" type="line"/>
      <point x="2128" y="1730" type="line"/>
      <point x="2064" y="1705"/>
      <point x="2007" y="1648"/>
      <point x="2007" y="1545" type="curve" smooth="yes"/>
      <point x="2007" y="1543" type="line" smooth="yes"/>
      <point x="2007" y="1391"/>
      <point x="2110" y="1283"/>
      <point x="2341" y="1283" type="curve" smooth="yes"/>
      <point x="2566" y="1283"/>
      <point x="2681" y="1388"/>
      <point x="2681" y="1576" type="curve" smooth="yes"/>
      <point x="2681" y="1578" type="line" smooth="yes"/>
      <point x="2681" y="1774"/>
      <point x="2522" y="1891"/>
    </contour>
    <component base="Ja_dummy.tm"/>
  </outline>
</glyph>
<glyph name="JaMatraIi_Fused_SimpleIi.tm" format="2">
  <advance width="2400"/>
  <note>
JaMatraIi.tm
</note>
  <anchor x="1372" y="1236" name="top"/>
  <outline>
    <contour>
      <point x="2085" y="1856" type="curve" smooth="yes"/>
      <point x="1770" y="1856"/>
      <point x="1637" y="1720"/>
      <point x="1637" y="1465" type="curve"/>
      <point x="1637" y="1452" type="line" smooth="yes"/>
      <point x="1637" y="1306"/>
      <point x="1687" y="1198"/>
      <point x="1754" y="1136" type="curve"/>
      <point x="1950" y="1136" type="line"/>
      <point x="1868" y="1208"/>
      <point x="1824" y="1314"/>
      <point x="1824" y="1440" type="curve" smooth="yes"/>
      <point x="1824" y="1447" type="line"/>
      <point x="1824" y="1481" type="line" smooth="yes"/>
      <point x="1824" y="1637"/>
      <point x="1910" y="1708"/>
      <point x="2078" y="1708" type="curve" smooth="yes"/>
      <point x="2226" y="1708"/>
      <point x="2302" y="1656"/>
      <point x="2302" y="1561" type="curve" smooth="yes"/>
      <point x="2302" y="1558" type="line" smooth="yes"/>
      <point x="2302" y="1462"/>
      <point x="2240" y="1415"/>
      <point x="2085" y="1415" type="curve" smooth="yes"/>
      <point x="1948" y="1415"/>
      <point x="1864" y="1454"/>
      <point x="1820" y="1499" type="curve"/>
      <point x="1816" y="1499" type="line"/>
      <point x="1816" y="1443" type="line"/>
      <point x="1828" y="1443" type="line"/>
      <point x="1890" y="1319" type="line"/>
      <point x="1930" y="1298"/>
      <point x="2021" y="1274"/>
      <point x="2136" y="1274" type="curve" smooth="yes"/>
      <point x="2384" y="1274"/>
      <point x="2487" y="1372"/>
      <point x="2487" y="1558" type="curve" smooth="yes"/>
      <point x="2487" y="1561" type="line" smooth="yes"/>
      <point x="2487" y="1751"/>
      <point x="2357" y="1856"/>
    </contour>
    <component base="Ja_dummy.tm"/>
  </outline>
</glyph>
<glyph name="JaMatraIi_SimpleIi.tm" format="2">
  <advance width="2403"/>
  <note>
JaMatraIi.tm
</note>
  <anchor x="1372" y="1236" name="top"/>
  <outline>
    <contour>
      <point x="2088" y="1856" type="curve" smooth="yes"/>
      <point x="1773" y="1856"/>
      <point x="1640" y="1720"/>
      <point x="1640" y="1465" type="curve"/>
      <point x="1640" y="1452" type="line" smooth="yes"/>
      <point x="1640" y="1306"/>
      <point x="1690" y="1198"/>
      <point x="1757" y="1136" type="curve"/>
      <point x="1953" y="1136" type="line"/>
      <point x="1871" y="1208"/>
      <point x="1827" y="1314"/>
      <point x="1827" y="1440" type="curve" smooth="yes"/>
      <point x="1827" y="1447" type="line"/>
      <point x="1827" y="1481" type="line" smooth="yes"/>
      <point x="1827" y="1637"/>
      <point x="1913" y="1708"/>
      <point x="2081" y="1708" type="curve" smooth="yes"/>
      <point x="2229" y="1708"/>
      <point x="2305" y="1656"/>
      <point x="2305" y="1561" type="curve" smooth="yes"/>
      <point x="2305" y="1558" type="line" smooth="yes"/>
      <point x="2305" y="1462"/>
      <point x="2243" y="1415"/>
      <point x="2088" y="1415" type="curve" smooth="yes"/>
      <point x="1951" y="1415"/>
      <point x="1867" y="1454"/>
      <point x="1823" y="1499" type="curve"/>
      <point x="1819" y="1499" type="line"/>
      <point x="1819" y="1443" type="line"/>
      <point x="1831" y="1443" type="line"/>
      <point x="1893" y="1319" type="line"/>
      <point x="1933" y="1298"/>
      <point x="2024" y="1274"/>
      <point x="2139" y="1274" type="curve" smooth="yes"/>
      <point x="2387" y="1274"/>
      <point x="2490" y="1372"/>
      <point x="2490" y="1558" type="curve" smooth="yes"/>
      <point x="2490" y="1561" type="line" smooth="yes"/>
      <point x="2490" y="1751"/>
      <point x="2360" y="1856"/>
    </contour>
    <component base="Ja.tm"/>
  </outline>
</glyph>
<glyph name="KaComponent_Nonexporting" format="2">
  <advance width="1339"/>
  <outline>
    <contour>
      <point x="1113" y="674" type="line"/>
      <point x="508" y="674" type="line"/>
      <point x="347" y="664" type="line"/>
      <point x="101" y="612" type="line"/>
      <point x="84" y="562"/>
      <point x="76" y="497"/>
      <point x="76" y="429" type="curve" smooth="yes"/>
      <point x="76" y="141"/>
      <point x="257" y="-24"/>
      <point x="659" y="-24" type="curve" smooth="yes"/>
      <point x="1053" y="-24"/>
      <point x="1201" y="124"/>
      <point x="1201" y="441" type="curve" smooth="yes"/>
      <point x="1201" y="599" type="line"/>
      <point x="1201" y="620" type="line"/>
      <point x="1201" y="1048" type="line"/>
      <point x="1009" y="1048" type="line"/>
      <point x="1009" y="620" type="line"/>
      <point x="1005" y="599" type="line"/>
      <point x="1005" y="435" type="line" smooth="yes"/>
      <point x="1005" y="236"/>
      <point x="904" y="141"/>
      <point x="654" y="141" type="curve" smooth="yes"/>
      <point x="399" y="141"/>
      <point x="274" y="236"/>
      <point x="274" y="409" type="curve" smooth="yes"/>
      <point x="274" y="445"/>
      <point x="278" y="477"/>
      <point x="287" y="500" type="curve"/>
      <point x="444" y="524" type="line"/>
      <point x="1113" y="524" type="line"/>
    </contour>
    <contour>
      <point x="1339" y="1121" type="line"/>
      <point x="342" y="1121" type="line"/>
      <point x="342" y="604" type="line"/>
      <point x="530" y="608" type="line"/>
      <point x="543" y="973" type="line"/>
      <point x="1100" y="973" type="line"/>
      <point x="1124" y="961" type="line"/>
      <point x="1339" y="961" type="line"/>
    </contour>
  </outline>
</glyph>
<glyph name="KaMatraU.tm" format="2">
  <advance width="2608"/>
  <note>
KaMatraU.tm
</note>
  <outline>
    <contour>
      <point x="1790" y="524" type="line"/>
      <point x="1900" y="524" type="line" smooth="yes"/>
      <point x="2184" y="524"/>
      <point x="2302" y="414"/>
      <point x="2302" y="174" type="curve" smooth="yes"/>
      <point x="2302" y="172" type="line" smooth="yes"/>
      <point x="2302" y="-176"/>
      <point x="2042" y="-386"/>
      <point x="1420" y="-386" type="curve" smooth="yes"/>
      <point x="1415" y="-386" type="line" smooth="yes"/>
      <point x="690" y="-386"/>
      <point x="364" y="-109"/>
      <point x="364" y="446" type="curve" smooth="yes"/>
      <point x="364" y="742"/>
      <point x="451" y="949"/>
      <point x="574" y="1121" type="curve"/>
      <point x="343" y="1121" type="line"/>
      <point x="250" y="994"/>
      <point x="153" y="759"/>
      <point x="153" y="444" type="curve" smooth="yes"/>
      <point x="153" y="-226"/>
      <point x="561" y="-560"/>
      <point x="1415" y="-560" type="curve" smooth="yes"/>
      <point x="1421" y="-560" type="line" smooth="yes"/>
      <point x="2166" y="-560"/>
      <point x="2510" y="-290"/>
      <point x="2510" y="176" type="curve" smooth="yes"/>
      <point x="2510" y="177" type="line" smooth="yes"/>
      <point x="2510" y="514"/>
      <point x="2343" y="679"/>
      <point x="1918" y="679" type="curve" smooth="yes"/>
      <point x="1790" y="679" type="line"/>
    </contour>
    <component base="KaComponent_Nonexporting" xOffset="690"/>
    <component base="KaBeak_Nonexporting" xOffset="1950"/>
  </outline>
</glyph>
<glyph name="KssaMatraIi.tm" format="2">
  <advance width="4166"/>
  <note>
KshaMatraIi.tm
</note>
  <anchor x="2362" y="1236" name="top"/>
  <outline>
    <contour>
      <point x="3801" y="1891" type="curve" smooth="yes"/>
      <point x="3438" y="1891"/>
      <point x="3246" y="1735"/>
      <point x="3246" y="1451" type="curve" smooth="yes"/>
      <point x="3246" y="1451" type="line" smooth="yes"/>
      <point x="3246" y="1305"/>
      <point x="3298" y="1191"/>
      <point x="3347" y="1126" type="curve"/>
      <point x="3549" y="1121" type="line"/>
      <point x="3490" y="1194"/>
      <point x="3438" y="1309"/>
      <point x="3438" y="1437" type="curve" smooth="yes"/>
      <point x="3438" y="1437" type="line" smooth="yes"/>
      <point x="3438" y="1616"/>
      <point x="3541" y="1715"/>
      <point x="3717" y="1736" type="curve"/>
      <point x="3717" y="1728" type="line"/>
      <point x="3753" y="1736"/>
      <point x="3798" y="1740"/>
      <point x="3844" y="1740" type="curve" smooth="yes"/>
      <point x="4017" y="1740"/>
      <point x="4092" y="1682"/>
      <point x="4092" y="1577" type="curve" smooth="yes"/>
      <point x="4092" y="1575" type="line" smooth="yes"/>
      <point x="4092" y="1479"/>
      <point x="4039" y="1429"/>
      <point x="3927" y="1429" type="curve" smooth="yes"/>
      <point x="3804" y="1429"/>
      <point x="3753" y="1492"/>
      <point x="3753" y="1595" type="curve" smooth="yes"/>
      <point x="3753" y="1596" type="line" smooth="yes"/>
      <point x="3753" y="1655"/>
      <point x="3766" y="1699"/>
      <point x="3786" y="1741" type="curve"/>
      <point x="3717" y="1737" type="line"/>
      <point x="3717" y="1730" type="line"/>
      <point x="3653" y="1705"/>
      <point x="3596" y="1648"/>
      <point x="3596" y="1545" type="curve" smooth="yes"/>
      <point x="3596" y="1543" type="line" smooth="yes"/>
      <point x="3596" y="1391"/>
      <point x="3699" y="1283"/>
      <point x="3930" y="1283" type="curve" smooth="yes"/>
      <point x="4155" y="1283"/>
      <point x="4270" y="1388"/>
      <point x="4270" y="1576" type="curve" smooth="yes"/>
      <point x="4270" y="1578" type="line" smooth="yes"/>
      <point x="4270" y="1774"/>
      <point x="4111" y="1891"/>
    </contour>
    <component base="Kssa.tm"/>
  </outline>
</glyph>
<glyph name="KssaMatraIi_Simple_SimpleIi.tm" format="2">
  <advance width="4166"/>
  <note>
KshaMatraIi.tm
</note>
  <anchor x="2362" y="1236" name="top"/>
  <outline>
    <contour>
      <point x="3673" y="1856" type="curve" smooth="yes"/>
      <point x="3358" y="1856"/>
      <point x="3225" y="1719"/>
      <point x="3225" y="1463" type="curve" smooth="yes"/>
      <point x="3225" y="1463" type="line" smooth="yes"/>
      <point x="3225" y="1309"/>
      <point x="3274" y="1198"/>
      <point x="3347" y="1130" type="curve"/>
      <point x="3542" y="1130" type="line"/>
      <point x="3456" y="1205"/>
      <point x="3412" y="1319"/>
      <point x="3412" y="1444" type="curve" smooth="yes"/>
      <point x="3412" y="1448" type="line"/>
      <point x="3412" y="1481" type="line" smooth="yes"/>
      <point x="3412" y="1637"/>
      <point x="3498" y="1708"/>
      <point x="3666" y="1708" type="curve" smooth="yes"/>
      <point x="3814" y="1708"/>
      <point x="3890" y="1656"/>
      <point x="3890" y="1561" type="curve" smooth="yes"/>
      <point x="3890" y="1558" type="line" smooth="yes"/>
      <point x="3890" y="1462"/>
      <point x="3828" y="1415"/>
      <point x="3673" y="1415" type="curve" smooth="yes"/>
      <point x="3536" y="1415"/>
      <point x="3452" y="1454"/>
      <point x="3408" y="1499" type="curve"/>
      <point x="3404" y="1499" type="line"/>
      <point x="3404" y="1443" type="line"/>
      <point x="3416" y="1443" type="line"/>
      <point x="3478" y="1319" type="line"/>
      <point x="3518" y="1298"/>
      <point x="3609" y="1274"/>
      <point x="3724" y="1274" type="curve" smooth="yes"/>
      <point x="3972" y="1274"/>
      <point x="4075" y="1372"/>
      <point x="4075" y="1558" type="curve" smooth="yes"/>
      <point x="4075" y="1561" type="line" smooth="yes"/>
      <point x="4075" y="1751"/>
      <point x="3945" y="1856"/>
    </contour>
    <component base="Kssa_Simple.tm"/>
  </outline>
</glyph>
<glyph name="LaMatraIi.tm" format="2">
  <advance width="2475"/>
  <note>
LaMatraIi.tm
</note>
  <outline>
    <contour>
      <point x="1679" y="1420" type="line" smooth="yes"/>
      <point x="1679" y="1609"/>
      <point x="1785" y="1714"/>
      <point x="1965" y="1736" type="curve"/>
      <point x="1965" y="1728" type="line"/>
      <point x="2001" y="1736"/>
      <point x="2046" y="1740"/>
      <point x="2092" y="1740" type="curve" smooth="yes"/>
      <point x="2265" y="1740"/>
      <point x="2340" y="1682"/>
      <point x="2340" y="1577" type="curve" smooth="yes"/>
      <point x="2340" y="1575" type="line" smooth="yes"/>
      <point x="2340" y="1479"/>
      <point x="2287" y="1429"/>
      <point x="2175" y="1429" type="curve" smooth="yes"/>
      <point x="2052" y="1429"/>
      <point x="2001" y="1492"/>
      <point x="2001" y="1595" type="curve" smooth="yes"/>
      <point x="2001" y="1596" type="line" smooth="yes"/>
      <point x="2001" y="1655"/>
      <point x="2014" y="1699"/>
      <point x="2034" y="1741" type="curve"/>
      <point x="1965" y="1737" type="line"/>
      <point x="1965" y="1730" type="line"/>
      <point x="1901" y="1705"/>
      <point x="1844" y="1648"/>
      <point x="1844" y="1545" type="curve" smooth="yes"/>
      <point x="1844" y="1543" type="line" smooth="yes"/>
      <point x="1844" y="1391"/>
      <point x="1947" y="1283"/>
      <point x="2178" y="1283" type="curve" smooth="yes"/>
      <point x="2403" y="1283"/>
      <point x="2518" y="1388"/>
      <point x="2518" y="1576" type="curve" smooth="yes"/>
      <point x="2518" y="1578" type="line" smooth="yes"/>
      <point x="2518" y="1774"/>
      <point x="2359" y="1891"/>
      <point x="2049" y="1891" type="curve" smooth="yes"/>
      <point x="1680" y="1891"/>
      <point x="1484" y="1724"/>
      <point x="1484" y="1421" type="curve"/>
      <point x="1484" y="1421" type="line" smooth="yes"/>
      <point x="1484" y="1258"/>
      <point x="1543" y="1100"/>
      <point x="1632" y="973" type="curve"/>
      <point x="1663" y="978"/>
      <point x="1705" y="982"/>
      <point x="1740" y="982" type="curve" smooth="yes"/>
      <point x="2034" y="982"/>
      <point x="2120" y="829"/>
      <point x="2120" y="560" type="curve" smooth="yes"/>
      <point x="2120" y="548" type="line" smooth="yes"/>
      <point x="2120" y="284"/>
      <point x="2043" y="147"/>
      <point x="1836" y="147" type="curve" smooth="yes"/>
      <point x="1627" y="147"/>
      <point x="1541" y="263"/>
      <point x="1541" y="513" type="curve" smooth="yes"/>
      <point x="1541" y="517" type="line" smooth="yes"/>
      <point x="1541" y="928"/>
      <point x="1355" y="1149"/>
      <point x="864" y="1149" type="curve" smooth="yes"/>
      <point x="382" y="1149"/>
      <point x="147" y="909"/>
      <point x="147" y="491" type="curve" smooth="yes"/>
      <point x="147" y="477" type="line" smooth="yes"/>
      <point x="147" y="177"/>
      <point x="294" y="-24"/>
      <point x="639" y="-24" type="curve" smooth="yes"/>
      <point x="950" y="-24"/>
      <point x="1077" y="131"/>
      <point x="1077" y="353" type="curve" smooth="yes"/>
      <point x="1077" y="356" type="line" smooth="yes"/>
      <point x="1077" y="579"/>
      <point x="954" y="702"/>
      <point x="710" y="702" type="curve" smooth="yes"/>
      <point x="509" y="702"/>
      <point x="382" y="604"/>
      <point x="346" y="485" type="curve"/>
      <point x="335" y="485" type="line"/>
      <point x="337" y="369" type="line"/>
      <point x="367" y="461"/>
      <point x="478" y="539"/>
      <point x="635" y="539" type="curve" smooth="yes"/>
      <point x="802" y="539"/>
      <point x="878" y="469"/>
      <point x="878" y="342" type="curve" smooth="yes"/>
      <point x="878" y="340" type="line" smooth="yes"/>
      <point x="878" y="218"/>
      <point x="801" y="134"/>
      <point x="633" y="134" type="curve" smooth="yes"/>
      <point x="436" y="134"/>
      <point x="348" y="244"/>
      <point x="348" y="412" type="curve"/>
      <point x="348" y="485" type="line"/>
      <point x="341" y="485" type="line"/>
      <point x="341" y="489"/>
      <point x="341" y="491"/>
      <point x="341" y="495" type="curve" smooth="yes"/>
      <point x="346" y="813"/>
      <point x="512" y="978"/>
      <point x="863" y="978" type="curve" smooth="yes"/>
      <point x="1211" y="978"/>
      <point x="1335" y="818"/>
      <point x="1335" y="501" type="curve" smooth="yes"/>
      <point x="1335" y="497" type="line" smooth="yes"/>
      <point x="1335" y="152"/>
      <point x="1486" y="-23"/>
      <point x="1836" y="-23" type="curve" smooth="yes"/>
      <point x="2190" y="-23"/>
      <point x="2330" y="171"/>
      <point x="2330" y="550" type="curve" smooth="yes"/>
      <point x="2330" y="562" type="line" smooth="yes"/>
      <point x="2330" y="924"/>
      <point x="2203" y="1144"/>
      <point x="1790" y="1144" type="curve" smooth="yes"/>
      <point x="1727" y="1144"/>
      <point x="1668" y="1138"/>
      <point x="1618" y="1127" type="curve"/>
      <point x="1814" y="1070" type="line"/>
      <point x="1736" y="1156"/>
      <point x="1679" y="1277"/>
      <point x="1679" y="1420" type="curve"/>
    </contour>
  </outline>
</glyph>
<glyph name="LllaMatraIi_Simple.tm" format="2">
  <advance width="2122"/>
  <note>
LllaMatraIi.tm
</note>
  <anchor x="1087" y="1236" name="top"/>
  <outline>
    <contour>
      <point x="953" y="85" type="line"/>
      <point x="953" y="-41" type="line" smooth="yes"/>
      <point x="953" y="-212"/>
      <point x="926" y="-269"/>
      <point x="755" y="-269" type="curve" smooth="yes"/>
      <point x="103" y="-269" type="line"/>
      <point x="135" y="-438" type="line"/>
      <point x="772" y="-438" type="line" smooth="yes"/>
      <point x="977" y="-438"/>
      <point x="1051" y="-373"/>
      <point x="1065" y="-199" type="curve"/>
      <point x="1071" y="-199" type="line"/>
      <point x="1094" y="-373"/>
      <point x="1166" y="-438"/>
      <point x="1361" y="-438" type="curve" smooth="yes"/>
      <point x="1687" y="-438" type="line"/>
      <point x="1718" y="-273" type="line"/>
      <point x="1372" y="-273" type="line" smooth="yes"/>
      <point x="1207" y="-273"/>
      <point x="1159" y="-212"/>
      <point x="1159" y="-32" type="curve" smooth="yes"/>
      <point x="1159" y="85" type="line"/>
    </contour>
    <component base="MaMatraIi.tm" xOffset="20"/>
  </outline>
</glyph>
<glyph name="LllaMatraUu.tm" format="2">
  <advance width="3217"/>
  <note>
LllaMatraUu.tm
</note>
  <anchor x="2182" y="1236" name="top"/>
  <outline>
    <contour>
      <point x="1507" y="-543" type="curve" smooth="yes"/>
      <point x="759" y="-543"/>
      <point x="355" y="-221"/>
      <point x="355" y="467" type="curve" smooth="yes"/>
      <point x="355" y="499"/>
      <point x="356" y="527"/>
      <point x="357" y="544" type="curve"/>
      <point x="358" y="556" type="line"/>
      <point x="372" y="848"/>
      <point x="475" y="984"/>
      <point x="650" y="984" type="curve" smooth="yes"/>
      <point x="805" y="984"/>
      <point x="877" y="897"/>
      <point x="877" y="747" type="curve" smooth="yes"/>
      <point x="877" y="744" type="line" smooth="yes"/>
      <point x="877" y="591"/>
      <point x="801" y="503"/>
      <point x="622" y="503" type="curve" smooth="yes"/>
      <point x="493" y="503"/>
      <point x="384" y="544"/>
      <point x="347" y="594" type="curve"/>
      <point x="341" y="594" type="line"/>
      <point x="341" y="544" type="line"/>
      <point x="362" y="544" type="line"/>
      <point x="424" y="395" type="line"/>
      <point x="466" y="372"/>
      <point x="551" y="343"/>
      <point x="673" y="343" type="curve" smooth="yes"/>
      <point x="954" y="343"/>
      <point x="1079" y="495"/>
      <point x="1079" y="740" type="curve" smooth="yes"/>
      <point x="1079" y="743" type="line" smooth="yes"/>
      <point x="1079" y="991"/>
      <point x="947" y="1149"/>
      <point x="660" y="1149" type="curve" smooth="yes"/>
      <point x="327" y="1149"/>
      <point x="152" y="927"/>
      <point x="152" y="455" type="curve" smooth="yes"/>
      <point x="152" y="435" type="line" smooth="yes"/>
      <point x="152" y="-339"/>
      <point x="633" y="-717"/>
      <point x="1507" y="-717" type="curve"/>
      <point x="1927" y="-717"/>
      <point x="2248" y="-618"/>
      <point x="2484" y="-444" type="curve" smooth="yes"/>
      <point x="2507" y="-425" type="line" smooth="yes"/>
      <point x="2550" y="-395"/>
      <point x="2580" y="-380"/>
      <point x="2631" y="-380" type="curve" smooth="yes"/>
      <point x="2767" y="-380" type="line"/>
      <point x="2797" y="-217" type="line"/>
      <point x="2525" y="-217" type="line" smooth="yes"/>
      <point x="2325" y="-217"/>
      <point x="2273" y="-156"/>
      <point x="2273" y="5" type="curve" smooth="yes"/>
      <point x="2273" y="64" type="line"/>
      <point x="2068" y="64" type="line"/>
      <point x="2068" y="-6" type="line" smooth="yes"/>
      <point x="2068" y="-164"/>
      <point x="2144" y="-272"/>
      <point x="2380" y="-291" type="curve"/>
      <point x="2380" y="-293" type="line"/>
      <point x="2349" y="-300"/>
      <point x="2325" y="-316"/>
      <point x="2294" y="-334" type="curve" smooth="yes"/>
      <point x="2277" y="-346" type="line" smooth="yes"/>
      <point x="2096" y="-466"/>
      <point x="1846" y="-543"/>
    </contour>
    <component base="Ma.tm" xOffset="1115"/>
  </outline>
</glyph>
<glyph name="MaMatraIi_SimpleIi.tm" format="2">
  <advance width="2102"/>
  <note>
MaMatraIi.tm
</note>
  <anchor x="1067" y="1236" name="top"/>
  <outline>
    <contour>
      <point x="1634" y="1856" type="curve" smooth="yes"/>
      <point x="1320" y="1856"/>
      <point x="1187" y="1719"/>
      <point x="1187" y="1463" type="curve" smooth="yes"/>
      <point x="1187" y="1463" type="line" smooth="yes"/>
      <point x="1187" y="1293"/>
      <point x="1243" y="1173"/>
      <point x="1323" y="1106" type="curve"/>
      <point x="1528" y="1101" type="line"/>
      <point x="1424" y="1179"/>
      <point x="1374" y="1304"/>
      <point x="1374" y="1444" type="curve" smooth="yes"/>
      <point x="1374" y="1448" type="line"/>
      <point x="1374" y="1481" type="line" smooth="yes"/>
      <point x="1374" y="1637"/>
      <point x="1459" y="1708"/>
      <point x="1627" y="1708" type="curve" smooth="yes"/>
      <point x="1776" y="1708"/>
      <point x="1852" y="1656"/>
      <point x="1852" y="1561" type="curve" smooth="yes"/>
      <point x="1852" y="1558" type="line" smooth="yes"/>
      <point x="1852" y="1462"/>
      <point x="1790" y="1415"/>
      <point x="1635" y="1415" type="curve" smooth="yes"/>
      <point x="1498" y="1415"/>
      <point x="1414" y="1454"/>
      <point x="1369" y="1499" type="curve"/>
      <point x="1365" y="1499" type="line"/>
      <point x="1365" y="1443" type="line"/>
      <point x="1377" y="1443" type="line"/>
      <point x="1440" y="1319" type="line"/>
      <point x="1480" y="1298"/>
      <point x="1570" y="1274"/>
      <point x="1686" y="1274" type="curve" smooth="yes"/>
      <point x="1933" y="1274"/>
      <point x="2037" y="1372"/>
      <point x="2037" y="1558" type="curve" smooth="yes"/>
      <point x="2037" y="1561" type="line" smooth="yes"/>
      <point x="2037" y="1751"/>
      <point x="1907" y="1856"/>
    </contour>
    <component base="Ma.tm"/>
  </outline>
</glyph>
<glyph name="MaMatraU.tm" format="2">
  <advance width="2861"/>
  <note>
MaMatraU.tm
</note>
  <anchor x="1826" y="1236" name="top"/>
  <outline>
    <contour>
      <point x="337" y="1121" type="line"/>
      <point x="241" y="957"/>
      <point x="158" y="680"/>
      <point x="158" y="342" type="curve" smooth="yes"/>
      <point x="158" y="-267"/>
      <point x="455" y="-620"/>
      <point x="1095" y="-620" type="curve" smooth="yes"/>
      <point x="1103" y="-620" type="line" smooth="yes"/>
      <point x="1624" y="-620"/>
      <point x="1889" y="-390"/>
      <point x="1915" y="10" type="curve" smooth="yes"/>
      <point x="1920" y="70" type="line"/>
      <point x="1711" y="74" type="line"/>
      <point x="1707" y="19" type="line" smooth="yes"/>
      <point x="1684" y="-277"/>
      <point x="1498" y="-446"/>
      <point x="1102" y="-446" type="curve" smooth="yes"/>
      <point x="1095" y="-446" type="line" smooth="yes"/>
      <point x="589" y="-446"/>
      <point x="369" y="-153"/>
      <point x="369" y="343" type="curve" smooth="yes"/>
      <point x="369" y="662"/>
      <point x="447" y="917"/>
      <point x="564" y="1121" type="curve"/>
    </contour>
    <component base="Ma.tm" xOffset="759"/>
  </outline>
</glyph>
<glyph name="MaMatraU_Simple.tm" format="2">
  <advance width="2898"/>
  <note>
MaMatraU.tm
</note>
  <anchor x="1863" y="1236" name="top"/>
  <outline>
    <contour>
      <point x="195" y="1121" type="line"/>
      <point x="195" y="342" type="line"/>
      <point x="195" y="-267"/>
      <point x="492" y="-620"/>
      <point x="1132" y="-620" type="curve" smooth="yes"/>
      <point x="1140" y="-620" type="line" smooth="yes"/>
      <point x="1661" y="-620"/>
      <point x="1926" y="-390"/>
      <point x="1952" y="10" type="curve" smooth="yes"/>
      <point x="1957" y="70" type="line"/>
      <point x="1748" y="74" type="line"/>
      <point x="1744" y="19" type="line" smooth="yes"/>
      <point x="1721" y="-277"/>
      <point x="1535" y="-446"/>
      <point x="1139" y="-446" type="curve" smooth="yes"/>
      <point x="1132" y="-446" type="line" smooth="yes"/>
      <point x="626" y="-446"/>
      <point x="406" y="-153"/>
      <point x="406" y="343" type="curve"/>
      <point x="406" y="1121" type="line"/>
    </contour>
    <component base="Ma.tm" xOffset="796"/>
  </outline>
</glyph>
<glyph name="MaMatraUu.tm" format="2">
  <advance width="3217"/>
  <note>
MaMatraUu.tm
</note>
  <anchor x="2182" y="1236" name="top"/>
  <outline>
    <contour>
      <point x="660" y="1149" type="curve" smooth="yes"/>
      <point x="327" y="1149"/>
      <point x="152" y="927"/>
      <point x="152" y="455" type="curve" smooth="yes"/>
      <point x="152" y="435" type="line" smooth="yes"/>
      <point x="152" y="-330"/>
      <point x="546" y="-683"/>
      <point x="1291" y="-683" type="curve"/>
      <point x="1299" y="-683" type="line" smooth="yes"/>
      <point x="1921" y="-683"/>
      <point x="2241" y="-429"/>
      <point x="2268" y="12" type="curve" smooth="yes"/>
      <point x="2272" y="70" type="line"/>
      <point x="2063" y="74" type="line"/>
      <point x="2059" y="21" type="line" smooth="yes"/>
      <point x="2035" y="-317"/>
      <point x="1795" y="-509"/>
      <point x="1298" y="-509" type="curve"/>
      <point x="1291" y="-509" type="line" smooth="yes"/>
      <point x="668" y="-509"/>
      <point x="355" y="-207"/>
      <point x="355" y="467" type="curve" smooth="yes"/>
      <point x="355" y="499"/>
      <point x="356" y="525"/>
      <point x="357" y="544" type="curve"/>
      <point x="358" y="556" type="line"/>
      <point x="372" y="848"/>
      <point x="475" y="984"/>
      <point x="650" y="984" type="curve" smooth="yes"/>
      <point x="805" y="984"/>
      <point x="877" y="897"/>
      <point x="877" y="747" type="curve" smooth="yes"/>
      <point x="877" y="744" type="line" smooth="yes"/>
      <point x="877" y="591"/>
      <point x="801" y="503"/>
      <point x="622" y="503" type="curve" smooth="yes"/>
      <point x="493" y="503"/>
      <point x="384" y="544"/>
      <point x="347" y="594" type="curve"/>
      <point x="341" y="594" type="line"/>
      <point x="341" y="544" type="line"/>
      <point x="362" y="544" type="line"/>
      <point x="424" y="395" type="line"/>
      <point x="466" y="372"/>
      <point x="551" y="343"/>
      <point x="673" y="343" type="curve" smooth="yes"/>
      <point x="954" y="343"/>
      <point x="1079" y="495"/>
      <point x="1079" y="740" type="curve" smooth="yes"/>
      <point x="1079" y="743" type="line" smooth="yes"/>
      <point x="1079" y="991"/>
      <point x="947" y="1149"/>
    </contour>
    <component base="Ma.tm" xOffset="1115"/>
  </outline>
</glyph>
<glyph name="MatraAa_dummy.tm" format="2">
  <advance width="1431"/>
  <note>
RaAltMatraAa.tm
</note>
  <outline>
    <contour>
      <point x="938" y="1069" type="line"/>
      <point x="938" y="0" type="line"/>
      <point x="1144" y="0" type="line"/>
      <point x="1144" y="1069" type="line"/>
    </contour>
    <contour>
      <point x="1098" y="1121" type="line"/>
      <point x="199" y="1121" type="line"/>
      <point x="199" y="0" type="line"/>
      <point x="405" y="0" type="line"/>
      <point x="405" y="959" type="line"/>
      <point x="1098" y="959" type="line"/>
    </contour>
    <component base="RaBeak_Nonexporting" xOffset="827"/>
  </outline>
</glyph>
<glyph name="MatraAiComponent_Nonexporting" format="2">
  <advance width="1583"/>
  <outline>
    <contour>
      <point x="685" y="1596" type="curve" smooth="yes"/>
      <point x="324" y="1596"/>
      <point x="132" y="1459"/>
      <point x="132" y="1244" type="curve" smooth="yes"/>
      <point x="132" y="1243" type="line" smooth="yes"/>
      <point x="132" y="1044"/>
      <point x="267" y="922"/>
      <point x="517" y="922" type="curve" smooth="yes"/>
      <point x="777" y="922"/>
      <point x="891" y="1044"/>
      <point x="891" y="1217" type="curve" smooth="yes"/>
      <point x="891" y="1218" type="line" smooth="yes"/>
      <point x="891" y="1335"/>
      <point x="835" y="1407"/>
      <point x="752" y="1438" type="curve"/>
      <point x="752" y="1450" type="line"/>
      <point x="676" y="1450" type="line"/>
      <point x="709" y="1401"/>
      <point x="728" y="1337"/>
      <point x="728" y="1264" type="curve" smooth="yes"/>
      <point x="728" y="1262" type="line" smooth="yes"/>
      <point x="728" y="1140"/>
      <point x="667" y="1066"/>
      <point x="520" y="1066" type="curve" smooth="yes"/>
      <point x="383" y="1066"/>
      <point x="313" y="1130"/>
      <point x="313" y="1241" type="curve" smooth="yes"/>
      <point x="313" y="1243" type="line" smooth="yes"/>
      <point x="313" y="1368"/>
      <point x="424" y="1445"/>
      <point x="639" y="1445" type="curve" smooth="yes"/>
      <point x="679" y="1445"/>
      <point x="722" y="1442"/>
      <point x="752" y="1436" type="curve"/>
      <point x="752" y="1444" type="line"/>
      <point x="999" y="1427"/>
      <point x="1140" y="1346"/>
      <point x="1140" y="1132" type="curve" smooth="yes"/>
      <point x="1140" y="1126" type="line" smooth="yes"/>
      <point x="1140" y="914"/>
      <point x="1021" y="793"/>
      <point x="727" y="748" type="curve" smooth="yes"/>
      <point x="524" y="717" type="line" smooth="yes"/>
      <point x="225" y="671"/>
      <point x="106" y="576"/>
      <point x="106" y="379" type="curve" smooth="yes"/>
      <point x="106" y="374" type="line" smooth="yes"/>
      <point x="106" y="114"/>
      <point x="313" y="-26"/>
      <point x="787" y="-26" type="curve" smooth="yes"/>
      <point x="1098" y="-26"/>
      <point x="1358" y="36"/>
      <point x="1564" y="125" type="curve"/>
      <point x="1564" y="297" type="line"/>
      <point x="1355" y="205"/>
      <point x="1092" y="142"/>
      <point x="789" y="142" type="curve" smooth="yes"/>
      <point x="453" y="142"/>
      <point x="310" y="224"/>
      <point x="310" y="371" type="curve" smooth="yes"/>
      <point x="310" y="377" type="line" smooth="yes"/>
      <point x="310" y="487"/>
      <point x="384" y="541"/>
      <point x="591" y="573" type="curve" smooth="yes"/>
      <point x="795" y="605" type="line" smooth="yes"/>
      <point x="1179" y="665"/>
      <point x="1332" y="837"/>
      <point x="1332" y="1123" type="curve" smooth="yes"/>
      <point x="1332" y="1129" type="line" smooth="yes"/>
      <point x="1332" y="1433"/>
      <point x="1128" y="1596"/>
    </contour>
  </outline>
</glyph>
<glyph name="MatraEe_Fused.tm" format="2">
  <advance width="1188"/>
  <note>
MatraEe.tm
</note>
  <outline>
    <contour>
      <point x="661" y="1473" type="curve" smooth="yes"/>
      <point x="305" y="1473"/>
      <point x="149" y="1256"/>
      <point x="149" y="913" type="curve"/>
      <point x="149" y="535" type="line"/>
      <point x="149" y="193"/>
      <point x="305" y="-24"/>
      <point x="661" y="-24" type="curve" smooth="yes"/>
      <point x="966" y="-24"/>
      <point x="1090" y="130"/>
      <point x="1090" y="350" type="curve" smooth="yes"/>
      <point x="1090" y="353" type="line" smooth="yes"/>
      <point x="1090" y="571"/>
      <point x="966" y="689"/>
      <point x="720" y="689" type="curve" smooth="yes"/>
      <point x="515" y="689"/>
      <point x="387" y="600"/>
      <point x="349" y="492" type="curve"/>
      <point x="336" y="492" type="line"/>
      <point x="340" y="389" type="line"/>
      <point x="371" y="469"/>
      <point x="486" y="538"/>
      <point x="638" y="538" type="curve" smooth="yes"/>
      <point x="813" y="538"/>
      <point x="892" y="468"/>
      <point x="892" y="342" type="curve" smooth="yes"/>
      <point x="892" y="340" type="line" smooth="yes"/>
      <point x="892" y="218"/>
      <point x="817" y="134"/>
      <point x="651" y="134" type="curve" smooth="yes"/>
      <point x="446" y="134"/>
      <point x="351" y="264"/>
      <point x="351" y="461" type="curve"/>
      <point x="351" y="492" type="line"/>
      <point x="345" y="492" type="line"/>
      <point x="345" y="962" type="line"/>
      <point x="351" y="962" type="line"/>
      <point x="351" y="988" type="line"/>
      <point x="351" y="1186"/>
      <point x="446" y="1315"/>
      <point x="651" y="1315" type="curve" smooth="yes"/>
      <point x="817" y="1315"/>
      <point x="892" y="1232"/>
      <point x="892" y="1109" type="curve" smooth="yes"/>
      <point x="892" y="1106" type="line" smooth="yes"/>
      <point x="892" y="980"/>
      <point x="813" y="911"/>
      <point x="638" y="911" type="curve" smooth="yes"/>
      <point x="486" y="911"/>
      <point x="371" y="979"/>
      <point x="340" y="1061" type="curve"/>
      <point x="337" y="962" type="line"/>
      <point x="348" y="962" type="line"/>
      <point x="385" y="851"/>
      <point x="513" y="759"/>
      <point x="720" y="759" type="curve" smooth="yes"/>
      <point x="966" y="759"/>
      <point x="1090" y="878"/>
      <point x="1090" y="1096" type="curve" smooth="yes"/>
      <point x="1090" y="1099" type="line" smooth="yes"/>
      <point x="1090" y="1319"/>
      <point x="966" y="1473"/>
    </contour>
  </outline>
</glyph>
<glyph name="MatraIiDflt_SimpleIi.tm" format="2">
  <note>
MatraIiDflt.tm
</note>
  <outline>
    <contour>
      <point x="448" y="1856" type="curve" smooth="yes"/>
      <point x="133" y="1856"/>
      <point x="0" y="1719"/>
      <point x="0" y="1463" type="curve" smooth="yes"/>
      <point x="0" y="1463" type="line" smooth="yes"/>
      <point x="0" y="1297"/>
      <point x="54" y="1179"/>
      <point x="132" y="1113" type="curve"/>
      <point x="332" y="1113" type="line"/>
      <point x="237" y="1189"/>
      <point x="187" y="1309"/>
      <point x="187" y="1444" type="curve" smooth="yes"/>
      <point x="187" y="1448" type="line"/>
      <point x="187" y="1481" type="line" smooth="yes"/>
      <point x="187" y="1637"/>
      <point x="273" y="1708"/>
      <point x="441" y="1708" type="curve" smooth="yes"/>
      <point x="589" y="1708"/>
      <point x="665" y="1656"/>
      <point x="665" y="1561" type="curve" smooth="yes"/>
      <point x="665" y="1558" type="line" smooth="yes"/>
      <point x="665" y="1462"/>
      <point x="603" y="1415"/>
      <point x="448" y="1415" type="curve" smooth="yes"/>
      <point x="311" y="1415"/>
      <point x="227" y="1454"/>
      <point x="183" y="1499" type="curve"/>
      <point x="179" y="1499" type="line"/>
      <point x="179" y="1443" type="line"/>
      <point x="191" y="1443" type="line"/>
      <point x="253" y="1319" type="line"/>
      <point x="293" y="1298"/>
      <point x="384" y="1274"/>
      <point x="499" y="1274" type="curve" smooth="yes"/>
      <point x="747" y="1274"/>
      <point x="850" y="1372"/>
      <point x="850" y="1558" type="curve" smooth="yes"/>
      <point x="850" y="1561" type="line" smooth="yes"/>
      <point x="850" y="1751"/>
      <point x="720" y="1856"/>
    </contour>
  </outline>
</glyph>
<glyph name="NaMatraI.tm" format="2">
  <advance width="2032"/>
  <note>
NaMatraI.tm
</note>
  <outline>
    <contour>
      <point x="905" y="1069" type="line"/>
      <point x="905" y="0" type="line"/>
      <point x="1111" y="0" type="line"/>
      <point x="1111" y="1069" type="line"/>
    </contour>
    <contour>
      <point x="1472" y="702" type="curve" smooth="yes"/>
      <point x="1272" y="702"/>
      <point x="1151" y="594"/>
      <point x="1119" y="449" type="curve"/>
      <point x="1082" y="449" type="line"/>
      <point x="1082" y="309" type="line"/>
      <point x="1098" y="309" type="line"/>
      <point x="1140" y="446"/>
      <point x="1248" y="521"/>
      <point x="1397" y="521" type="curve" smooth="yes"/>
      <point x="1588" y="521"/>
      <point x="1665" y="419"/>
      <point x="1665" y="221" type="curve" smooth="yes"/>
      <point x="1665" y="215" type="line" smooth="yes"/>
      <point x="1665" y="-125"/>
      <point x="1504" y="-246"/>
      <point x="1018" y="-246" type="curve" smooth="yes"/>
      <point x="501" y="-246" type="line"/>
      <point x="534" y="-415" type="line"/>
      <point x="1029" y="-415" type="line" smooth="yes"/>
      <point x="1658" y="-415"/>
      <point x="1879" y="-224"/>
      <point x="1879" y="225" type="curve" smooth="yes"/>
      <point x="1879" y="233" type="line" smooth="yes"/>
      <point x="1879" y="538"/>
      <point x="1757" y="702"/>
    </contour>
    <contour>
      <point x="1270" y="1121" type="line"/>
      <point x="199" y="1121" type="line"/>
      <point x="199" y="0" type="line"/>
      <point x="405" y="0" type="line"/>
      <point x="405" y="959" type="line"/>
      <point x="1270" y="959" type="line"/>
    </contour>
    <contour>
      <point x="1343" y="1783" type="curve" smooth="yes"/>
      <point x="1029" y="1783"/>
      <point x="853" y="1620"/>
      <point x="853" y="1351" type="curve" smooth="yes"/>
      <point x="853" y="1351" type="line" smooth="yes"/>
      <point x="853" y="1249"/>
      <point x="884" y="1163"/>
      <point x="914" y="1114" type="curve"/>
      <point x="1109" y="1114" type="line"/>
      <point x="1080" y="1166"/>
      <point x="1055" y="1236"/>
      <point x="1055" y="1333" type="curve" smooth="yes"/>
      <point x="1055" y="1333" type="line" smooth="yes"/>
      <point x="1055" y="1514"/>
      <point x="1157" y="1616"/>
      <point x="1343" y="1616" type="curve" smooth="yes"/>
      <point x="1553" y="1616"/>
      <point x="1634" y="1505"/>
      <point x="1634" y="1258" type="curve" smooth="yes"/>
      <point x="1634" y="804" type="line"/>
      <point x="1834" y="804" type="line"/>
      <point x="1834" y="1250" type="line" smooth="yes"/>
      <point x="1834" y="1615"/>
      <point x="1692" y="1783"/>
    </contour>
    <component base="Tail_NonExporting" xOffset="-66"/>
    <component base="RaBeak_Nonexporting" xOffset="842"/>
  </outline>
</glyph>
<glyph name="NgaMatraI_SimpleFly.tm" format="2">
  <advance width="2646"/>
  <note>
NgaMatraI.tm
</note>
  <outline>
    <contour>
      <point x="2625" y="1610" type="line"/>
      <point x="2137" y="1610" type="line" smooth="yes"/>
      <point x="1917" y="1610"/>
      <point x="1816" y="1535"/>
      <point x="1816" y="1366" type="curve" smooth="yes"/>
      <point x="1816" y="1275"/>
      <point x="1853" y="1167"/>
      <point x="1892" y="1100" type="curve" smooth="yes"/>
      <point x="1953" y="994"/>
      <point x="2009" y="961"/>
      <point x="2152" y="961" type="curve" smooth="yes"/>
      <point x="2319" y="961" type="line"/>
      <point x="2319" y="1121" type="line"/>
      <point x="2187" y="1121" type="line" smooth="yes"/>
      <point x="2125" y="1121"/>
      <point x="2095" y="1136"/>
      <point x="2063" y="1189" type="curve" smooth="yes"/>
      <point x="2040" y="1230"/>
      <point x="2020" y="1282"/>
      <point x="2020" y="1326" type="curve" smooth="yes"/>
      <point x="2020" y="1411"/>
      <point x="2075" y="1443"/>
      <point x="2200" y="1443" type="curve" smooth="yes"/>
      <point x="2655" y="1443" type="line"/>
    </contour>
    <contour>
      <point x="937" y="1061" type="line"/>
      <point x="937" y="0" type="line"/>
      <point x="1143" y="0" type="line"/>
      <point x="1143" y="1061" type="line"/>
    </contour>
    <contour>
      <point x="1536" y="740" type="curve" smooth="yes"/>
      <point x="1305" y="740"/>
      <point x="1182" y="625"/>
      <point x="1147" y="490" type="curve"/>
      <point x="1129" y="490" type="line"/>
      <point x="1129" y="383" type="line"/>
      <point x="1135" y="383" type="line"/>
      <point x="1186" y="490"/>
      <point x="1292" y="561"/>
      <point x="1436" y="561" type="curve" smooth="yes"/>
      <point x="1613" y="561"/>
      <point x="1685" y="475"/>
      <point x="1685" y="324" type="curve" smooth="yes"/>
      <point x="1685" y="322" type="line" smooth="yes"/>
      <point x="1685" y="175"/>
      <point x="1634" y="89"/>
      <point x="1548" y="14" type="curve"/>
      <point x="1548" y="0" type="line"/>
      <point x="2288" y="0" type="line"/>
      <point x="2288" y="159" type="line"/>
      <point x="1705" y="159" type="line"/>
      <point x="1800" y="116" type="line"/>
      <point x="1842" y="174"/>
      <point x="1885" y="279"/>
      <point x="1885" y="415" type="curve" smooth="yes"/>
      <point x="1885" y="419" type="line" smooth="yes"/>
      <point x="1885" y="622"/>
      <point x="1772" y="740"/>
    </contour>
    <contour>
      <point x="2241" y="1121" type="line"/>
      <point x="2241" y="0" type="line"/>
      <point x="2446" y="0" type="line"/>
      <point x="2446" y="1121" type="line"/>
    </contour>
    <contour>
      <point x="1323" y="1121" type="line"/>
      <point x="199" y="1121" type="line"/>
      <point x="199" y="0" type="line"/>
      <point x="405" y="0" type="line"/>
      <point x="405" y="959" type="line"/>
      <point x="1323" y="959" type="line"/>
    </contour>
    <component base="RaBeak_Nonexporting" xOffset="1083"/>
  </outline>
</glyph>
<glyph name="NgaMatraU.tm" format="2">
  <advance width="2645"/>
  <note>
NgaMatraU.tm
</note>
  <anchor x="1451" y="1236" name="top"/>
  <outline>
    <contour>
      <point x="2241" y="166" type="line"/>
      <point x="2241" y="-428" type="line"/>
      <point x="2446" y="-428" type="line"/>
      <point x="2446" y="166" type="line"/>
    </contour>
    <component base="Nga.tm"/>
  </outline>
</glyph>
<glyph name="NgaMatraUu.tm" format="2">
  <advance width="3138"/>
  <note>
NgaMatraUu.tm
</note>
  <anchor x="1451" y="1236" name="top"/>
  <outline>
    <contour>
      <point x="2241" y="217" type="line"/>
      <point x="2241" y="-328" type="line"/>
      <point x="2446" y="-328" type="line"/>
      <point x="2446" y="217" type="line"/>
    </contour>
    <contour>
      <point x="2770" y="343" type="curve" smooth="yes"/>
      <point x="2593" y="343"/>
      <point x="2485" y="238"/>
      <point x="2454" y="104" type="curve"/>
      <point x="2418" y="104" type="line"/>
      <point x="2418" y="-27" type="line"/>
      <point x="2433" y="-27" type="line"/>
      <point x="2472" y="100"/>
      <point x="2563" y="172"/>
      <point x="2689" y="172" type="curve" smooth="yes"/>
      <point x="2850" y="172"/>
      <point x="2912" y="80"/>
      <point x="2912" y="-86" type="curve" smooth="yes"/>
      <point x="2912" y="-93" type="line" smooth="yes"/>
      <point x="2912" y="-561"/>
      <point x="2492" y="-813"/>
      <point x="1580" y="-813" type="curve" smooth="yes"/>
      <point x="846" y="-813"/>
      <point x="283" y="-650"/>
      <point x="283" y="-433" type="curve" smooth="yes"/>
      <point x="283" y="-335"/>
      <point x="375" y="-299"/>
      <point x="520" y="-299" type="curve" smooth="yes"/>
      <point x="787" y="-299"/>
      <point x="1092" y="-376"/>
      <point x="1333" y="-474" type="curve"/>
      <point x="1306" y="-288" type="line"/>
      <point x="1126" y="-207"/>
      <point x="819" y="-134"/>
      <point x="515" y="-134" type="curve" smooth="yes"/>
      <point x="241" y="-134"/>
      <point x="78" y="-213"/>
      <point x="78" y="-419" type="curve" smooth="yes"/>
      <point x="78" y="-779"/>
      <point x="691" y="-984"/>
      <point x="1580" y="-984" type="curve" smooth="yes"/>
      <point x="2625" y="-984"/>
      <point x="3119" y="-671"/>
      <point x="3119" y="-84" type="curve" smooth="yes"/>
      <point x="3119" y="-75" type="line" smooth="yes"/>
      <point x="3119" y="193"/>
      <point x="3017" y="343"/>
    </contour>
    <component base="Nga.tm"/>
  </outline>
</glyph>
<glyph name="NnaMatraAa.tm" format="2">
  <advance width="4897"/>
  <outline>
    <contour>
      <point x="2958" y="1152" type="curve" smooth="yes"/>
      <point x="2658" y="1152"/>
      <point x="2449" y="1105"/>
      <point x="2312" y="1039" type="curve"/>
      <point x="2415" y="919" type="line"/>
      <point x="2541" y="960"/>
      <point x="2728" y="992"/>
      <point x="2958" y="992" type="curve" smooth="yes"/>
      <point x="3177" y="992"/>
      <point x="3377" y="963"/>
      <point x="3486" y="925" type="curve"/>
      <point x="3499" y="921" type="line"/>
      <point x="3716" y="858"/>
      <point x="3787" y="688"/>
      <point x="3787" y="499" type="curve" smooth="yes"/>
      <point x="3787" y="489" type="line" smooth="yes"/>
      <point x="3787" y="281"/>
      <point x="3720" y="145"/>
      <point x="3534" y="145" type="curve" smooth="yes"/>
      <point x="3344" y="145"/>
      <point x="3273" y="281"/>
      <point x="3273" y="489" type="curve" smooth="yes"/>
      <point x="3273" y="500" type="line" smooth="yes"/>
      <point x="3273" y="688"/>
      <point x="3345" y="858"/>
      <point x="3564" y="921" type="curve"/>
      <point x="3469" y="1024" type="line"/>
      <point x="3179" y="956"/>
      <point x="3065" y="727"/>
      <point x="3065" y="488" type="curve" smooth="yes"/>
      <point x="3065" y="477" type="line" smooth="yes"/>
      <point x="3065" y="182"/>
      <point x="3201" y="-24"/>
      <point x="3536" y="-24" type="curve" smooth="yes"/>
      <point x="3867" y="-24"/>
      <point x="3993" y="182"/>
      <point x="3993" y="477" type="curve" smooth="yes"/>
      <point x="3993" y="488" type="line" smooth="yes"/>
      <point x="3993" y="728"/>
      <point x="3883" y="936"/>
      <point x="3622" y="1036" type="curve"/>
      <point x="3620" y="1037" type="line"/>
      <point x="3481" y="1104"/>
      <point x="3275" y="1152"/>
    </contour>
    <contour>
      <point x="4099" y="1153" type="curve" smooth="yes"/>
      <point x="3831" y="1153"/>
      <point x="3626" y="1116"/>
      <point x="3482" y="1065" type="curve"/>
      <point x="3575" y="940" type="line"/>
      <point x="3702" y="976"/>
      <point x="3864" y="1005"/>
      <point x="4089" y="1005" type="curve" smooth="yes"/>
      <point x="4420" y="1005"/>
      <point x="4541" y="913"/>
      <point x="4541" y="768" type="curve" smooth="yes"/>
      <point x="4541" y="767" type="line" smooth="yes"/>
      <point x="4541" y="633"/>
      <point x="4462" y="556"/>
      <point x="4263" y="552" type="curve" smooth="yes"/>
      <point x="4152" y="550" type="line"/>
      <point x="4152" y="393" type="line"/>
      <point x="4251" y="392" type="line" smooth="yes"/>
      <point x="4465" y="388"/>
      <point x="4562" y="306"/>
      <point x="4562" y="129" type="curve" smooth="yes"/>
      <point x="4562" y="128" type="line" smooth="yes"/>
      <point x="4562" y="-319"/>
      <point x="3878" y="-521"/>
      <point x="2650" y="-521" type="curve" smooth="yes"/>
      <point x="2567" y="-521" type="line" smooth="yes"/>
      <point x="1012" y="-521"/>
      <point x="368" y="-219"/>
      <point x="368" y="553" type="curve" smooth="yes"/>
      <point x="368" y="769"/>
      <point x="415" y="949"/>
      <point x="520" y="1121" type="curve"/>
      <point x="280" y="1121" type="line"/>
      <point x="204" y="989"/>
      <point x="157" y="781"/>
      <point x="157" y="551" type="curve" smooth="yes"/>
      <point x="157" y="-334"/>
      <point x="892" y="-695"/>
      <point x="2566" y="-695" type="curve" smooth="yes"/>
      <point x="2652" y="-695" type="line" smooth="yes"/>
      <point x="4044" y="-695"/>
      <point x="4773" y="-438"/>
      <point x="4773" y="131" type="curve" smooth="yes"/>
      <point x="4773" y="131" type="line" smooth="yes"/>
      <point x="4773" y="352"/>
      <point x="4652" y="466"/>
      <point x="4436" y="473" type="curve"/>
      <point x="4436" y="478" type="line"/>
      <point x="4638" y="492"/>
      <point x="4734" y="596"/>
      <point x="4734" y="781" type="curve" smooth="yes"/>
      <point x="4734" y="782" type="line" smooth="yes"/>
      <point x="4734" y="1017"/>
      <point x="4555" y="1153"/>
    </contour>
    <contour>
      <point x="1793" y="1155" type="curve" smooth="yes"/>
      <point x="1137" y="1155"/>
      <point x="794" y="907"/>
      <point x="794" y="486" type="curve" smooth="yes"/>
      <point x="794" y="477" type="line" smooth="yes"/>
      <point x="794" y="177"/>
      <point x="941" y="-24"/>
      <point x="1286" y="-24" type="curve" smooth="yes"/>
      <point x="1597" y="-24"/>
      <point x="1724" y="131"/>
      <point x="1724" y="353" type="curve" smooth="yes"/>
      <point x="1724" y="356" type="line" smooth="yes"/>
      <point x="1724" y="579"/>
      <point x="1601" y="702"/>
      <point x="1357" y="702" type="curve" smooth="yes"/>
      <point x="1157" y="702"/>
      <point x="1031" y="604"/>
      <point x="995" y="485" type="curve"/>
      <point x="982" y="485" type="line"/>
      <point x="984" y="369" type="line"/>
      <point x="1014" y="461"/>
      <point x="1125" y="539"/>
      <point x="1282" y="539" type="curve" smooth="yes"/>
      <point x="1449" y="539"/>
      <point x="1525" y="469"/>
      <point x="1525" y="342" type="curve" smooth="yes"/>
      <point x="1525" y="340" type="line" smooth="yes"/>
      <point x="1525" y="218"/>
      <point x="1448" y="134"/>
      <point x="1280" y="134" type="curve" smooth="yes"/>
      <point x="1083" y="134"/>
      <point x="995" y="244"/>
      <point x="995" y="412" type="curve"/>
      <point x="997" y="485" type="line"/>
      <point x="988" y="485" type="line"/>
      <point x="988" y="486"/>
      <point x="988" y="488"/>
      <point x="988" y="489" type="curve" smooth="yes"/>
      <point x="997" y="816"/>
      <point x="1272" y="991"/>
      <point x="1801" y="991" type="curve" smooth="yes"/>
      <point x="2053" y="991"/>
      <point x="2229" y="963"/>
      <point x="2340" y="925" type="curve"/>
      <point x="2353" y="921" type="line"/>
      <point x="2569" y="857"/>
      <point x="2641" y="687"/>
      <point x="2641" y="499" type="curve" smooth="yes"/>
      <point x="2641" y="489" type="line" smooth="yes"/>
      <point x="2641" y="281"/>
      <point x="2573" y="145"/>
      <point x="2388" y="145" type="curve" smooth="yes"/>
      <point x="2199" y="145"/>
      <point x="2126" y="281"/>
      <point x="2126" y="489" type="curve" smooth="yes"/>
      <point x="2126" y="500" type="line" smooth="yes"/>
      <point x="2126" y="687"/>
      <point x="2200" y="857"/>
      <point x="2419" y="921" type="curve"/>
      <point x="2331" y="1026" type="line"/>
      <point x="2032" y="955"/>
      <point x="1919" y="727"/>
      <point x="1919" y="488" type="curve" smooth="yes"/>
      <point x="1919" y="477" type="line" smooth="yes"/>
      <point x="1919" y="182"/>
      <point x="2054" y="-24"/>
      <point x="2390" y="-24" type="curve" smooth="yes"/>
      <point x="2720" y="-24"/>
      <point x="2847" y="182"/>
      <point x="2847" y="477" type="curve" smooth="yes"/>
      <point x="2847" y="488" type="line" smooth="yes"/>
      <point x="2847" y="726"/>
      <point x="2737" y="935"/>
      <point x="2475" y="1036" type="curve"/>
      <point x="2473" y="1037" type="line"/>
      <point x="2330" y="1106"/>
      <point x="2120" y="1155"/>
    </contour>
  </outline>
</glyph>
<glyph name="NnaMatraU_Simple.tm" format="2">
  <advance width="4882"/>
  <note>
NnaMatraU.tm
</note>
  <outline>
    <contour>
      <point x="2303" y="1152" type="curve" smooth="yes"/>
      <point x="2003" y="1152"/>
      <point x="1795" y="1105"/>
      <point x="1657" y="1039" type="curve"/>
      <point x="1760" y="919" type="line"/>
      <point x="1886" y="960"/>
      <point x="2073" y="992"/>
      <point x="2303" y="992" type="curve" smooth="yes"/>
      <point x="2523" y="992"/>
      <point x="2723" y="963"/>
      <point x="2832" y="925" type="curve"/>
      <point x="2844" y="921" type="line"/>
      <point x="3062" y="857"/>
      <point x="3133" y="687"/>
      <point x="3133" y="499" type="curve" smooth="yes"/>
      <point x="3133" y="489" type="line" smooth="yes"/>
      <point x="3133" y="281"/>
      <point x="3065" y="145"/>
      <point x="2879" y="145" type="curve" smooth="yes"/>
      <point x="2690" y="145"/>
      <point x="2617" y="281"/>
      <point x="2617" y="489" type="curve" smooth="yes"/>
      <point x="2617" y="500" type="line" smooth="yes"/>
      <point x="2617" y="687"/>
      <point x="2690" y="857"/>
      <point x="2910" y="921" type="curve"/>
      <point x="2822" y="1026" type="line"/>
      <point x="2523" y="955"/>
      <point x="2410" y="727"/>
      <point x="2410" y="488" type="curve" smooth="yes"/>
      <point x="2410" y="477" type="line" smooth="yes"/>
      <point x="2410" y="182"/>
      <point x="2546" y="-24"/>
      <point x="2881" y="-24" type="curve" smooth="yes"/>
      <point x="3212" y="-24"/>
      <point x="3338" y="182"/>
      <point x="3338" y="477" type="curve" smooth="yes"/>
      <point x="3338" y="488" type="line" smooth="yes"/>
      <point x="3338" y="726"/>
      <point x="3229" y="935"/>
      <point x="2967" y="1036" type="curve"/>
      <point x="2965" y="1037" type="line"/>
      <point x="2825" y="1104"/>
      <point x="2621" y="1152"/>
    </contour>
    <contour>
      <point x="3440" y="1153" type="curve" smooth="yes"/>
      <point x="3173" y="1153"/>
      <point x="2969" y="1116"/>
      <point x="2824" y="1065" type="curve"/>
      <point x="2918" y="940" type="line"/>
      <point x="3044" y="976"/>
      <point x="3206" y="1005"/>
      <point x="3431" y="1005" type="curve" smooth="yes"/>
      <point x="3762" y="1005"/>
      <point x="3883" y="913"/>
      <point x="3883" y="768" type="curve" smooth="yes"/>
      <point x="3883" y="767" type="line" smooth="yes"/>
      <point x="3883" y="628"/>
      <point x="3805" y="547"/>
      <point x="3606" y="543" type="curve" smooth="yes"/>
      <point x="3495" y="541" type="line"/>
      <point x="3495" y="385" type="line"/>
      <point x="3593" y="383" type="line" smooth="yes"/>
      <point x="3806" y="380"/>
      <point x="3904" y="291"/>
      <point x="3904" y="106" type="curve" smooth="yes"/>
      <point x="3904" y="105" type="line" smooth="yes"/>
      <point x="3904" y="-138"/>
      <point x="3770" y="-246"/>
      <point x="3389" y="-246" type="curve" smooth="yes"/>
      <point x="74" y="-246" type="line"/>
      <point x="111" y="-415" type="line"/>
      <point x="4683" y="-415" type="line"/>
      <point x="4683" y="-246" type="line"/>
      <point x="3863" y="-246" type="line"/>
      <point x="3863" y="-239" type="line"/>
      <point x="4031" y="-195"/>
      <point x="4115" y="-54"/>
      <point x="4115" y="125" type="curve" smooth="yes"/>
      <point x="4115" y="125" type="line" smooth="yes"/>
      <point x="4115" y="343"/>
      <point x="3994" y="457"/>
      <point x="3778" y="464" type="curve"/>
      <point x="3778" y="469" type="line"/>
      <point x="3980" y="483"/>
      <point x="4076" y="590"/>
      <point x="4076" y="781" type="curve" smooth="yes"/>
      <point x="4076" y="782" type="line" smooth="yes"/>
      <point x="4076" y="1017"/>
      <point x="3897" y="1153"/>
    </contour>
    <contour>
      <point x="4477" y="1121" type="line"/>
      <point x="4477" y="-415" type="line"/>
      <point x="4683" y="-415" type="line"/>
      <point x="4683" y="1121" type="line"/>
    </contour>
    <contour>
      <point x="1136" y="1155" type="curve" smooth="yes"/>
      <point x="481" y="1155"/>
      <point x="139" y="907"/>
      <point x="139" y="486" type="curve" smooth="yes"/>
      <point x="139" y="477" type="line" smooth="yes"/>
      <point x="139" y="177"/>
      <point x="286" y="-24"/>
      <point x="631" y="-24" type="curve" smooth="yes"/>
      <point x="942" y="-24"/>
      <point x="1069" y="131"/>
      <point x="1069" y="353" type="curve" smooth="yes"/>
      <point x="1069" y="356" type="line" smooth="yes"/>
      <point x="1069" y="579"/>
      <point x="946" y="702"/>
      <point x="702" y="702" type="curve" smooth="yes"/>
      <point x="502" y="702"/>
      <point x="376" y="604"/>
      <point x="340" y="485" type="curve"/>
      <point x="327" y="485" type="line"/>
      <point x="329" y="369" type="line"/>
      <point x="359" y="461"/>
      <point x="470" y="539"/>
      <point x="627" y="539" type="curve" smooth="yes"/>
      <point x="794" y="539"/>
      <point x="870" y="469"/>
      <point x="870" y="342" type="curve" smooth="yes"/>
      <point x="870" y="340" type="line" smooth="yes"/>
      <point x="870" y="218"/>
      <point x="793" y="134"/>
      <point x="625" y="134" type="curve" smooth="yes"/>
      <point x="428" y="134"/>
      <point x="340" y="244"/>
      <point x="340" y="412" type="curve"/>
      <point x="342" y="485" type="line"/>
      <point x="333" y="485" type="line"/>
      <point x="333" y="486"/>
      <point x="333" y="488"/>
      <point x="333" y="489" type="curve" smooth="yes"/>
      <point x="342" y="816"/>
      <point x="616" y="991"/>
      <point x="1144" y="991" type="curve" smooth="yes"/>
      <point x="1397" y="991"/>
      <point x="1573" y="963"/>
      <point x="1685" y="925" type="curve"/>
      <point x="1698" y="921" type="line"/>
      <point x="1914" y="857"/>
      <point x="1986" y="687"/>
      <point x="1986" y="499" type="curve" smooth="yes"/>
      <point x="1986" y="489" type="line" smooth="yes"/>
      <point x="1986" y="281"/>
      <point x="1919" y="145"/>
      <point x="1733" y="145" type="curve" smooth="yes"/>
      <point x="1544" y="145"/>
      <point x="1471" y="281"/>
      <point x="1471" y="489" type="curve" smooth="yes"/>
      <point x="1471" y="500" type="line" smooth="yes"/>
      <point x="1471" y="687"/>
      <point x="1544" y="857"/>
      <point x="1764" y="921" type="curve"/>
      <point x="1676" y="1026" type="line"/>
      <point x="1377" y="955"/>
      <point x="1264" y="727"/>
      <point x="1264" y="488" type="curve" smooth="yes"/>
      <point x="1264" y="477" type="line" smooth="yes"/>
      <point x="1264" y="182"/>
      <point x="1399" y="-24"/>
      <point x="1734" y="-24" type="curve" smooth="yes"/>
      <point x="2066" y="-24"/>
      <point x="2192" y="182"/>
      <point x="2192" y="477" type="curve" smooth="yes"/>
      <point x="2192" y="488" type="line" smooth="yes"/>
      <point x="2192" y="726"/>
      <point x="2082" y="935"/>
      <point x="1820" y="1036" type="curve"/>
      <point x="1818" y="1037" type="line"/>
      <point x="1674" y="1106"/>
      <point x="1463" y="1155"/>
    </contour>
  </outline>
</glyph>
<glyph name="NnnaMatraAa.tm" format="2">
  <advance width="3745"/>
  <outline>
    <contour>
      <point x="2955" y="1153" type="curve" smooth="yes"/>
      <point x="2689" y="1153"/>
      <point x="2488" y="1114"/>
      <point x="2345" y="1060" type="curve"/>
      <point x="2438" y="935" type="line"/>
      <point x="2564" y="974"/>
      <point x="2723" y="1005"/>
      <point x="2945" y="1005" type="curve" smooth="yes"/>
      <point x="3270" y="1005"/>
      <point x="3389" y="913"/>
      <point x="3389" y="768" type="curve" smooth="yes"/>
      <point x="3389" y="767" type="line" smooth="yes"/>
      <point x="3389" y="631"/>
      <point x="3311" y="556"/>
      <point x="3111" y="552" type="curve" smooth="yes"/>
      <point x="3000" y="550" type="line"/>
      <point x="3000" y="393" type="line"/>
      <point x="3099" y="392" type="line" smooth="yes"/>
      <point x="3313" y="388"/>
      <point x="3410" y="305"/>
      <point x="3410" y="122" type="curve" smooth="yes"/>
      <point x="3410" y="122" type="line" smooth="yes"/>
      <point x="3410" y="-278"/>
      <point x="2904" y="-482"/>
      <point x="2030" y="-482" type="curve" smooth="yes"/>
      <point x="2017" y="-482" type="line" smooth="yes"/>
      <point x="878" y="-482"/>
      <point x="368" y="-172"/>
      <point x="368" y="534" type="curve" smooth="yes"/>
      <point x="368" y="757"/>
      <point x="415" y="944"/>
      <point x="520" y="1121" type="curve"/>
      <point x="283" y="1121" type="line"/>
      <point x="205" y="984"/>
      <point x="157" y="769"/>
      <point x="157" y="533" type="curve" smooth="yes"/>
      <point x="157" y="-287"/>
      <point x="757" y="-656"/>
      <point x="2016" y="-656" type="curve" smooth="yes"/>
      <point x="2031" y="-656" type="line" smooth="yes"/>
      <point x="3055" y="-656"/>
      <point x="3621" y="-395"/>
      <point x="3621" y="124" type="curve" smooth="yes"/>
      <point x="3621" y="125" type="line" smooth="yes"/>
      <point x="3621" y="348"/>
      <point x="3500" y="466"/>
      <point x="3285" y="473" type="curve"/>
      <point x="3285" y="478" type="line"/>
      <point x="3485" y="493"/>
      <point x="3582" y="597"/>
      <point x="3582" y="781" type="curve" smooth="yes"/>
      <point x="3582" y="782" type="line" smooth="yes"/>
      <point x="3582" y="1015"/>
      <point x="3405" y="1153"/>
    </contour>
    <contour>
      <point x="1783" y="1155" type="curve" smooth="yes"/>
      <point x="1130" y="1155"/>
      <point x="788" y="907"/>
      <point x="788" y="486" type="curve" smooth="yes"/>
      <point x="788" y="477" type="line" smooth="yes"/>
      <point x="788" y="177"/>
      <point x="935" y="-24"/>
      <point x="1280" y="-24" type="curve" smooth="yes"/>
      <point x="1591" y="-24"/>
      <point x="1718" y="131"/>
      <point x="1718" y="353" type="curve" smooth="yes"/>
      <point x="1718" y="356" type="line" smooth="yes"/>
      <point x="1718" y="579"/>
      <point x="1595" y="702"/>
      <point x="1351" y="702" type="curve" smooth="yes"/>
      <point x="1151" y="702"/>
      <point x="1026" y="604"/>
      <point x="989" y="485" type="curve"/>
      <point x="976" y="485" type="line"/>
      <point x="978" y="369" type="line"/>
      <point x="1008" y="461"/>
      <point x="1119" y="539"/>
      <point x="1277" y="539" type="curve" smooth="yes"/>
      <point x="1443" y="539"/>
      <point x="1520" y="469"/>
      <point x="1520" y="342" type="curve" smooth="yes"/>
      <point x="1520" y="340" type="line" smooth="yes"/>
      <point x="1520" y="218"/>
      <point x="1442" y="134"/>
      <point x="1274" y="134" type="curve" smooth="yes"/>
      <point x="1078" y="134"/>
      <point x="990" y="244"/>
      <point x="990" y="412" type="curve"/>
      <point x="992" y="485" type="line"/>
      <point x="983" y="485" type="line"/>
      <point x="983" y="486"/>
      <point x="983" y="488"/>
      <point x="983" y="489" type="curve" smooth="yes"/>
      <point x="991" y="816"/>
      <point x="1265" y="991"/>
      <point x="1791" y="991" type="curve" smooth="yes"/>
      <point x="2045" y="991"/>
      <point x="2222" y="963"/>
      <point x="2335" y="925" type="curve"/>
      <point x="2347" y="921" type="line"/>
      <point x="2563" y="858"/>
      <point x="2636" y="688"/>
      <point x="2636" y="499" type="curve" smooth="yes"/>
      <point x="2636" y="489" type="line" smooth="yes"/>
      <point x="2636" y="281"/>
      <point x="2568" y="145"/>
      <point x="2382" y="145" type="curve" smooth="yes"/>
      <point x="2193" y="145"/>
      <point x="2120" y="281"/>
      <point x="2120" y="489" type="curve" smooth="yes"/>
      <point x="2120" y="500" type="line" smooth="yes"/>
      <point x="2120" y="688"/>
      <point x="2192" y="858"/>
      <point x="2411" y="921" type="curve"/>
      <point x="2317" y="1024" type="line"/>
      <point x="2026" y="956"/>
      <point x="1913" y="727"/>
      <point x="1913" y="488" type="curve" smooth="yes"/>
      <point x="1913" y="477" type="line" smooth="yes"/>
      <point x="1913" y="182"/>
      <point x="2049" y="-24"/>
      <point x="2384" y="-24" type="curve" smooth="yes"/>
      <point x="2714" y="-24"/>
      <point x="2841" y="182"/>
      <point x="2841" y="477" type="curve" smooth="yes"/>
      <point x="2841" y="488" type="line" smooth="yes"/>
      <point x="2841" y="728"/>
      <point x="2732" y="936"/>
      <point x="2469" y="1036" type="curve"/>
      <point x="2467" y="1037" type="line"/>
      <point x="2324" y="1106"/>
      <point x="2112" y="1155"/>
    </contour>
  </outline>
</glyph>
<glyph name="NoTail_NonExporting" format="2">
  <advance width="643"/>
  <outline>
    <contour>
      <point x="617" y="-237" type="line"/>
      <point x="-27" y="-237" type="line"/>
      <point x="6" y="-406" type="line"/>
      <point x="617" y="-406" type="line"/>
    </contour>
  </outline>
</glyph>
<glyph name="NyaMatraU.tm" format="2">
  <advance width="3077"/>
  <note>
NyaMatraU.tm
</note>
  <outline>
    <contour>
      <point x="1369" y="1069" type="line"/>
      <point x="1369" y="0" type="line"/>
      <point x="1574" y="0" type="line"/>
      <point x="1574" y="1069" type="line"/>
    </contour>
    <contour>
      <point x="1927" y="702" type="curve" smooth="yes"/>
      <point x="1731" y="702"/>
      <point x="1614" y="594"/>
      <point x="1582" y="449" type="curve"/>
      <point x="1545" y="449" type="line"/>
      <point x="1545" y="309" type="line"/>
      <point x="1561" y="309" type="line"/>
      <point x="1602" y="446"/>
      <point x="1706" y="521"/>
      <point x="1851" y="521" type="curve" smooth="yes"/>
      <point x="2043" y="521"/>
      <point x="2112" y="392"/>
      <point x="2112" y="143" type="curve" smooth="yes"/>
      <point x="2112" y="138" type="line" smooth="yes"/>
      <point x="2112" y="-19"/>
      <point x="2093" y="-176"/>
      <point x="2072" y="-266" type="curve"/>
      <point x="2067" y="-293" type="line"/>
      <point x="2011" y="-545"/>
      <point x="1771" y="-752"/>
      <point x="1200" y="-752" type="curve" smooth="yes"/>
      <point x="606" y="-752"/>
      <point x="355" y="-550"/>
      <point x="318" y="-370" type="curve"/>
      <point x="2878" y="-370" type="line"/>
      <point x="2878" y="-212" type="line"/>
      <point x="54" y="-212" type="line"/>
      <point x="80" y="-622"/>
      <point x="447" y="-922"/>
      <point x="1200" y="-922" type="curve" smooth="yes"/>
      <point x="1895" y="-922"/>
      <point x="2209" y="-653"/>
      <point x="2281" y="-301" type="curve"/>
      <point x="2286" y="-274" type="line"/>
      <point x="2305" y="-175"/>
      <point x="2322" y="-15"/>
      <point x="2322" y="147" type="curve" smooth="yes"/>
      <point x="2322" y="154" type="line" smooth="yes"/>
      <point x="2322" y="511"/>
      <point x="2208" y="702"/>
    </contour>
    <contour>
      <point x="2672" y="1120" type="line"/>
      <point x="2672" y="-370" type="line"/>
      <point x="2878" y="-370" type="line"/>
      <point x="2878" y="1120" type="line"/>
    </contour>
    <contour>
      <point x="1173" y="1121" type="line"/>
      <point x="1173" y="959" type="line"/>
      <point x="1744" y="959" type="line"/>
      <point x="1744" y="1121" type="line"/>
    </contour>
    <component base="VowelE_NonExporting" xOffset="19"/>
    <component base="RaBeak_Nonexporting" xOffset="1491"/>
  </outline>
</glyph>
<glyph name="Nya_Simple.tm" format="2">
  <advance width="3131"/>
  <note>
Nya.tm
</note>
  <anchor x="1649" y="1236" name="top"/>
  <outline>
    <contour>
      <point x="2061" y="1069" type="line"/>
      <point x="2061" y="0" type="line"/>
      <point x="2267" y="0" type="line"/>
      <point x="2267" y="1069" type="line"/>
    </contour>
    <contour>
      <point x="2626" y="702" type="curve" smooth="yes"/>
      <point x="2427" y="702"/>
      <point x="2307" y="594"/>
      <point x="2274" y="449" type="curve"/>
      <point x="2238" y="449" type="line"/>
      <point x="2238" y="309" type="line"/>
      <point x="2254" y="309" type="line"/>
      <point x="2295" y="446"/>
      <point x="2402" y="521"/>
      <point x="2551" y="521" type="curve" smooth="yes"/>
      <point x="2737" y="521"/>
      <point x="2811" y="420"/>
      <point x="2811" y="230" type="curve" smooth="yes"/>
      <point x="2811" y="222" type="line" smooth="yes"/>
      <point x="2811" y="-209"/>
      <point x="2463" y="-446"/>
      <point x="1704" y="-446" type="curve" smooth="yes"/>
      <point x="1697" y="-446" type="line" smooth="yes"/>
      <point x="813" y="-446"/>
      <point x="407" y="-129"/>
      <point x="407" y="529" type="curve" smooth="yes"/>
      <point x="407" y="1121" type="line"/>
      <point x="195" y="1121" type="line"/>
      <point x="195" y="527" type="line" smooth="yes"/>
      <point x="195" y="-240"/>
      <point x="687" y="-620"/>
      <point x="1697" y="-620" type="curve" smooth="yes"/>
      <point x="1704" y="-620" type="line" smooth="yes"/>
      <point x="2603" y="-620"/>
      <point x="3021" y="-314"/>
      <point x="3021" y="231" type="curve" smooth="yes"/>
      <point x="3021" y="241" type="line" smooth="yes"/>
      <point x="3021" y="539"/>
      <point x="2903" y="702"/>
    </contour>
    <contour>
      <point x="2400" y="1121" type="line"/>
      <point x="1668" y="1121" type="line"/>
      <point x="1668" y="959" type="line"/>
      <point x="2400" y="959" type="line"/>
    </contour>
    <component base="VowelE_NonExporting" xOffset="712"/>
    <component base="RaBeak_Nonexporting" xOffset="2184"/>
  </outline>
</glyph>
<glyph name="PaMatraI_Fly.tm" format="2">
  <advance width="1907"/>
  <outline>
    <contour>
      <point x="1496" y="1121" type="line"/>
      <point x="1496" y="170" type="line"/>
      <point x="947" y="170" type="line"/>
      <point x="947" y="0" type="line"/>
      <point x="1708" y="0" type="line"/>
      <point x="1708" y="1121" type="line"/>
    </contour>
    <contour>
      <point x="411" y="1121" type="line"/>
      <point x="199" y="1121" type="line"/>
      <point x="199" y="0" type="line"/>
      <point x="1180" y="0" type="line"/>
      <point x="1180" y="170" type="line"/>
      <point x="411" y="170" type="line"/>
    </contour>
    <contour>
      <point x="1825" y="1610" type="line"/>
      <point x="1294" y="1610" type="line" smooth="yes"/>
      <point x="1052" y="1610"/>
      <point x="941" y="1525"/>
      <point x="941" y="1333" type="curve" smooth="yes"/>
      <point x="941" y="1198"/>
      <point x="1009" y="1026"/>
      <point x="1064" y="939" type="curve" smooth="yes"/>
      <point x="1139" y="818"/>
      <point x="1194" y="780"/>
      <point x="1366" y="780" type="curve" smooth="yes"/>
      <point x="1508" y="780" type="line"/>
      <point x="1508" y="946" type="line"/>
      <point x="1401" y="946" type="line" smooth="yes"/>
      <point x="1318" y="946"/>
      <point x="1284" y="963"/>
      <point x="1246" y="1023" type="curve" smooth="yes"/>
      <point x="1200" y="1094"/>
      <point x="1147" y="1214"/>
      <point x="1147" y="1302" type="curve" smooth="yes"/>
      <point x="1147" y="1404"/>
      <point x="1208" y="1442"/>
      <point x="1348" y="1442" type="curve" smooth="yes"/>
      <point x="1854" y="1442" type="line"/>
    </contour>
  </outline>
</glyph>
<glyph name="PaMatraI_SimpleFly.tm" format="2">
  <advance width="1907"/>
  <note>
PaMatraI.tm
</note>
  <outline>
    <contour>
      <point x="1887" y="1610" type="line"/>
      <point x="1398" y="1610" type="line" smooth="yes"/>
      <point x="1178" y="1610"/>
      <point x="1077" y="1535"/>
      <point x="1077" y="1366" type="curve" smooth="yes"/>
      <point x="1077" y="1275"/>
      <point x="1114" y="1167"/>
      <point x="1153" y="1100" type="curve" smooth="yes"/>
      <point x="1215" y="994"/>
      <point x="1270" y="961"/>
      <point x="1413" y="961" type="curve" smooth="yes"/>
      <point x="1580" y="961" type="line"/>
      <point x="1580" y="1121" type="line"/>
      <point x="1449" y="1121" type="line" smooth="yes"/>
      <point x="1386" y="1121"/>
      <point x="1356" y="1136"/>
      <point x="1325" y="1189" type="curve" smooth="yes"/>
      <point x="1301" y="1230"/>
      <point x="1282" y="1282"/>
      <point x="1282" y="1326" type="curve" smooth="yes"/>
      <point x="1282" y="1411"/>
      <point x="1336" y="1443"/>
      <point x="1461" y="1443" type="curve" smooth="yes"/>
      <point x="1916" y="1443" type="line"/>
    </contour>
    <contour>
      <point x="1496" y="1121" type="line"/>
      <point x="1496" y="170" type="line"/>
      <point x="929" y="170" type="line"/>
      <point x="929" y="0" type="line"/>
      <point x="1708" y="0" type="line"/>
      <point x="1708" y="1121" type="line"/>
    </contour>
    <contour>
      <point x="411" y="1121" type="line"/>
      <point x="199" y="1121" type="line"/>
      <point x="199" y="0" type="line"/>
      <point x="1180" y="0" type="line"/>
      <point x="1180" y="170" type="line"/>
      <point x="411" y="170" type="line"/>
    </contour>
  </outline>
</glyph>
<glyph name="PaMatraIi.tm" format="2">
  <advance width="1907"/>
  <note>
PaMatraIi.tm
</note>
  <outline>
    <contour>
      <point x="411" y="1121" type="line"/>
      <point x="199" y="1121" type="line"/>
      <point x="199" y="0" type="line"/>
      <point x="1180" y="0" type="line"/>
      <point x="1180" y="170" type="line"/>
      <point x="411" y="170" type="line"/>
    </contour>
    <contour>
      <point x="1496" y="1121" type="line"/>
      <point x="1496" y="170" type="line"/>
      <point x="929" y="170" type="line"/>
      <point x="929" y="0" type="line"/>
      <point x="1708" y="0" type="line"/>
      <point x="1708" y="1121" type="line"/>
    </contour>
    <contour>
      <point x="1616" y="1891" type="curve" smooth="yes"/>
      <point x="1167" y="1891"/>
      <point x="929" y="1671"/>
      <point x="929" y="1298" type="curve" smooth="yes"/>
      <point x="929" y="1298" type="line" smooth="yes"/>
      <point x="929" y="916"/>
      <point x="1156" y="708"/>
      <point x="1514" y="683" type="curve"/>
      <point x="1514" y="850" type="line"/>
      <point x="1270" y="875"/>
      <point x="1123" y="1032"/>
      <point x="1123" y="1298" type="curve" smooth="yes"/>
      <point x="1123" y="1298" type="line" smooth="yes"/>
      <point x="1123" y="1567"/>
      <point x="1281" y="1712"/>
      <point x="1532" y="1736" type="curve"/>
      <point x="1532" y="1728" type="line"/>
      <point x="1568" y="1736"/>
      <point x="1613" y="1740"/>
      <point x="1659" y="1740" type="curve" smooth="yes"/>
      <point x="1832" y="1740"/>
      <point x="1907" y="1682"/>
      <point x="1907" y="1577" type="curve" smooth="yes"/>
      <point x="1907" y="1575" type="line" smooth="yes"/>
      <point x="1907" y="1479"/>
      <point x="1854" y="1429"/>
      <point x="1742" y="1429" type="curve" smooth="yes"/>
      <point x="1619" y="1429"/>
      <point x="1568" y="1492"/>
      <point x="1568" y="1595" type="curve" smooth="yes"/>
      <point x="1568" y="1596" type="line" smooth="yes"/>
      <point x="1568" y="1655"/>
      <point x="1581" y="1699"/>
      <point x="1601" y="1741" type="curve"/>
      <point x="1532" y="1737" type="line"/>
      <point x="1532" y="1730" type="line"/>
      <point x="1468" y="1705"/>
      <point x="1411" y="1648"/>
      <point x="1411" y="1545" type="curve" smooth="yes"/>
      <point x="1411" y="1543" type="line" smooth="yes"/>
      <point x="1411" y="1391"/>
      <point x="1514" y="1283"/>
      <point x="1745" y="1283" type="curve" smooth="yes"/>
      <point x="1970" y="1283"/>
      <point x="2085" y="1388"/>
      <point x="2085" y="1576" type="curve" smooth="yes"/>
      <point x="2085" y="1578" type="line" smooth="yes"/>
      <point x="2085" y="1774"/>
      <point x="1926" y="1891"/>
    </contour>
  </outline>
</glyph>
<glyph name="RaMatraU_Simple.tm" format="2">
  <advance width="2731"/>
  <note>
RaMatraU.tm
</note>
  <outline>
    <contour>
      <point x="1662" y="1069" type="line"/>
      <point x="1662" y="0" type="line"/>
      <point x="1868" y="0" type="line"/>
      <point x="1868" y="1069" type="line"/>
    </contour>
    <contour>
      <point x="2226" y="702" type="curve" smooth="yes"/>
      <point x="2027" y="702"/>
      <point x="1907" y="594"/>
      <point x="1875" y="449" type="curve"/>
      <point x="1839" y="449" type="line"/>
      <point x="1839" y="309" type="line"/>
      <point x="1854" y="309" type="line"/>
      <point x="1895" y="446"/>
      <point x="2002" y="521"/>
      <point x="2151" y="521" type="curve" smooth="yes"/>
      <point x="2337" y="521"/>
      <point x="2411" y="420"/>
      <point x="2411" y="228" type="curve" smooth="yes"/>
      <point x="2411" y="224" type="line" smooth="yes"/>
      <point x="2411" y="-188"/>
      <point x="2124" y="-402"/>
      <point x="1495" y="-402" type="curve" smooth="yes"/>
      <point x="1484" y="-402" type="line" smooth="yes"/>
      <point x="740" y="-402"/>
      <point x="406" y="-124"/>
      <point x="406" y="473" type="curve" smooth="yes"/>
      <point x="406" y="1121" type="line"/>
      <point x="195" y="1121" type="line"/>
      <point x="195" y="471" type="line" smooth="yes"/>
      <point x="195" y="-237"/>
      <point x="611" y="-576"/>
      <point x="1484" y="-576" type="curve" smooth="yes"/>
      <point x="1496" y="-576" type="line" smooth="yes"/>
      <point x="2255" y="-576"/>
      <point x="2622" y="-294"/>
      <point x="2622" y="233" type="curve" smooth="yes"/>
      <point x="2622" y="237" type="line" smooth="yes"/>
      <point x="2622" y="538"/>
      <point x="2503" y="702"/>
    </contour>
    <contour>
      <point x="2001" y="1121" type="line"/>
      <point x="943" y="1121" type="line"/>
      <point x="943" y="0" type="line"/>
      <point x="1149" y="0" type="line"/>
      <point x="1149" y="959" type="line"/>
      <point x="2001" y="959" type="line"/>
    </contour>
    <component base="RaBeak_Nonexporting" xOffset="1783"/>
  </outline>
</glyph>
<glyph name="RaMatraUu.tm" format="2">
  <advance width="3097"/>
  <note>
RaMatraUu.tm
</note>
  <outline>
    <contour>
      <point x="2028" y="1069" type="line"/>
      <point x="2028" y="0" type="line"/>
      <point x="2235" y="0" type="line"/>
      <point x="2235" y="1069" type="line"/>
    </contour>
    <contour>
      <point x="2594" y="702" type="curve" smooth="yes"/>
      <point x="2394" y="702"/>
      <point x="2274" y="594"/>
      <point x="2241" y="449" type="curve"/>
      <point x="2205" y="449" type="line"/>
      <point x="2205" y="309" type="line"/>
      <point x="2221" y="309" type="line"/>
      <point x="2262" y="446"/>
      <point x="2369" y="521"/>
      <point x="2518" y="521" type="curve" smooth="yes"/>
      <point x="2705" y="521"/>
      <point x="2778" y="419"/>
      <point x="2778" y="226" type="curve" smooth="yes"/>
      <point x="2778" y="222" type="line" smooth="yes"/>
      <point x="2778" y="-241"/>
      <point x="2450" y="-470"/>
      <point x="1719" y="-470" type="curve" smooth="yes"/>
      <point x="1687" y="-470" type="line" smooth="yes"/>
      <point x="787" y="-470"/>
      <point x="361" y="-180"/>
      <point x="356" y="535" type="curve" smooth="yes"/>
      <point x="356" y="544" type="line"/>
      <point x="356" y="555" type="line"/>
      <point x="356" y="847"/>
      <point x="458" y="984"/>
      <point x="643" y="984" type="curve" smooth="yes"/>
      <point x="797" y="984"/>
      <point x="870" y="897"/>
      <point x="870" y="747" type="curve" smooth="yes"/>
      <point x="870" y="744" type="line" smooth="yes"/>
      <point x="870" y="591"/>
      <point x="795" y="503"/>
      <point x="616" y="503" type="curve" smooth="yes"/>
      <point x="490" y="503"/>
      <point x="382" y="544"/>
      <point x="345" y="594" type="curve"/>
      <point x="339" y="594" type="line"/>
      <point x="339" y="544" type="line"/>
      <point x="361" y="544" type="line"/>
      <point x="422" y="395" type="line"/>
      <point x="463" y="372"/>
      <point x="547" y="343"/>
      <point x="668" y="343" type="curve" smooth="yes"/>
      <point x="947" y="343"/>
      <point x="1072" y="495"/>
      <point x="1072" y="740" type="curve" smooth="yes"/>
      <point x="1072" y="743" type="line" smooth="yes"/>
      <point x="1072" y="991"/>
      <point x="939" y="1149"/>
      <point x="653" y="1149" type="curve" smooth="yes"/>
      <point x="325" y="1149"/>
      <point x="152" y="948"/>
      <point x="152" y="523" type="curve" smooth="yes"/>
      <point x="152" y="503" type="line" smooth="yes"/>
      <point x="152" y="-278"/>
      <point x="670" y="-645"/>
      <point x="1690" y="-645" type="curve" smooth="yes"/>
      <point x="1717" y="-645" type="line" smooth="yes"/>
      <point x="2578" y="-645"/>
      <point x="2988" y="-349"/>
      <point x="2988" y="231" type="curve" smooth="yes"/>
      <point x="2988" y="235" type="line" smooth="yes"/>
      <point x="2988" y="537"/>
      <point x="2870" y="702"/>
    </contour>
    <contour>
      <point x="2369" y="1121" type="line"/>
      <point x="1308" y="1121" type="line"/>
      <point x="1308" y="0" type="line"/>
      <point x="1515" y="0" type="line"/>
      <point x="1515" y="959" type="line"/>
      <point x="2369" y="959" type="line"/>
    </contour>
    <component base="RaBeak_Nonexporting" xOffset="2151"/>
  </outline>
</glyph>
<glyph name="RraMatraIi_Simple.tm" format="2">
  <advance width="2067"/>
  <note>
RraMatraIi.tm
</note>
  <anchor x="1037" y="1236" name="top"/>
  <outline>
    <contour>
      <point x="1859" y="1891" type="curve" smooth="yes"/>
      <point x="1496" y="1891"/>
      <point x="1304" y="1735"/>
      <point x="1304" y="1451" type="curve" smooth="yes"/>
      <point x="1304" y="1451" type="line" smooth="yes"/>
      <point x="1304" y="1305"/>
      <point x="1356" y="1191"/>
      <point x="1405" y="1126" type="curve"/>
      <point x="1607" y="1121" type="line"/>
      <point x="1548" y="1194"/>
      <point x="1496" y="1309"/>
      <point x="1496" y="1437" type="curve" smooth="yes"/>
      <point x="1496" y="1437" type="line" smooth="yes"/>
      <point x="1496" y="1616"/>
      <point x="1599" y="1715"/>
      <point x="1775" y="1736" type="curve"/>
      <point x="1775" y="1728" type="line"/>
      <point x="1811" y="1736"/>
      <point x="1856" y="1740"/>
      <point x="1902" y="1740" type="curve" smooth="yes"/>
      <point x="2075" y="1740"/>
      <point x="2150" y="1682"/>
      <point x="2150" y="1577" type="curve" smooth="yes"/>
      <point x="2150" y="1575" type="line" smooth="yes"/>
      <point x="2150" y="1479"/>
      <point x="2097" y="1429"/>
      <point x="1985" y="1429" type="curve" smooth="yes"/>
      <point x="1862" y="1429"/>
      <point x="1811" y="1492"/>
      <point x="1811" y="1595" type="curve" smooth="yes"/>
      <point x="1811" y="1596" type="line" smooth="yes"/>
      <point x="1811" y="1655"/>
      <point x="1824" y="1699"/>
      <point x="1844" y="1741" type="curve"/>
      <point x="1775" y="1737" type="line"/>
      <point x="1775" y="1730" type="line"/>
      <point x="1711" y="1705"/>
      <point x="1654" y="1648"/>
      <point x="1654" y="1545" type="curve" smooth="yes"/>
      <point x="1654" y="1543" type="line" smooth="yes"/>
      <point x="1654" y="1391"/>
      <point x="1757" y="1283"/>
      <point x="1988" y="1283" type="curve" smooth="yes"/>
      <point x="2213" y="1283"/>
      <point x="2328" y="1388"/>
      <point x="2328" y="1576" type="curve" smooth="yes"/>
      <point x="2328" y="1578" type="line" smooth="yes"/>
      <point x="2328" y="1774"/>
      <point x="2169" y="1891"/>
    </contour>
    <component base="Rra_Simple.tm"/>
  </outline>
</glyph>
<glyph name="RraMatraU.tm" format="2">
  <advance width="2715"/>
  <note>
RraMatraU.tm
</note>
  <outline>
    <contour>
      <point x="2310" y="1121" type="line"/>
      <point x="2310" y="-370" type="line"/>
      <point x="2516" y="-370" type="line"/>
      <point x="2516" y="1121" type="line"/>
    </contour>
    <contour>
      <point x="1476" y="1145" type="curve" smooth="yes"/>
      <point x="1206" y="1145"/>
      <point x="1048" y="1031"/>
      <point x="1018" y="818" type="curve"/>
      <point x="1012" y="818" type="line"/>
      <point x="989" y="1029"/>
      <point x="871" y="1143"/>
      <point x="630" y="1143" type="curve" smooth="yes"/>
      <point x="350" y="1143"/>
      <point x="192" y="997"/>
      <point x="192" y="667" type="curve" smooth="yes"/>
      <point x="192" y="0" type="line"/>
      <point x="398" y="0" type="line"/>
      <point x="398" y="679" type="line" smooth="yes"/>
      <point x="398" y="886"/>
      <point x="496" y="974"/>
      <point x="657" y="974" type="curve" smooth="yes"/>
      <point x="830" y="974"/>
      <point x="906" y="890"/>
      <point x="906" y="679" type="curve" smooth="yes"/>
      <point x="906" y="0" type="line"/>
      <point x="1111" y="0" type="line"/>
      <point x="1111" y="653" type="line" smooth="yes"/>
      <point x="1111" y="889"/>
      <point x="1234" y="976"/>
      <point x="1435" y="976" type="curve" smooth="yes"/>
      <point x="1637" y="976"/>
      <point x="1711" y="890"/>
      <point x="1711" y="756" type="curve" smooth="yes"/>
      <point x="1711" y="755" type="line" smooth="yes"/>
      <point x="1711" y="619"/>
      <point x="1632" y="541"/>
      <point x="1433" y="536" type="curve" smooth="yes"/>
      <point x="1280" y="533" type="line"/>
      <point x="1280" y="378" type="line"/>
      <point x="1424" y="374" type="line" smooth="yes"/>
      <point x="1638" y="367"/>
      <point x="1735" y="245"/>
      <point x="1735" y="-15" type="curve" smooth="yes"/>
      <point x="1735" y="-16" type="line" smooth="yes"/>
      <point x="1735" y="-108"/>
      <point x="1723" y="-220"/>
      <point x="1711" y="-276" type="curve"/>
      <point x="1709" y="-316" type="line"/>
      <point x="1662" y="-549"/>
      <point x="1447" y="-711"/>
      <point x="1005" y="-711" type="curve" smooth="yes"/>
      <point x="511" y="-711"/>
      <point x="301" y="-542"/>
      <point x="271" y="-370" type="curve"/>
      <point x="2516" y="-370" type="line"/>
      <point x="2516" y="-212" type="line"/>
      <point x="20" y="-212" type="line"/>
      <point x="52" y="-611"/>
      <point x="351" y="-876"/>
      <point x="1005" y="-876" type="curve" smooth="yes"/>
      <point x="1582" y="-876"/>
      <point x="1858" y="-643"/>
      <point x="1918" y="-321" type="curve"/>
      <point x="1919" y="-289" type="line"/>
      <point x="1932" y="-225"/>
      <point x="1943" y="-109"/>
      <point x="1943" y="-13" type="curve" smooth="yes"/>
      <point x="1943" y="-12" type="line" smooth="yes"/>
      <point x="1943" y="284"/>
      <point x="1823" y="442"/>
      <point x="1607" y="457" type="curve"/>
      <point x="1607" y="462" type="line"/>
      <point x="1808" y="476"/>
      <point x="1904" y="587"/>
      <point x="1904" y="787" type="curve" smooth="yes"/>
      <point x="1904" y="788" type="line" smooth="yes"/>
      <point x="1904" y="1011"/>
      <point x="1774" y="1145"/>
    </contour>
  </outline>
</glyph>
<glyph name="SaMatraIi.tm" format="2">
  <advance width="3224"/>
  <note>
SaMatraIi.tm
</note>
  <outline>
    <contour>
      <point x="2452" y="1420" type="line"/>
      <point x="2452" y="1609"/>
      <point x="2558" y="1714"/>
      <point x="2738" y="1736" type="curve"/>
      <point x="2738" y="1728" type="line"/>
      <point x="2774" y="1736"/>
      <point x="2819" y="1740"/>
      <point x="2865" y="1740" type="curve" smooth="yes"/>
      <point x="3038" y="1740"/>
      <point x="3113" y="1682"/>
      <point x="3113" y="1577" type="curve" smooth="yes"/>
      <point x="3113" y="1575" type="line" smooth="yes"/>
      <point x="3113" y="1479"/>
      <point x="3060" y="1429"/>
      <point x="2948" y="1429" type="curve" smooth="yes"/>
      <point x="2825" y="1429"/>
      <point x="2774" y="1492"/>
      <point x="2774" y="1595" type="curve" smooth="yes"/>
      <point x="2774" y="1596" type="line" smooth="yes"/>
      <point x="2774" y="1655"/>
      <point x="2787" y="1699"/>
      <point x="2807" y="1741" type="curve"/>
      <point x="2738" y="1737" type="line"/>
      <point x="2738" y="1730" type="line"/>
      <point x="2674" y="1705"/>
      <point x="2617" y="1648"/>
      <point x="2617" y="1545" type="curve" smooth="yes"/>
      <point x="2617" y="1543" type="line" smooth="yes"/>
      <point x="2617" y="1391"/>
      <point x="2720" y="1283"/>
      <point x="2951" y="1283" type="curve" smooth="yes"/>
      <point x="3176" y="1283"/>
      <point x="3291" y="1388"/>
      <point x="3291" y="1576" type="curve" smooth="yes"/>
      <point x="3291" y="1578" type="line" smooth="yes"/>
      <point x="3291" y="1774"/>
      <point x="3132" y="1891"/>
      <point x="2822" y="1891" type="curve" smooth="yes"/>
      <point x="2453" y="1891"/>
      <point x="2257" y="1724"/>
      <point x="2257" y="1421" type="curve" smooth="yes"/>
      <point x="2257" y="1421" type="line"/>
      <point x="2257" y="1259"/>
      <point x="2316" y="1101"/>
      <point x="2404" y="975" type="curve"/>
      <point x="2428" y="979"/>
      <point x="2464" y="982"/>
      <point x="2493" y="982" type="curve" smooth="yes"/>
      <point x="2785" y="982"/>
      <point x="2869" y="828"/>
      <point x="2869" y="561" type="curve" smooth="yes"/>
      <point x="2869" y="549" type="line" smooth="yes"/>
      <point x="2869" y="285"/>
      <point x="2790" y="147"/>
      <point x="2579" y="147" type="curve" smooth="yes"/>
      <point x="2362" y="147"/>
      <point x="2277" y="263"/>
      <point x="2277" y="533" type="curve" smooth="yes"/>
      <point x="2277" y="681" type="line" smooth="yes"/>
      <point x="2277" y="1006"/>
      <point x="2148" y="1148"/>
      <point x="1876" y="1148" type="curve" smooth="yes"/>
      <point x="1617" y="1148"/>
      <point x="1478" y="1023"/>
      <point x="1478" y="748" type="curve" smooth="yes"/>
      <point x="1478" y="726" type="line"/>
      <point x="1471" y="726" type="line"/>
      <point x="1438" y="983"/>
      <point x="1256" y="1149"/>
      <point x="863" y="1149" type="curve" smooth="yes"/>
      <point x="384" y="1149"/>
      <point x="147" y="908"/>
      <point x="147" y="491" type="curve" smooth="yes"/>
      <point x="147" y="477" type="line" smooth="yes"/>
      <point x="147" y="177"/>
      <point x="294" y="-24"/>
      <point x="639" y="-24" type="curve" smooth="yes"/>
      <point x="950" y="-24"/>
      <point x="1077" y="131"/>
      <point x="1077" y="353" type="curve" smooth="yes"/>
      <point x="1077" y="356" type="line" smooth="yes"/>
      <point x="1077" y="579"/>
      <point x="954" y="702"/>
      <point x="710" y="702" type="curve" smooth="yes"/>
      <point x="509" y="702"/>
      <point x="382" y="604"/>
      <point x="346" y="485" type="curve"/>
      <point x="335" y="485" type="line"/>
      <point x="337" y="369" type="line"/>
      <point x="367" y="461"/>
      <point x="478" y="539"/>
      <point x="635" y="539" type="curve" smooth="yes"/>
      <point x="802" y="539"/>
      <point x="878" y="469"/>
      <point x="878" y="342" type="curve" smooth="yes"/>
      <point x="878" y="340" type="line" smooth="yes"/>
      <point x="878" y="218"/>
      <point x="801" y="134"/>
      <point x="633" y="134" type="curve" smooth="yes"/>
      <point x="436" y="134"/>
      <point x="348" y="244"/>
      <point x="348" y="412" type="curve"/>
      <point x="348" y="485" type="line"/>
      <point x="341" y="485" type="line"/>
      <point x="341" y="489"/>
      <point x="341" y="491"/>
      <point x="341" y="495" type="curve" smooth="yes"/>
      <point x="346" y="812"/>
      <point x="517" y="978"/>
      <point x="873" y="978" type="curve" smooth="yes"/>
      <point x="1255" y="978"/>
      <point x="1385" y="801"/>
      <point x="1385" y="470" type="curve" smooth="yes"/>
      <point x="1385" y="0" type="line"/>
      <point x="1591" y="0" type="line"/>
      <point x="1591" y="680" type="line" smooth="yes"/>
      <point x="1591" y="896"/>
      <point x="1684" y="980"/>
      <point x="1836" y="980" type="curve" smooth="yes"/>
      <point x="2005" y="980"/>
      <point x="2071" y="894"/>
      <point x="2071" y="668" type="curve" smooth="yes"/>
      <point x="2071" y="528" type="line" smooth="yes"/>
      <point x="2071" y="151"/>
      <point x="2219" y="-23"/>
      <point x="2579" y="-23" type="curve" smooth="yes"/>
      <point x="2933" y="-23"/>
      <point x="3079" y="172"/>
      <point x="3079" y="545" type="curve" smooth="yes"/>
      <point x="3079" y="557" type="line" smooth="yes"/>
      <point x="3079" y="914"/>
      <point x="2958" y="1142"/>
      <point x="2572" y="1142" type="curve" smooth="yes"/>
      <point x="2517" y="1142"/>
      <point x="2449" y="1130"/>
      <point x="2409" y="1116" type="curve"/>
      <point x="2587" y="1070" type="line"/>
      <point x="2509" y="1156"/>
      <point x="2452" y="1277"/>
      <point x="2452" y="1420" type="curve" smooth="yes"/>
    </contour>
  </outline>
</glyph>
<glyph name="SaMatraIi_SimpleIi.tm" format="2">
  <advance width="3224"/>
  <note>
SaMatraIi.tm
</note>
  <outline>
    <contour>
      <point x="863" y="1149" type="curve" smooth="yes"/>
      <point x="384" y="1149"/>
      <point x="147" y="908"/>
      <point x="147" y="491" type="curve" smooth="yes"/>
      <point x="147" y="477" type="line" smooth="yes"/>
      <point x="147" y="177"/>
      <point x="294" y="-24"/>
      <point x="639" y="-24" type="curve" smooth="yes"/>
      <point x="950" y="-24"/>
      <point x="1077" y="131"/>
      <point x="1077" y="353" type="curve" smooth="yes"/>
      <point x="1077" y="356" type="line" smooth="yes"/>
      <point x="1077" y="579"/>
      <point x="954" y="702"/>
      <point x="710" y="702" type="curve" smooth="yes"/>
      <point x="509" y="702"/>
      <point x="382" y="604"/>
      <point x="346" y="485" type="curve"/>
      <point x="335" y="485" type="line"/>
      <point x="337" y="369" type="line"/>
      <point x="367" y="461"/>
      <point x="478" y="539"/>
      <point x="635" y="539" type="curve" smooth="yes"/>
      <point x="802" y="539"/>
      <point x="878" y="469"/>
      <point x="878" y="342" type="curve" smooth="yes"/>
      <point x="878" y="340" type="line" smooth="yes"/>
      <point x="878" y="218"/>
      <point x="801" y="134"/>
      <point x="633" y="134" type="curve" smooth="yes"/>
      <point x="436" y="134"/>
      <point x="348" y="244"/>
      <point x="348" y="412" type="curve"/>
      <point x="348" y="485" type="line"/>
      <point x="341" y="485" type="line"/>
      <point x="341" y="489"/>
      <point x="341" y="491"/>
      <point x="341" y="495" type="curve" smooth="yes"/>
      <point x="346" y="812"/>
      <point x="517" y="978"/>
      <point x="873" y="978" type="curve" smooth="yes"/>
      <point x="1255" y="978"/>
      <point x="1385" y="801"/>
      <point x="1385" y="470" type="curve" smooth="yes"/>
      <point x="1385" y="0" type="line"/>
      <point x="1591" y="0" type="line"/>
      <point x="1591" y="680" type="line" smooth="yes"/>
      <point x="1591" y="896"/>
      <point x="1684" y="979"/>
      <point x="1836" y="979" type="curve" smooth="yes"/>
      <point x="2005" y="979"/>
      <point x="2071" y="894"/>
      <point x="2071" y="668" type="curve" smooth="yes"/>
      <point x="2071" y="528" type="line" smooth="yes"/>
      <point x="2071" y="151"/>
      <point x="2219" y="-23"/>
      <point x="2579" y="-23" type="curve" smooth="yes"/>
      <point x="2933" y="-23"/>
      <point x="3079" y="172"/>
      <point x="3079" y="546" type="curve" smooth="yes"/>
      <point x="3079" y="558" type="line" smooth="yes"/>
      <point x="3079" y="915"/>
      <point x="2959" y="1143"/>
      <point x="2578" y="1143" type="curve" smooth="yes"/>
      <point x="2522" y="1143"/>
      <point x="2452" y="1130"/>
      <point x="2411" y="1115" type="curve"/>
      <point x="2581" y="1116" type="line"/>
      <point x="2581" y="1444" type="line"/>
      <point x="2581" y="1448" type="line"/>
      <point x="2581" y="1481" type="line" smooth="yes"/>
      <point x="2581" y="1637"/>
      <point x="2667" y="1708"/>
      <point x="2835" y="1708" type="curve" smooth="yes"/>
      <point x="2983" y="1708"/>
      <point x="3059" y="1656"/>
      <point x="3059" y="1561" type="curve" smooth="yes"/>
      <point x="3059" y="1558" type="line" smooth="yes"/>
      <point x="3059" y="1462"/>
      <point x="2997" y="1415"/>
      <point x="2842" y="1415" type="curve" smooth="yes"/>
      <point x="2705" y="1415"/>
      <point x="2621" y="1454"/>
      <point x="2577" y="1499" type="curve"/>
      <point x="2572" y="1499" type="line"/>
      <point x="2572" y="1443" type="line"/>
      <point x="2585" y="1443" type="line"/>
      <point x="2647" y="1319" type="line"/>
      <point x="2687" y="1298"/>
      <point x="2778" y="1274"/>
      <point x="2893" y="1274" type="curve" smooth="yes"/>
      <point x="3141" y="1274"/>
      <point x="3244" y="1372"/>
      <point x="3244" y="1558" type="curve" smooth="yes"/>
      <point x="3244" y="1561" type="line" smooth="yes"/>
      <point x="3244" y="1751"/>
      <point x="3114" y="1856"/>
      <point x="2842" y="1856" type="curve" smooth="yes"/>
      <point x="2528" y="1856"/>
      <point x="2395" y="1720"/>
      <point x="2395" y="1461" type="curve" smooth="yes"/>
      <point x="2395" y="973" type="line"/>
      <point x="2423" y="978"/>
      <point x="2465" y="982"/>
      <point x="2500" y="982" type="curve" smooth="yes"/>
      <point x="2788" y="982"/>
      <point x="2869" y="828"/>
      <point x="2869" y="562" type="curve" smooth="yes"/>
      <point x="2869" y="550" type="line" smooth="yes"/>
      <point x="2869" y="285"/>
      <point x="2791" y="147"/>
      <point x="2579" y="147" type="curve" smooth="yes"/>
      <point x="2362" y="147"/>
      <point x="2277" y="263"/>
      <point x="2277" y="533" type="curve" smooth="yes"/>
      <point x="2277" y="681" type="line" smooth="yes"/>
      <point x="2277" y="1006"/>
      <point x="2148" y="1148"/>
      <point x="1876" y="1148" type="curve" smooth="yes"/>
      <point x="1617" y="1148"/>
      <point x="1478" y="1023"/>
      <point x="1478" y="748" type="curve" smooth="yes"/>
      <point x="1478" y="726" type="line"/>
      <point x="1471" y="726" type="line"/>
      <point x="1438" y="984"/>
      <point x="1256" y="1149"/>
    </contour>
  </outline>
</glyph>
<glyph name="SaMatraU.tm" format="2">
  <advance width="4314"/>
  <note>
SaMatraU.tm
</note>
  <outline>
    <contour>
      <point x="3102" y="1121" type="line"/>
      <point x="2743" y="1121" type="line"/>
      <point x="2760" y="958" type="line"/>
      <point x="3102" y="958" type="line"/>
    </contour>
    <contour>
      <point x="863" y="1149" type="curve" smooth="yes"/>
      <point x="384" y="1149"/>
      <point x="147" y="908"/>
      <point x="147" y="491" type="curve" smooth="yes"/>
      <point x="147" y="477" type="line" smooth="yes"/>
      <point x="147" y="177"/>
      <point x="294" y="-24"/>
      <point x="639" y="-24" type="curve" smooth="yes"/>
      <point x="950" y="-24"/>
      <point x="1077" y="131"/>
      <point x="1077" y="353" type="curve" smooth="yes"/>
      <point x="1077" y="356" type="line" smooth="yes"/>
      <point x="1077" y="579"/>
      <point x="954" y="702"/>
      <point x="710" y="702" type="curve" smooth="yes"/>
      <point x="510" y="702"/>
      <point x="384" y="604"/>
      <point x="348" y="485" type="curve"/>
      <point x="335" y="485" type="line"/>
      <point x="337" y="369" type="line"/>
      <point x="367" y="461"/>
      <point x="478" y="539"/>
      <point x="635" y="539" type="curve" smooth="yes"/>
      <point x="802" y="539"/>
      <point x="878" y="469"/>
      <point x="878" y="342" type="curve" smooth="yes"/>
      <point x="878" y="340" type="line" smooth="yes"/>
      <point x="878" y="218"/>
      <point x="801" y="134"/>
      <point x="633" y="134" type="curve" smooth="yes"/>
      <point x="436" y="134"/>
      <point x="348" y="244"/>
      <point x="348" y="412" type="curve"/>
      <point x="350" y="485" type="line"/>
      <point x="341" y="485" type="line"/>
      <point x="341" y="489"/>
      <point x="341" y="491"/>
      <point x="341" y="495" type="curve" smooth="yes"/>
      <point x="346" y="812"/>
      <point x="517" y="978"/>
      <point x="873" y="978" type="curve" smooth="yes"/>
      <point x="1255" y="978"/>
      <point x="1385" y="801"/>
      <point x="1385" y="470" type="curve" smooth="yes"/>
      <point x="1385" y="0" type="line"/>
      <point x="1591" y="0" type="line"/>
      <point x="1591" y="680" type="line" smooth="yes"/>
      <point x="1591" y="895"/>
      <point x="1684" y="979"/>
      <point x="1836" y="979" type="curve" smooth="yes"/>
      <point x="2005" y="979"/>
      <point x="2071" y="894"/>
      <point x="2071" y="668" type="curve" smooth="yes"/>
      <point x="2071" y="524" type="line" smooth="yes"/>
      <point x="2071" y="149"/>
      <point x="2220" y="-23"/>
      <point x="2579" y="-23" type="curve" smooth="yes"/>
      <point x="2934" y="-23"/>
      <point x="3079" y="171"/>
      <point x="3079" y="545" type="curve" smooth="yes"/>
      <point x="3079" y="557" type="line" smooth="yes"/>
      <point x="3079" y="771"/>
      <point x="3031" y="937"/>
      <point x="2875" y="1021" type="curve"/>
      <point x="2863" y="1066" type="line"/>
      <point x="2791" y="1120"/>
      <point x="2691" y="1149"/>
      <point x="2552" y="1149" type="curve" smooth="yes"/>
      <point x="2509" y="1149"/>
      <point x="2468" y="1145"/>
      <point x="2437" y="1140" type="curve"/>
      <point x="2398" y="968" type="line"/>
      <point x="2430" y="973"/>
      <point x="2464" y="976"/>
      <point x="2506" y="976" type="curve" smooth="yes"/>
      <point x="2796" y="976"/>
      <point x="2869" y="824"/>
      <point x="2869" y="558" type="curve" smooth="yes"/>
      <point x="2869" y="546" type="line" smooth="yes"/>
      <point x="2869" y="285"/>
      <point x="2791" y="147"/>
      <point x="2579" y="147" type="curve" smooth="yes"/>
      <point x="2362" y="147"/>
      <point x="2277" y="262"/>
      <point x="2277" y="528" type="curve" smooth="yes"/>
      <point x="2277" y="681" type="line" smooth="yes"/>
      <point x="2277" y="1006"/>
      <point x="2148" y="1148"/>
      <point x="1876" y="1148" type="curve" smooth="yes"/>
      <point x="1617" y="1148"/>
      <point x="1478" y="1022"/>
      <point x="1478" y="748" type="curve" smooth="yes"/>
      <point x="1478" y="726" type="line"/>
      <point x="1471" y="726" type="line"/>
      <point x="1438" y="983"/>
      <point x="1256" y="1149"/>
    </contour>
    <component base="MatraUDflt.tm" xOffset="2909"/>
  </outline>
</glyph>
<glyph name="Shree.tm" format="2">
  <advance width="4682"/>
  <note>
Shree.tm
</note>
  <outline>
    <contour>
      <point x="1117" y="1121" type="line"/>
      <point x="906" y="1121" type="line"/>
      <point x="906" y="0" type="line"/>
      <point x="2326" y="0" type="line"/>
      <point x="2326" y="170" type="line"/>
      <point x="1117" y="170" type="line"/>
    </contour>
    <contour>
      <point x="3607" y="1068" type="line"/>
      <point x="3607" y="0" type="line"/>
      <point x="3813" y="0" type="line"/>
      <point x="3813" y="1068" type="line"/>
    </contour>
    <contour>
      <point x="270" y="1121" type="line"/>
      <point x="202" y="988"/>
      <point x="155" y="787"/>
      <point x="155" y="563" type="curve" smooth="yes"/>
      <point x="155" y="-350"/>
      <point x="811" y="-701"/>
      <point x="2482" y="-701" type="curve" smooth="yes"/>
      <point x="2545" y="-701" type="line" smooth="yes"/>
      <point x="3913" y="-701"/>
      <point x="4571" y="-403"/>
      <point x="4571" y="228" type="curve" smooth="yes"/>
      <point x="4571" y="232" type="line" smooth="yes"/>
      <point x="4571" y="539"/>
      <point x="4450" y="702"/>
      <point x="4169" y="702" type="curve" smooth="yes"/>
      <point x="3971" y="702"/>
      <point x="3852" y="595"/>
      <point x="3819" y="449" type="curve"/>
      <point x="3783" y="449" type="line"/>
      <point x="3783" y="309" type="line"/>
      <point x="3799" y="309" type="line"/>
      <point x="3840" y="447"/>
      <point x="3946" y="522"/>
      <point x="4094" y="522" type="curve" smooth="yes"/>
      <point x="4285" y="522"/>
      <point x="4360" y="419"/>
      <point x="4360" y="223" type="curve" smooth="yes"/>
      <point x="4360" y="219" type="line" smooth="yes"/>
      <point x="4360" y="-289"/>
      <point x="3779" y="-529"/>
      <point x="2547" y="-529" type="curve" smooth="yes"/>
      <point x="2477" y="-529" type="line" smooth="yes"/>
      <point x="936" y="-529"/>
      <point x="367" y="-245"/>
      <point x="367" y="565" type="curve" smooth="yes"/>
      <point x="367" y="776"/>
      <point x="407" y="950"/>
      <point x="496" y="1121" type="curve"/>
    </contour>
    <contour>
      <point x="4006" y="1121" type="line"/>
      <point x="2961" y="1121" type="line"/>
      <point x="2964" y="886" type="line"/>
      <point x="2956" y="886" type="line"/>
      <point x="2930" y="1053"/>
      <point x="2824" y="1144"/>
      <point x="2610" y="1144" type="curve" smooth="yes"/>
      <point x="2339" y="1144"/>
      <point x="2186" y="1001"/>
      <point x="2186" y="678" type="curve" smooth="yes"/>
      <point x="2186" y="0" type="line"/>
      <point x="2397" y="0" type="line"/>
      <point x="2397" y="690" type="line" smooth="yes"/>
      <point x="2397" y="890"/>
      <point x="2492" y="976"/>
      <point x="2648" y="976" type="curve" smooth="yes"/>
      <point x="2815" y="976"/>
      <point x="2888" y="886"/>
      <point x="2888" y="664" type="curve" smooth="yes"/>
      <point x="2888" y="0" type="line"/>
      <point x="3094" y="0" type="line"/>
      <point x="3094" y="959" type="line"/>
      <point x="4006" y="959" type="line"/>
    </contour>
    <component base="MatraIiDflt.tm" xOffset="3503"/>
    <component base="RaBeak_Nonexporting" xOffset="3730"/>
  </outline>
</glyph>
<glyph name="Shree_SimpleIi.tm" format="2">
  <advance width="4722"/>
  <outline>
    <contour>
      <point x="1157" y="1121" type="line"/>
      <point x="946" y="1121" type="line"/>
      <point x="946" y="0" type="line"/>
      <point x="2366" y="0" type="line"/>
      <point x="2366" y="170" type="line"/>
      <point x="1157" y="170" type="line"/>
    </contour>
    <contour>
      <point x="3647" y="1068" type="line"/>
      <point x="3647" y="0" type="line"/>
      <point x="3853" y="0" type="line"/>
      <point x="3853" y="1068" type="line"/>
    </contour>
    <contour>
      <point x="195" y="1121" type="line"/>
      <point x="195" y="563" type="line"/>
      <point x="195" y="-350"/>
      <point x="851" y="-701"/>
      <point x="2522" y="-701" type="curve" smooth="yes"/>
      <point x="2585" y="-701" type="line" smooth="yes"/>
      <point x="3953" y="-701"/>
      <point x="4611" y="-403"/>
      <point x="4611" y="228" type="curve" smooth="yes"/>
      <point x="4611" y="232" type="line" smooth="yes"/>
      <point x="4611" y="539"/>
      <point x="4490" y="702"/>
      <point x="4209" y="702" type="curve" smooth="yes"/>
      <point x="4011" y="702"/>
      <point x="3892" y="595"/>
      <point x="3859" y="449" type="curve"/>
      <point x="3823" y="449" type="line"/>
      <point x="3823" y="309" type="line"/>
      <point x="3839" y="309" type="line"/>
      <point x="3880" y="447"/>
      <point x="3986" y="522"/>
      <point x="4134" y="522" type="curve" smooth="yes"/>
      <point x="4325" y="522"/>
      <point x="4400" y="419"/>
      <point x="4400" y="223" type="curve" smooth="yes"/>
      <point x="4400" y="219" type="line" smooth="yes"/>
      <point x="4400" y="-289"/>
      <point x="3819" y="-529"/>
      <point x="2587" y="-529" type="curve" smooth="yes"/>
      <point x="2517" y="-529" type="line" smooth="yes"/>
      <point x="976" y="-529"/>
      <point x="407" y="-245"/>
      <point x="407" y="565" type="curve"/>
      <point x="407" y="1121" type="line"/>
    </contour>
    <contour>
      <point x="4032" y="1121" type="line"/>
      <point x="3001" y="1121" type="line"/>
      <point x="3004" y="886" type="line"/>
      <point x="2996" y="886" type="line"/>
      <point x="2970" y="1053"/>
      <point x="2864" y="1144"/>
      <point x="2650" y="1144" type="curve" smooth="yes"/>
      <point x="2379" y="1144"/>
      <point x="2226" y="1001"/>
      <point x="2226" y="678" type="curve" smooth="yes"/>
      <point x="2226" y="0" type="line"/>
      <point x="2437" y="0" type="line"/>
      <point x="2437" y="690" type="line" smooth="yes"/>
      <point x="2437" y="890"/>
      <point x="2532" y="976"/>
      <point x="2688" y="976" type="curve" smooth="yes"/>
      <point x="2855" y="976"/>
      <point x="2928" y="886"/>
      <point x="2928" y="664" type="curve" smooth="yes"/>
      <point x="2928" y="0" type="line"/>
      <point x="3134" y="0" type="line"/>
      <point x="3134" y="959" type="line"/>
      <point x="4032" y="959" type="line"/>
    </contour>
    <component base="MatraIiDflt_SimpleIi.tm" xOffset="3529"/>
    <component base="RaBeak_Nonexporting" xOffset="3770"/>
  </outline>
</glyph>
<glyph name="SsaMatraI_Simple.tm" format="2">
  <advance width="3818"/>
  <note>
SsaMatraI.tm
</note>
  <anchor x="1767" y="1236" name="top"/>
  <outline>
    <contour>
      <point x="3018" y="1783" type="curve" smooth="yes"/>
      <point x="2654" y="1783"/>
      <point x="2431" y="1603"/>
      <point x="2431" y="1297" type="curve" smooth="yes"/>
      <point x="2431" y="1297" type="line" smooth="yes"/>
      <point x="2431" y="1222"/>
      <point x="2450" y="1147"/>
      <point x="2476" y="1102" type="curve"/>
      <point x="2672" y="1102" type="line"/>
      <point x="2649" y="1142"/>
      <point x="2631" y="1205"/>
      <point x="2631" y="1273" type="curve" smooth="yes"/>
      <point x="2631" y="1273" type="line" smooth="yes"/>
      <point x="2631" y="1495"/>
      <point x="2782" y="1613"/>
      <point x="3018" y="1613" type="curve" smooth="yes"/>
      <point x="3292" y="1613"/>
      <point x="3413" y="1485"/>
      <point x="3413" y="1178" type="curve" smooth="yes"/>
      <point x="3413" y="0" type="line"/>
      <point x="3619" y="0" type="line"/>
      <point x="3619" y="1169" type="line" smooth="yes"/>
      <point x="3619" y="1595"/>
      <point x="3437" y="1783"/>
    </contour>
    <component base="Ssa_Simple.tm"/>
  </outline>
</glyph>
<glyph name="SsaMatraIi_Simple_SimpleIi.tm" format="2">
  <advance width="3245"/>
  <note>
SsaMatraIi.tm
</note>
  <anchor x="1767" y="1236" name="top"/>
  <outline>
    <contour>
      <point x="2752" y="1856" type="curve" smooth="yes"/>
      <point x="2438" y="1856"/>
      <point x="2305" y="1719"/>
      <point x="2305" y="1463" type="curve" smooth="yes"/>
      <point x="2305" y="1463" type="line" smooth="yes"/>
      <point x="2305" y="1309"/>
      <point x="2354" y="1198"/>
      <point x="2426" y="1130" type="curve"/>
      <point x="2621" y="1130" type="line"/>
      <point x="2536" y="1205"/>
      <point x="2492" y="1319"/>
      <point x="2492" y="1444" type="curve" smooth="yes"/>
      <point x="2492" y="1448" type="line"/>
      <point x="2492" y="1481" type="line" smooth="yes"/>
      <point x="2492" y="1637"/>
      <point x="2577" y="1708"/>
      <point x="2745" y="1708" type="curve" smooth="yes"/>
      <point x="2894" y="1708"/>
      <point x="2970" y="1656"/>
      <point x="2970" y="1561" type="curve" smooth="yes"/>
      <point x="2970" y="1558" type="line" smooth="yes"/>
      <point x="2970" y="1462"/>
      <point x="2908" y="1415"/>
      <point x="2753" y="1415" type="curve" smooth="yes"/>
      <point x="2616" y="1415"/>
      <point x="2532" y="1454"/>
      <point x="2487" y="1499" type="curve"/>
      <point x="2483" y="1499" type="line"/>
      <point x="2483" y="1443" type="line"/>
      <point x="2495" y="1443" type="line"/>
      <point x="2558" y="1319" type="line"/>
      <point x="2598" y="1298"/>
      <point x="2688" y="1274"/>
      <point x="2804" y="1274" type="curve" smooth="yes"/>
      <point x="3051" y="1274"/>
      <point x="3155" y="1372"/>
      <point x="3155" y="1558" type="curve" smooth="yes"/>
      <point x="3155" y="1561" type="line" smooth="yes"/>
      <point x="3155" y="1751"/>
      <point x="3025" y="1856"/>
    </contour>
    <component base="Ssa_Simple.tm"/>
  </outline>
</glyph>
<glyph name="SsaMatraUu_Simple_SimpleUu.tm" format="2">
  <advance width="4816"/>
  <note>
SsaMatraUu.tm
</note>
  <outline>
    <contour>
      <point x="1557" y="163" type="line"/>
      <point x="1557" y="0" type="line"/>
      <point x="3207" y="0" type="line"/>
      <point x="3233" y="163" type="line"/>
      <point x="2544" y="163" type="line"/>
      <point x="2479" y="134" type="line"/>
      <point x="2409" y="163" type="line"/>
    </contour>
    <contour>
      <point x="2478" y="1148" type="curve" smooth="yes"/>
      <point x="2114" y="1148"/>
      <point x="1942" y="951"/>
      <point x="1942" y="640" type="curve" smooth="yes"/>
      <point x="1942" y="627" type="line" smooth="yes"/>
      <point x="1942" y="341"/>
      <point x="2075" y="135"/>
      <point x="2419" y="51" type="curve"/>
      <point x="2504" y="133" type="line"/>
      <point x="2245" y="193"/>
      <point x="2153" y="370"/>
      <point x="2153" y="591" type="curve" smooth="yes"/>
      <point x="2153" y="603" type="line" smooth="yes"/>
      <point x="2153" y="831"/>
      <point x="2250" y="974"/>
      <point x="2478" y="974" type="curve" smooth="yes"/>
      <point x="2707" y="974"/>
      <point x="2803" y="831"/>
      <point x="2803" y="603" type="curve" smooth="yes"/>
      <point x="2803" y="591" type="line" smooth="yes"/>
      <point x="2803" y="370"/>
      <point x="2711" y="193"/>
      <point x="2453" y="133" type="curve"/>
      <point x="2538" y="51" type="line"/>
      <point x="2882" y="133"/>
      <point x="3015" y="343"/>
      <point x="3015" y="615" type="curve" smooth="yes"/>
      <point x="3015" y="626" type="line" smooth="yes"/>
      <point x="3015" y="805"/>
      <point x="2952" y="947"/>
      <point x="2806" y="1018" type="curve"/>
      <point x="2809" y="1051" type="line"/>
      <point x="2730" y="1114"/>
      <point x="2621" y="1148"/>
    </contour>
    <contour>
      <point x="3026" y="1121" type="line"/>
      <point x="2644" y="1121" type="line"/>
      <point x="2687" y="958" type="line"/>
      <point x="3026" y="958" type="line"/>
    </contour>
    <component base="Va_NonExporting" xOffset="13"/>
    <component base="MatraUuDflt_Simple.tm" xOffset="2812"/>
    <component base="Ssa_Below_Simple_NonExporting" xOffset="2065"/>
  </outline>
</glyph>
<glyph name="TaMatraU.tm" format="2">
  <advance width="2614"/>
  <note>
TaMatraU.tm
</note>
  <outline>
    <contour>
      <point x="2208" y="1121" type="line"/>
      <point x="2208" y="-370" type="line"/>
      <point x="2415" y="-370" type="line"/>
      <point x="2415" y="1121" type="line"/>
    </contour>
    <contour>
      <point x="1180" y="519" type="line"/>
      <point x="1207" y="519" type="line" smooth="yes"/>
      <point x="1523" y="519"/>
      <point x="1663" y="378"/>
      <point x="1663" y="23" type="curve" smooth="yes"/>
      <point x="1663" y="19" type="line" smooth="yes"/>
      <point x="1663" y="-82"/>
      <point x="1650" y="-200"/>
      <point x="1635" y="-265" type="curve"/>
      <point x="1629" y="-312" type="line"/>
      <point x="1577" y="-537"/>
      <point x="1375" y="-692"/>
      <point x="946" y="-692" type="curve" smooth="yes"/>
      <point x="495" y="-692"/>
      <point x="292" y="-537"/>
      <point x="262" y="-370" type="curve"/>
      <point x="2415" y="-370" type="line"/>
      <point x="2415" y="-212" type="line"/>
      <point x="6" y="-212" type="line"/>
      <point x="35" y="-594"/>
      <point x="324" y="-855"/>
      <point x="946" y="-855" type="curve" smooth="yes"/>
      <point x="1508" y="-855"/>
      <point x="1772" y="-630"/>
      <point x="1840" y="-326" type="curve"/>
      <point x="1846" y="-273" type="line"/>
      <point x="1859" y="-201"/>
      <point x="1871" y="-85"/>
      <point x="1871" y="26" type="curve" smooth="yes"/>
      <point x="1871" y="31" type="line" smooth="yes"/>
      <point x="1871" y="481"/>
      <point x="1673" y="679"/>
      <point x="1220" y="679" type="curve" smooth="yes"/>
      <point x="1180" y="679" type="line"/>
    </contour>
    <component base="KaComponent_Nonexporting" xOffset="47"/>
    <component base="KaBeak_Nonexporting" xOffset="1326"/>
  </outline>
</glyph>
<glyph name="Tail_NonExporting" format="2">
  <advance width="697"/>
  <outline>
    <contour>
      <point x="724" y="-246" type="line"/>
      <point x="531" y="-246" type="line" smooth="yes"/>
      <point x="244" y="-246"/>
      <point x="111" y="-284"/>
      <point x="16" y="-344" type="curve"/>
      <point x="-13" y="-547" type="line"/>
      <point x="123" y="-464"/>
      <point x="251" y="-415"/>
      <point x="536" y="-415" type="curve" smooth="yes"/>
      <point x="724" y="-415" type="line"/>
    </contour>
  </outline>
</glyph>
<glyph name="TtaMatraI.tm" format="2">
  <advance width="2080"/>
  <note>
TtaMatraI.tm
</note>
  <outline>
    <contour>
      <point x="526" y="162" type="line"/>
      <point x="407" y="162" type="line"/>
      <point x="407" y="1111" type="line"/>
      <point x="199" y="1111" type="line"/>
      <point x="199" y="0" type="line"/>
      <point x="526" y="0" type="line"/>
    </contour>
    <component base="Ssa_Above_NonExporting" xOffset="392"/>
    <component base="Ssa_Below_NonExporting" xOffset="891"/>
  </outline>
</glyph>
<glyph name="TtaMatraIi.tm" format="2">
  <advance width="2049"/>
  <note>
TtaMatraIi.tm
</note>
  <outline>
    <contour>
      <point x="407" y="1121" type="line"/>
      <point x="199" y="1121" type="line"/>
      <point x="199" y="0" type="line"/>
      <point x="2012" y="0" type="line"/>
      <point x="2037" y="163" type="line"/>
      <point x="406" y="163" type="line"/>
    </contour>
    <contour>
      <point x="1321" y="933" type="curve" smooth="yes"/>
      <point x="958" y="933"/>
      <point x="766" y="777"/>
      <point x="766" y="493" type="curve" smooth="yes"/>
      <point x="766" y="493" type="line" smooth="yes"/>
      <point x="766" y="339"/>
      <point x="819" y="221"/>
      <point x="868" y="156" type="curve"/>
      <point x="1066" y="156" type="line"/>
      <point x="1008" y="231"/>
      <point x="958" y="348"/>
      <point x="958" y="479" type="curve" smooth="yes"/>
      <point x="958" y="479" type="line" smooth="yes"/>
      <point x="958" y="658"/>
      <point x="1061" y="757"/>
      <point x="1237" y="778" type="curve"/>
      <point x="1237" y="770" type="line"/>
      <point x="1273" y="778"/>
      <point x="1318" y="782"/>
      <point x="1364" y="782" type="curve" smooth="yes"/>
      <point x="1537" y="782"/>
      <point x="1612" y="724"/>
      <point x="1612" y="619" type="curve" smooth="yes"/>
      <point x="1612" y="617" type="line" smooth="yes"/>
      <point x="1612" y="521"/>
      <point x="1559" y="471"/>
      <point x="1447" y="471" type="curve" smooth="yes"/>
      <point x="1324" y="471"/>
      <point x="1273" y="534"/>
      <point x="1273" y="637" type="curve" smooth="yes"/>
      <point x="1273" y="638" type="line" smooth="yes"/>
      <point x="1273" y="697"/>
      <point x="1286" y="741"/>
      <point x="1306" y="783" type="curve"/>
      <point x="1237" y="779" type="line"/>
      <point x="1237" y="772" type="line"/>
      <point x="1173" y="747"/>
      <point x="1116" y="690"/>
      <point x="1116" y="587" type="curve" smooth="yes"/>
      <point x="1116" y="585" type="line" smooth="yes"/>
      <point x="1116" y="433"/>
      <point x="1219" y="325"/>
      <point x="1450" y="325" type="curve" smooth="yes"/>
      <point x="1675" y="325"/>
      <point x="1790" y="430"/>
      <point x="1790" y="618" type="curve" smooth="yes"/>
      <point x="1790" y="620" type="line" smooth="yes"/>
      <point x="1790" y="816"/>
      <point x="1631" y="933"/>
    </contour>
  </outline>
</glyph>
<glyph name="TtaMatraU.tm" format="2">
  <advance width="2053"/>
  <note>
TtaMatraU.tm
</note>
  <outline>
    <contour>
      <point x="947" y="1121" type="line"/>
      <point x="947" y="0" type="line"/>
      <point x="1153" y="0" type="line"/>
      <point x="1153" y="1121" type="line"/>
    </contour>
    <contour>
      <point x="1943" y="877" type="curve" smooth="yes"/>
      <point x="1943" y="1423"/>
      <point x="1669" y="1706"/>
      <point x="1112" y="1706" type="curve" smooth="yes"/>
      <point x="472" y="1706"/>
      <point x="165" y="1341"/>
      <point x="165" y="593" type="curve" smooth="yes"/>
      <point x="165" y="563" type="line" smooth="yes"/>
      <point x="165" y="-188"/>
      <point x="461" y="-549"/>
      <point x="1080" y="-549" type="curve" smooth="yes"/>
      <point x="1612" y="-549"/>
      <point x="1872" y="-289"/>
      <point x="1872" y="226" type="curve" smooth="yes"/>
      <point x="1872" y="230" type="line" smooth="yes"/>
      <point x="1872" y="531"/>
      <point x="1758" y="702"/>
      <point x="1494" y="702" type="curve" smooth="yes"/>
      <point x="1308" y="702"/>
      <point x="1191" y="592"/>
      <point x="1161" y="445" type="curve"/>
      <point x="1124" y="445" type="line"/>
      <point x="1124" y="306" type="line"/>
      <point x="1140" y="306" type="line"/>
      <point x="1178" y="445"/>
      <point x="1281" y="521"/>
      <point x="1419" y="521" type="curve" smooth="yes"/>
      <point x="1590" y="521"/>
      <point x="1662" y="413"/>
      <point x="1662" y="221" type="curve" smooth="yes"/>
      <point x="1662" y="217" type="line" smooth="yes"/>
      <point x="1662" y="-185"/>
      <point x="1475" y="-376"/>
      <point x="1080" y="-376" type="curve" smooth="yes"/>
      <point x="595" y="-376"/>
      <point x="376" y="-76"/>
      <point x="376" y="563" type="curve" smooth="yes"/>
      <point x="376" y="593" type="line" smooth="yes"/>
      <point x="376" y="1228"/>
      <point x="604" y="1533"/>
      <point x="1112" y="1533" type="curve" smooth="yes"/>
      <point x="1531" y="1533"/>
      <point x="1733" y="1317"/>
      <point x="1733" y="877" type="curve" smooth="yes"/>
      <point x="1733" y="842"/>
      <point x="1731" y="810"/>
      <point x="1729" y="774" type="curve"/>
      <point x="1939" y="774" type="line"/>
      <point x="1941" y="804"/>
      <point x="1943" y="845"/>
    </contour>
  </outline>
</glyph>
<glyph name="VaMatraI_SimpleI.tm" format="2">
  <advance width="3028"/>
  <note>
VaMatraI.tm
</note>
  <outline>
    <contour>
      <point x="2050" y="1121" type="line"/>
      <point x="2050" y="163" type="line"/>
      <point x="1553" y="163" type="line"/>
      <point x="1562" y="0" type="line"/>
      <point x="2256" y="0" type="line"/>
      <point x="2256" y="1121" type="line"/>
    </contour>
    <contour>
      <point x="2229" y="1783" type="curve" smooth="yes"/>
      <point x="1872" y="1783"/>
      <point x="1666" y="1623"/>
      <point x="1666" y="1357" type="curve" smooth="yes"/>
      <point x="1666" y="1356" type="line" smooth="yes"/>
      <point x="1666" y="1081"/>
      <point x="1858" y="968"/>
      <point x="2125" y="968" type="curve"/>
      <point x="2166" y="1121" type="line"/>
      <point x="1981" y="1121"/>
      <point x="1868" y="1188"/>
      <point x="1868" y="1353" type="curve" smooth="yes"/>
      <point x="1868" y="1354" type="line" smooth="yes"/>
      <point x="1868" y="1522"/>
      <point x="2002" y="1613"/>
      <point x="2229" y="1613" type="curve" smooth="yes"/>
      <point x="2511" y="1613"/>
      <point x="2623" y="1506"/>
      <point x="2623" y="1245" type="curve" smooth="yes"/>
      <point x="2623" y="0" type="line"/>
      <point x="2829" y="0" type="line"/>
      <point x="2829" y="1234" type="line" smooth="yes"/>
      <point x="2829" y="1615"/>
      <point x="2652" y="1783"/>
    </contour>
    <component base="Va_NonExporting" xOffset="13"/>
  </outline>
</glyph>
<glyph name="VaMatraIi_SimpleIi.tm" format="2">
  <advance width="2458"/>
  <note>
VaMatraIi.tm
</note>
  <outline>
    <contour>
      <point x="2258" y="1121" type="line"/>
      <point x="2052" y="1121" type="line"/>
      <point x="2052" y="163" type="line"/>
      <point x="1468" y="163" type="line"/>
      <point x="1477" y="0" type="line"/>
      <point x="2258" y="0" type="line"/>
    </contour>
    <contour>
      <point x="2100" y="1856" type="curve" smooth="yes"/>
      <point x="1786" y="1856"/>
      <point x="1652" y="1717"/>
      <point x="1652" y="1444" type="curve" smooth="yes"/>
      <point x="1652" y="1444" type="line" smooth="yes"/>
      <point x="1652" y="1089"/>
      <point x="1838" y="969"/>
      <point x="2129" y="969" type="curve"/>
      <point x="2207" y="969" type="line"/>
      <point x="2207" y="1121" type="line"/>
      <point x="2143" y="1121" type="line"/>
      <point x="1948" y="1121"/>
      <point x="1840" y="1208"/>
      <point x="1840" y="1445" type="curve"/>
      <point x="1840" y="1448" type="line"/>
      <point x="1840" y="1481" type="line" smooth="yes"/>
      <point x="1840" y="1637"/>
      <point x="1925" y="1708"/>
      <point x="2093" y="1708" type="curve" smooth="yes"/>
      <point x="2242" y="1708"/>
      <point x="2317" y="1656"/>
      <point x="2317" y="1561" type="curve" smooth="yes"/>
      <point x="2317" y="1558" type="line" smooth="yes"/>
      <point x="2317" y="1462"/>
      <point x="2255" y="1415"/>
      <point x="2100" y="1415" type="curve" smooth="yes"/>
      <point x="1963" y="1415"/>
      <point x="1879" y="1454"/>
      <point x="1835" y="1499" type="curve"/>
      <point x="1831" y="1499" type="line"/>
      <point x="1831" y="1443" type="line"/>
      <point x="1843" y="1443" type="line"/>
      <point x="1906" y="1320" type="line"/>
      <point x="1945" y="1298"/>
      <point x="2036" y="1274"/>
      <point x="2151" y="1274" type="curve" smooth="yes"/>
      <point x="2399" y="1274"/>
      <point x="2502" y="1372"/>
      <point x="2502" y="1558" type="curve" smooth="yes"/>
      <point x="2502" y="1561" type="line" smooth="yes"/>
      <point x="2502" y="1751"/>
      <point x="2372" y="1856"/>
    </contour>
    <component base="Va_NonExporting" xOffset="13"/>
  </outline>
</glyph>
<glyph name="VowelAi_Fused.tm" format="2">
  <advance width="2392"/>
  <note>
vowelAi.tm
</note>
  <outline>
    <contour>
      <point x="766" y="1165" type="curve" smooth="yes"/>
      <point x="355" y="1165"/>
      <point x="137" y="1000"/>
      <point x="137" y="728" type="curve" smooth="yes"/>
      <point x="137" y="718" type="line" smooth="yes"/>
      <point x="137" y="493"/>
      <point x="281" y="352"/>
      <point x="585" y="352" type="curve" smooth="yes"/>
      <point x="859" y="352"/>
      <point x="990" y="458"/>
      <point x="990" y="641" type="curve" smooth="yes"/>
      <point x="990" y="643" type="line" smooth="yes"/>
      <point x="990" y="805"/>
      <point x="884" y="904"/>
      <point x="663" y="904" type="curve" smooth="yes"/>
      <point x="478" y="904"/>
      <point x="359" y="828"/>
      <point x="330" y="733" type="curve"/>
      <point x="313" y="733" type="line"/>
      <point x="321" y="640" type="line"/>
      <point x="349" y="703"/>
      <point x="450" y="756"/>
      <point x="585" y="756" type="curve" smooth="yes"/>
      <point x="730" y="756"/>
      <point x="795" y="709"/>
      <point x="795" y="631" type="curve" smooth="yes"/>
      <point x="795" y="629" type="line" smooth="yes"/>
      <point x="795" y="553"/>
      <point x="727" y="499"/>
      <point x="581" y="499" type="curve" smooth="yes"/>
      <point x="411" y="499"/>
      <point x="332" y="566"/>
      <point x="332" y="673" type="curve"/>
      <point x="334" y="733" type="line"/>
      <point x="322" y="733" type="line"/>
      <point x="322" y="900"/>
      <point x="476" y="1004"/>
      <point x="777" y="1004" type="curve" smooth="yes"/>
      <point x="1145" y="1004"/>
      <point x="1294" y="858"/>
      <point x="1294" y="581" type="curve" smooth="yes"/>
      <point x="1294" y="426" type="line"/>
      <point x="1493" y="426" type="line"/>
      <point x="1493" y="659" type="line" smooth="yes"/>
      <point x="1493" y="907"/>
      <point x="1613" y="992"/>
      <point x="1781" y="992" type="curve" smooth="yes"/>
      <point x="1983" y="992"/>
      <point x="2057" y="873"/>
      <point x="2057" y="685" type="curve" smooth="yes"/>
      <point x="2057" y="682" type="line" smooth="yes"/>
      <point x="2057" y="438"/>
      <point x="1948" y="317"/>
      <point x="1600" y="305" type="curve" smooth="yes"/>
      <point x="743" y="275" type="line" smooth="yes"/>
      <point x="340" y="261"/>
      <point x="160" y="122"/>
      <point x="160" y="-153" type="curve" smooth="yes"/>
      <point x="160" y="-156" type="line" smooth="yes"/>
      <point x="160" y="-422"/>
      <point x="345" y="-590"/>
      <point x="749" y="-590" type="curve" smooth="yes"/>
      <point x="1078" y="-590"/>
      <point x="1245" y="-456"/>
      <point x="1261" y="-219" type="curve"/>
      <point x="1269" y="-219" type="line"/>
      <point x="1284" y="-454"/>
      <point x="1437" y="-590"/>
      <point x="1743" y="-590" type="curve" smooth="yes"/>
      <point x="2101" y="-590"/>
      <point x="2232" y="-410"/>
      <point x="2232" y="-120" type="curve" smooth="yes"/>
      <point x="2232" y="-45"/>
      <point x="2222" y="29"/>
      <point x="2198" y="95" type="curve"/>
      <point x="2007" y="100" type="line"/>
      <point x="2030" y="34"/>
      <point x="2040" y="-37"/>
      <point x="2040" y="-101" type="curve" smooth="yes"/>
      <point x="2040" y="-302"/>
      <point x="1956" y="-427"/>
      <point x="1720" y="-427" type="curve" smooth="yes"/>
      <point x="1500" y="-427"/>
      <point x="1368" y="-337"/>
      <point x="1368" y="-79" type="curve" smooth="yes"/>
      <point x="1368" y="0" type="line"/>
      <point x="1163" y="0" type="line"/>
      <point x="1163" y="-82" type="line" smooth="yes"/>
      <point x="1163" y="-334"/>
      <point x="1019" y="-427"/>
      <point x="768" y="-427" type="curve" smooth="yes"/>
      <point x="484" y="-427"/>
      <point x="361" y="-320"/>
      <point x="361" y="-154" type="curve" smooth="yes"/>
      <point x="361" y="-151" type="line" smooth="yes"/>
      <point x="361" y="9"/>
      <point x="467" y="102"/>
      <point x="782" y="113" type="curve" smooth="yes"/>
      <point x="1662" y="144" type="line" smooth="yes"/>
      <point x="2120" y="160"/>
      <point x="2256" y="347"/>
      <point x="2256" y="693" type="curve" smooth="yes"/>
      <point x="2256" y="696" type="line" smooth="yes"/>
      <point x="2256" y="980"/>
      <point x="2128" y="1154"/>
      <point x="1810" y="1154" type="curve" smooth="yes"/>
      <point x="1537" y="1154"/>
      <point x="1411" y="1011"/>
      <point x="1391" y="777" type="curve"/>
      <point x="1384" y="777" type="line"/>
      <point x="1347" y="1011"/>
      <point x="1168" y="1165"/>
    </contour>
  </outline>
</glyph>
<glyph name="YaMatraI_Fly.tm" format="2">
  <advance width="2524"/>
  <outline>
    <contour>
      <point x="1795" y="0" type="line"/>
      <point x="1795" y="170" type="line"/>
      <point x="1105" y="170" type="line"/>
      <point x="1105" y="1122" type="line"/>
      <point x="894" y="1122" type="line"/>
      <point x="894" y="492" type="line" smooth="yes"/>
      <point x="894" y="250"/>
      <point x="817" y="151"/>
      <point x="641" y="151" type="curve" smooth="yes"/>
      <point x="493" y="151"/>
      <point x="402" y="238"/>
      <point x="402" y="441" type="curve" smooth="yes"/>
      <point x="402" y="1122" type="line"/>
      <point x="196" y="1122" type="line"/>
      <point x="196" y="445" type="line" smooth="yes"/>
      <point x="196" y="123"/>
      <point x="339" y="-21"/>
      <point x="590" y="-21" type="curve" smooth="yes"/>
      <point x="815" y="-21"/>
      <point x="933" y="81"/>
      <point x="960" y="267" type="curve"/>
      <point x="970" y="267" type="line"/>
      <point x="966" y="0" type="line"/>
    </contour>
    <contour>
      <point x="2117" y="1121" type="line"/>
      <point x="2117" y="170" type="line"/>
      <point x="1674" y="170" type="line"/>
      <point x="1674" y="0" type="line"/>
      <point x="2328" y="0" type="line"/>
      <point x="2328" y="1121" type="line"/>
    </contour>
    <contour>
      <point x="2441" y="1610" type="line"/>
      <point x="1911" y="1610" type="line" smooth="yes"/>
      <point x="1669" y="1610"/>
      <point x="1558" y="1525"/>
      <point x="1558" y="1333" type="curve" smooth="yes"/>
      <point x="1558" y="1198"/>
      <point x="1626" y="1026"/>
      <point x="1681" y="939" type="curve" smooth="yes"/>
      <point x="1756" y="818"/>
      <point x="1810" y="780"/>
      <point x="1982" y="780" type="curve" smooth="yes"/>
      <point x="2124" y="780" type="line"/>
      <point x="2124" y="946" type="line"/>
      <point x="2017" y="946" type="line" smooth="yes"/>
      <point x="1935" y="946"/>
      <point x="1901" y="963"/>
      <point x="1863" y="1023" type="curve" smooth="yes"/>
      <point x="1817" y="1094"/>
      <point x="1763" y="1214"/>
      <point x="1763" y="1302" type="curve" smooth="yes"/>
      <point x="1763" y="1404"/>
      <point x="1825" y="1442"/>
      <point x="1965" y="1442" type="curve" smooth="yes"/>
      <point x="2471" y="1442" type="line"/>
    </contour>
  </outline>
</glyph>
<glyph name="YaMatraIi.tm" format="2">
  <advance width="2524"/>
  <note>
YaMatraIi.tm
</note>
  <outline>
    <contour>
      <point x="2117" y="1121" type="line"/>
      <point x="2117" y="170" type="line"/>
      <point x="1657" y="170" type="line"/>
      <point x="1657" y="0" type="line"/>
      <point x="2328" y="0" type="line"/>
      <point x="2328" y="1121" type="line"/>
    </contour>
    <contour>
      <point x="1795" y="0" type="line"/>
      <point x="1795" y="170" type="line"/>
      <point x="1105" y="170" type="line"/>
      <point x="1105" y="1122" type="line"/>
      <point x="894" y="1122" type="line"/>
      <point x="894" y="492" type="line" smooth="yes"/>
      <point x="894" y="250"/>
      <point x="817" y="151"/>
      <point x="641" y="151" type="curve" smooth="yes"/>
      <point x="493" y="151"/>
      <point x="402" y="238"/>
      <point x="402" y="441" type="curve" smooth="yes"/>
      <point x="402" y="1122" type="line"/>
      <point x="196" y="1122" type="line"/>
      <point x="196" y="445" type="line" smooth="yes"/>
      <point x="196" y="123"/>
      <point x="339" y="-21"/>
      <point x="590" y="-21" type="curve" smooth="yes"/>
      <point x="815" y="-21"/>
      <point x="933" y="81"/>
      <point x="960" y="267" type="curve"/>
      <point x="970" y="267" type="line"/>
      <point x="966" y="0" type="line"/>
    </contour>
    <contour>
      <point x="2233" y="1891" type="curve" smooth="yes"/>
      <point x="1784" y="1891"/>
      <point x="1546" y="1671"/>
      <point x="1546" y="1298" type="curve" smooth="yes"/>
      <point x="1546" y="1298" type="line" smooth="yes"/>
      <point x="1546" y="916"/>
      <point x="1773" y="708"/>
      <point x="2131" y="683" type="curve"/>
      <point x="2131" y="850" type="line"/>
      <point x="1887" y="875"/>
      <point x="1740" y="1032"/>
      <point x="1740" y="1298" type="curve" smooth="yes"/>
      <point x="1740" y="1298" type="line" smooth="yes"/>
      <point x="1740" y="1567"/>
      <point x="1898" y="1712"/>
      <point x="2149" y="1736" type="curve"/>
      <point x="2149" y="1728" type="line"/>
      <point x="2185" y="1736"/>
      <point x="2230" y="1740"/>
      <point x="2276" y="1740" type="curve" smooth="yes"/>
      <point x="2449" y="1740"/>
      <point x="2524" y="1682"/>
      <point x="2524" y="1577" type="curve" smooth="yes"/>
      <point x="2524" y="1575" type="line" smooth="yes"/>
      <point x="2524" y="1479"/>
      <point x="2471" y="1429"/>
      <point x="2359" y="1429" type="curve" smooth="yes"/>
      <point x="2236" y="1429"/>
      <point x="2185" y="1492"/>
      <point x="2185" y="1595" type="curve" smooth="yes"/>
      <point x="2185" y="1596" type="line" smooth="yes"/>
      <point x="2185" y="1655"/>
      <point x="2198" y="1699"/>
      <point x="2218" y="1741" type="curve"/>
      <point x="2149" y="1737" type="line"/>
      <point x="2149" y="1730" type="line"/>
      <point x="2085" y="1705"/>
      <point x="2028" y="1648"/>
      <point x="2028" y="1545" type="curve" smooth="yes"/>
      <point x="2028" y="1543" type="line" smooth="yes"/>
      <point x="2028" y="1391"/>
      <point x="2131" y="1283"/>
      <point x="2362" y="1283" type="curve" smooth="yes"/>
      <point x="2587" y="1283"/>
      <point x="2702" y="1388"/>
      <point x="2702" y="1576" type="curve" smooth="yes"/>
      <point x="2702" y="1578" type="line" smooth="yes"/>
      <point x="2702" y="1774"/>
      <point x="2543" y="1891"/>
    </contour>
  </outline>
</glyph>
<glyph name="YaMatraIi_SimpleIi.tm" format="2">
  <advance width="2520"/>
  <note>
YaMatraIi.tm
</note>
  <outline>
    <contour>
      <point x="2320" y="1121" type="line"/>
      <point x="2108" y="1121" type="line"/>
      <point x="2108" y="170" type="line"/>
      <point x="1652" y="170" type="line"/>
      <point x="1652" y="0" type="line"/>
      <point x="2320" y="0" type="line"/>
    </contour>
    <contour>
      <point x="2161" y="1856" type="curve" smooth="yes"/>
      <point x="1848" y="1856"/>
      <point x="1714" y="1717"/>
      <point x="1714" y="1444" type="curve" smooth="yes"/>
      <point x="1714" y="1444" type="line" smooth="yes"/>
      <point x="1714" y="1089"/>
      <point x="1899" y="969"/>
      <point x="2190" y="969" type="curve"/>
      <point x="2269" y="969" type="line"/>
      <point x="2269" y="1121" type="line"/>
      <point x="2205" y="1121" type="line"/>
      <point x="2009" y="1121"/>
      <point x="1901" y="1208"/>
      <point x="1901" y="1445" type="curve"/>
      <point x="1901" y="1448" type="line"/>
      <point x="1901" y="1481" type="line" smooth="yes"/>
      <point x="1901" y="1637"/>
      <point x="1986" y="1708"/>
      <point x="2154" y="1708" type="curve" smooth="yes"/>
      <point x="2303" y="1708"/>
      <point x="2379" y="1656"/>
      <point x="2379" y="1561" type="curve" smooth="yes"/>
      <point x="2379" y="1558" type="line" smooth="yes"/>
      <point x="2379" y="1462"/>
      <point x="2316" y="1415"/>
      <point x="2161" y="1415" type="curve" smooth="yes"/>
      <point x="2025" y="1415"/>
      <point x="1941" y="1454"/>
      <point x="1896" y="1499" type="curve"/>
      <point x="1892" y="1499" type="line"/>
      <point x="1892" y="1443" type="line"/>
      <point x="1904" y="1443" type="line"/>
      <point x="1967" y="1320" type="line"/>
      <point x="2007" y="1298"/>
      <point x="2097" y="1274"/>
      <point x="2213" y="1274" type="curve" smooth="yes"/>
      <point x="2460" y="1274"/>
      <point x="2564" y="1372"/>
      <point x="2564" y="1558" type="curve" smooth="yes"/>
      <point x="2564" y="1561" type="line" smooth="yes"/>
      <point x="2564" y="1751"/>
      <point x="2433" y="1856"/>
    </contour>
    <contour>
      <point x="1795" y="0" type="line"/>
      <point x="1795" y="170" type="line"/>
      <point x="1105" y="170" type="line"/>
      <point x="1105" y="1122" type="line"/>
      <point x="894" y="1122" type="line"/>
      <point x="894" y="492" type="line" smooth="yes"/>
      <point x="894" y="250"/>
      <point x="817" y="151"/>
      <point x="641" y="151" type="curve" smooth="yes"/>
      <point x="493" y="151"/>
      <point x="402" y="238"/>
      <point x="402" y="441" type="curve" smooth="yes"/>
      <point x="402" y="1122" type="line"/>
      <point x="196" y="1122" type="line"/>
      <point x="196" y="445" type="line" smooth="yes"/>
      <point x="196" y="123"/>
      <point x="339" y="-21"/>
      <point x="590" y="-21" type="curve" smooth="yes"/>
      <point x="815" y="-21"/>
      <point x="933" y="81"/>
      <point x="960" y="267" type="curve"/>
      <point x="970" y="267" type="line"/>
      <point x="966" y="0" type="line"/>
    </contour>
  </outline>
</glyph>
<glyph name="circumflexcomb.narrow" format="2">
  <anchor x="472" y="958" name="_top"/>
  <anchor x="472" y="1346" name="top"/>
  <outline>
    <contour>
      <point x="363" y="1387" type="line"/>
      <point x="155" y="1098" type="line"/>
      <point x="155" y="1094" type="line"/>
      <point x="331" y="1094" type="line"/>
      <point x="469" y="1270" type="line"/>
      <point x="475" y="1270" type="line"/>
      <point x="612" y="1094" type="line"/>
      <point x="789" y="1094" type="line"/>
      <point x="789" y="1098" type="line"/>
      <point x="581" y="1387" type="line"/>
    </contour>
  </outline>
</glyph>
<glyph name="one.tf" format="2">
  <advance width="1470"/>
  <outline>
    <contour>
      <point x="688" y="0" type="line"/>
      <point x="911" y="0" type="line"/>
      <point x="910" y="1278" type="line"/>
      <point x="694" y="1278" type="line"/>
      <point x="202" y="1074" type="line"/>
      <point x="192" y="879" type="line"/>
      <point x="673" y="1074" type="line"/>
      <point x="688" y="1074" type="line"/>
    </contour>
    <contour>
      <point x="140" y="0" type="line"/>
      <point x="1361" y="0" type="line"/>
      <point x="1361" y="180" type="line"/>
      <point x="140" y="180" type="line"/>
    </contour>
  </outline>
</glyph>
